<svg width="127" height="114" viewBox="0 0 127 114" fill="none" xmlns="http://www.w3.org/2000/svg">
<path fill-rule="evenodd" clip-rule="evenodd" d="M125.559 59.3226C125.514 59.4483 125.401 59.7639 125.258 60.1609C125.384 60.2221 125.521 60.2872 125.711 60.3786C125.808 60.7294 126.342 61.1007 126.017 61.5752C125.725 62.0021 126.497 62.4533 125.907 62.7997C126.007 63.6951 125.377 64.3412 124.961 64.9668C124.584 65.5343 124.492 66.2429 123.922 66.7359C123.427 67.1647 123.148 67.845 122.773 68.4165C122.446 68.4314 122.142 68.4443 121.721 68.4632C121.797 68.7057 121.854 68.8876 121.944 69.1743C121.83 69.3016 121.645 69.5118 121.443 69.7394C121.568 70.122 121.684 70.4818 121.822 70.9042C121.626 71.1273 121.432 71.3489 121.22 71.5909C121.387 71.6506 121.543 71.7062 121.81 71.8011C121.505 72.0173 121.254 72.1952 120.991 72.3821C121.042 72.4422 121.122 72.5351 121.247 72.6807C120.35 73.0147 119.55 72.2106 118.561 72.5992C117.95 73.04 117.496 73.9394 116.588 74.2719C116.238 74.4006 116.538 75.0426 115.937 74.9671C115.724 74.9403 115.882 75.628 115.381 75.4944C115.194 76.1175 114.638 76.368 114.199 76.7605C113.835 77.0855 113.502 77.5094 113.209 77.9333C112.965 78.2861 112.704 78.628 112.445 78.9709C112.211 79.2815 111.936 79.5672 111.743 79.9012C111.579 80.1859 111.593 80.6724 111.371 80.8011C111.073 80.974 110.87 81.1609 110.806 81.5629C110.513 81.388 110.334 81.2816 110.154 81.1743C109.594 81.4481 109.033 81.7085 108.475 81.0237V79.601C107.403 78.9972 106.283 78.47 105.781 77.1049C105.82 76.6547 105.602 76.0166 106.035 75.4899C105.406 74.2336 105.952 73.1702 106.558 72.1227C107.287 70.8619 108.243 69.7856 109.365 68.7942C108.705 67.8048 108.016 66.883 107.454 65.8896C107.067 65.2063 106.64 64.4609 106.619 63.6792C106.597 62.8692 106.342 62.024 106.825 61.2025C107.041 60.8348 106.833 60.3021 107.075 59.8176C107.221 59.5264 107.31 59.2029 107.534 58.9236C107.655 58.773 107.649 58.5211 107.749 58.1215C107.972 57.9143 108.531 57.635 108.648 57.2295C108.817 56.6402 109.572 56.8648 109.561 56.1755C109.755 56.3231 109.842 56.3887 109.977 56.4906C110.289 56.3982 110.641 56.2938 111.01 56.1855C111.144 56.4399 111.257 56.6531 111.393 56.9125C111.123 57.401 110.829 57.9347 110.49 58.5479C111.16 58.4818 111.677 58.4301 112.119 58.3864C112.299 58.5668 112.395 58.6622 112.501 58.7685C112.321 59.1234 112.138 59.4821 111.898 59.9557C112.323 59.9994 112.653 60.0332 113.062 60.075C112.961 60.554 112.86 61.0346 112.761 61.5071C112.588 61.6612 112.402 61.8282 112.209 62.0001C112.331 62.1219 112.381 62.187 112.392 62.1805C112.569 62.0826 112.741 61.9758 112.952 61.8485C113.023 62.0384 113.067 62.1551 113.124 62.3062C112.74 62.5005 112.376 62.6854 111.96 62.8956C112.153 62.9602 112.306 63.0114 112.589 63.1058C112.266 63.4293 111.979 63.7165 111.605 64.0917C112.082 64.4679 112.504 64.8018 112.957 65.1596C113.624 65.2863 114.16 65.0051 114.684 64.5519C115.897 63.5048 117.23 62.591 118.425 61.5385C119.649 60.4606 120.95 59.4046 121.821 57.9605C122.025 57.6226 122.383 57.3781 122.691 57.071H124.117C124.195 57.1699 124.329 57.3404 124.468 57.5153C124.312 57.96 124.152 58.4182 123.943 59.0135C124.376 58.8948 124.727 58.7984 125.183 58.6726C125.255 58.7969 125.367 58.9902 125.559 59.3226" fill="#03548A"/>
<path fill-rule="evenodd" clip-rule="evenodd" d="M39.5549 87.8643C39.1152 88.0005 38.7539 88.1128 38.2868 88.2574C38.4006 88.0134 38.4756 87.8524 38.5705 87.6482C38.2594 87.1796 37.9076 86.7602 37.2641 86.8531C37.2144 86.6633 37.1826 86.541 37.1379 86.3711H36.0183C35.9065 86.2593 35.8096 86.2061 35.7842 86.1296C35.6128 85.6127 35.5765 84.9985 35.2654 84.593C34.8649 84.0717 35.0641 83.5604 35.0458 83.0555C35.0304 82.6455 35.1958 82.2256 35.2967 81.8142C35.6585 80.3433 36.218 78.9444 36.9306 77.6141C37.3694 76.7961 37.8609 75.9995 38.3996 75.2437C38.9258 74.5053 39.5425 73.8309 40.1374 73.1059C39.9758 73.0025 39.7989 72.8823 39.6151 72.7735C37.8375 71.7219 36.2806 70.3981 34.8371 68.9302C34.1558 68.2374 34.1518 67.3077 33.953 66.452C33.873 66.1096 33.9401 65.7324 33.9401 65.3711C34.3043 64.6764 35.0383 64.6178 35.7504 64.3345C35.9904 64.7569 36.2369 65.1912 36.5152 65.6797C36.5639 65.6439 36.6484 65.5818 36.7999 65.47C36.8929 65.5624 37.0564 65.6514 37.1021 65.7821C37.3853 66.5876 38.0433 66.9976 38.7425 67.3464C40.1652 68.0575 41.6008 68.7408 43.1284 69.4828C43.4857 69.1051 43.843 68.5257 44.3618 68.2359C44.8398 67.9686 44.8647 67.2038 45.6101 67.2774C45.5037 67.1467 45.4297 67.0557 45.3194 66.9206C45.548 66.7605 45.7795 66.5985 46.1021 66.3729C46.2039 66.1483 46.3595 65.8059 46.5115 65.4705C46.7421 65.4571 46.9563 65.4447 47.2649 65.4268C47.1337 65.2578 47.0651 65.1699 46.9588 65.0327C47.5342 64.9487 47.5725 64.3529 47.9347 64.0329C48.3174 63.6945 48.5882 63.2298 48.951 62.7647C49.0315 62.8238 49.1155 62.8855 49.2755 63.0032C49.346 62.8373 49.4121 62.6807 49.4951 62.4844C49.593 62.5634 49.6835 62.636 49.8465 62.7682C50.0239 61.8165 50.5635 61.0533 51.137 60.367C51.7278 59.6594 52.2591 58.8469 53.2261 58.3733C53.3474 58.4732 53.5098 58.6069 53.6937 58.7579C53.3116 59.4919 52.9414 60.2194 52.1582 60.6025V61.6864C52.3435 61.6411 52.5319 61.6496 52.5711 61.577C52.7282 61.2843 52.839 60.9668 52.9011 60.8172C53.5451 60.2865 54.0714 59.8532 54.7353 59.3065C54.7731 59.8129 54.7969 60.1434 54.8208 60.4604C54.6185 60.5434 54.4645 60.6065 54.3025 60.6731C54.3442 60.7312 54.3964 60.8436 54.4242 60.8376C54.7532 60.77 55.0787 60.6845 55.4787 60.5856C55.592 60.7854 55.7302 61.0284 55.8693 61.2729C55.7948 61.3559 55.7058 61.4543 55.6099 61.5606C55.6665 61.9532 56.1386 62.2996 55.7734 62.7493C55.667 62.6534 55.5726 62.5679 55.4762 62.48C55.4315 62.5639 55.3445 62.6529 55.3624 62.709C55.4121 62.8681 55.505 63.0137 55.6094 63.2194C55.5349 63.9076 54.9848 64.3648 54.4744 64.8295C53.9914 65.2692 53.4602 65.6554 52.839 66.1538C53.0944 66.3004 53.3165 66.4286 53.5665 66.5727C53.4105 66.8724 53.316 67.0532 53.2167 67.2431C53.2743 67.3072 53.3608 67.4016 53.4949 67.5497C53.2003 67.5969 52.9518 67.6371 52.5955 67.6953C52.6924 67.9423 52.7754 68.1525 52.8713 68.3965H51.9689C51.8014 68.7398 51.6553 69.0395 51.5161 69.3247C51.6454 69.4639 51.7358 69.5613 51.866 69.7014C51.5892 69.7526 51.3412 69.7988 50.9805 69.8664C51.0679 70.097 51.1479 70.3047 51.2418 70.5517C51.0103 70.5859 50.7608 70.6227 50.4358 70.6704C50.5312 70.9278 50.6087 71.1366 50.737 71.4824C50.3841 71.3453 50.1272 71.2454 49.8171 71.1251C49.671 71.4034 49.522 71.6877 49.3768 71.9639C49.4285 72.0623 49.4489 72.1702 49.51 72.2035C49.6179 72.2621 49.7635 72.2512 49.8703 72.3108C50.2852 72.5424 50.3821 73.0791 50.7901 73.3091C51.2299 73.5576 51.4212 73.984 51.7015 74.3636C51.9539 74.7055 52.1413 74.9938 52.113 75.4266C52.103 75.5747 52.2352 75.7317 52.3172 75.9171C52.2457 76.0388 52.1433 76.2122 52.0036 76.4498C51.6374 76.492 51.371 76.9825 50.7027 76.7236C49.5354 76.2709 48.3204 75.8654 47.0527 75.7128C46.9821 75.7044 46.924 75.5921 46.8087 75.4768C46.438 75.8947 46.0698 76.3096 45.6076 76.8309C45.6016 76.8801 45.5768 77.0933 45.5495 77.3234C45.2901 77.3641 45.0416 77.4034 44.6555 77.464C44.9104 77.8218 45.1007 78.0892 45.3845 78.4877C45.064 78.3938 44.8503 78.3317 44.5789 78.2522C44.5228 78.3187 44.409 78.4534 44.2853 78.5995C44.4423 79.0333 44.3161 79.2987 43.8077 79.5874C43.6556 80.134 43.5095 80.6593 43.3878 81.0976C43.1582 81.1821 43.03 81.2293 42.8645 81.2904L43.1612 81.5871C42.7562 81.8972 42.2916 82.1481 41.9775 82.5248C41.6937 82.8642 41.5755 83.3413 41.3548 83.8223C41.3762 83.8551 41.4652 83.9883 41.6063 84.1995C41.3076 84.5071 41.0144 84.8092 40.7322 85.0994C40.842 85.2366 40.923 85.3374 41.0631 85.5124C40.8639 85.74 40.6681 85.9636 40.4499 86.2125V87.0027C40.1299 87.3108 39.8054 87.6233 39.5549 87.8643" fill="#03548A"/>
<path fill-rule="evenodd" clip-rule="evenodd" d="M72.883 93.265C73.5091 94.0223 73.5096 94.0238 74.2695 93.6039C74.2908 93.8464 74.2834 94.0576 74.3355 94.2524C74.3728 94.3905 74.4901 94.5073 74.5656 94.6246C74.4692 94.7215 74.4051 94.7851 74.3236 94.8666C74.513 94.9551 74.6938 95.04 74.99 95.1787C74.6819 95.6175 74.3912 96.0309 74.101 96.4449C74.4752 97.1177 73.6836 97.237 73.5698 97.5973C73.3944 98.1538 72.7175 98.2736 72.6982 98.8684C72.6758 99.5621 71.9642 99.6476 71.6551 100.052C71.3867 100.403 70.9097 100.633 70.8481 101.081C70.9549 101.264 71.0394 101.408 71.178 101.646C70.777 101.873 70.4277 102.071 70.0773 102.269L69.232 102.669C68.9751 102.972 68.7182 103.275 68.3748 103.68V103.946C67.5097 104.581 66.7016 105.176 65.7634 105.866C66.0318 106.002 66.1943 106.085 66.4636 106.223C66.0909 106.744 65.7137 107.272 65.3082 107.839C66.3493 108.194 67.3288 108.528 68.339 108.873C68.2392 109.074 68.1547 109.243 68.0404 109.473C68.4906 109.634 68.9115 109.784 69.392 109.955V110.544C69.6942 110.822 69.959 111.065 70.2334 111.318C70.2503 111.636 70.2657 111.94 70.2811 112.231L70.7725 112.722L69.5257 113.76C69.232 114.087 68.9259 114.026 68.597 113.808C68.4971 113.742 68.3569 113.704 68.2357 113.706C66.8363 113.737 65.5716 113.204 64.2985 112.739C63.3593 112.396 62.4553 111.957 61.4814 111.538C61.2155 111.803 60.8015 112.003 60.7484 112.55C60.1858 112.683 59.6089 112.82 59.0692 112.948C58.791 112.666 58.5688 112.442 58.3462 112.216C58.4307 112.123 58.5181 112.026 58.6473 111.884C58.5132 111.604 58.3686 111.304 58.2821 111.125C57.8632 111.189 57.4925 111.247 57.1307 111.303C56.9304 110.907 56.7505 110.55 56.5662 110.185C56.4762 110.275 56.4126 110.338 56.3893 110.362C56.0896 110.057 55.7875 109.75 55.3701 109.327C55.4998 108.387 54.898 107.307 55.0595 106.14C55.0938 105.895 54.9064 105.541 54.7091 105.356C53.9096 104.606 53.8753 103.522 53.4996 102.599C53.356 102.247 53.2029 101.799 53.1905 101.373C53.1696 100.697 53.0906 100.002 53.2064 99.3455C53.3893 98.3064 53.5861 97.1982 54.7961 96.7892C55.1961 96.6541 55.6364 96.6392 56.1637 96.5517V98.6652C56.6223 98.37 56.9294 98.1722 57.3876 97.877C57.4512 98.0639 57.5277 98.2865 57.6033 98.5091C57.6714 98.4575 57.7394 98.4058 57.8075 98.3541V99.6009C58.0406 99.4826 58.209 99.3972 58.3681 99.3162C58.943 99.8191 58.9281 100.463 58.8486 101.125C59.0409 101.194 59.1974 101.249 59.4484 101.338C59.3416 101.628 59.2347 101.916 59.1055 102.264C59.262 102.236 59.3406 102.245 59.3843 102.209C59.4896 102.126 59.5622 101.977 59.6775 101.933C60.8348 101.493 61.4172 100.263 62.5791 99.835C62.8126 98.9936 63.6997 98.8143 64.218 98.2473C64.7571 97.6579 65.5179 97.2743 66.1684 96.7828C66.7981 96.3067 67.1529 95.5047 67.9743 95.2527C68.514 94.2703 69.2907 93.5259 70.2572 92.9703C70.2234 92.3049 71.1388 92.2224 71.1174 91.5208H72.3394C72.4268 91.6077 72.5545 91.7354 72.6823 91.8631C72.0974 92.1543 71.8837 92.7194 71.5095 93.3167C72.319 93.4841 72.7851 92.4987 73.5479 92.9534C73.3273 93.0568 73.1469 93.1413 72.883 93.265" fill="#03548A"/>
<path fill-rule="evenodd" clip-rule="evenodd" d="M69.7401 78.9411C69.677 78.3075 70.5685 78.2379 70.1461 77.6476C70.0383 77.744 69.9424 77.829 69.8465 77.9139C69.8147 77.8816 69.7595 77.8533 69.754 77.8175C69.6537 77.1536 69.6939 76.524 70.165 75.9829C70.6833 75.3885 71.1971 74.7892 71.6941 74.177C71.8511 73.9837 71.948 73.7417 72.1026 73.4694C71.8571 72.8298 71.5206 72.1669 71.2284 71.508C70.9149 70.8003 70.9218 70.0331 70.5809 69.3329C70.3996 68.9612 70.8726 68.3087 70.7618 67.8535C70.6371 67.3441 70.3365 66.9108 70.7757 66.4308C70.7847 65.0881 71.6976 64.2512 72.4961 63.319H74.7537C74.8859 63.4442 75.0166 63.5684 75.2283 63.7687C74.8849 64.2065 74.541 64.6443 74.1609 65.1288C74.2031 65.2193 74.305 65.4354 74.4411 65.7251C74.5683 65.7251 74.8118 65.7982 74.8988 65.7122C75.276 65.342 75.7118 65.4916 76.1088 65.4478C76.2554 65.7654 76.3777 66.0307 76.5138 66.3254C76.3101 66.5799 76.0999 66.8427 75.7809 67.2408C76.2634 67.3024 76.5869 67.3436 77.0123 67.3978V68.6968C77.9276 68.7266 78.028 67.618 78.7987 67.6224C79.1486 67.0897 79.6589 66.719 80.1186 66.2941C80.6488 65.8046 81.1532 65.2858 81.6531 64.7646C82.1133 64.284 82.5804 63.8055 82.9939 63.2867C83.4192 62.752 83.785 62.1696 84.031 61.8167C84.591 61.616 84.9066 61.5027 85.2981 61.3625C85.4264 61.5449 85.6366 61.7303 85.6902 61.9534C85.7315 62.1248 85.5948 62.3529 85.5029 62.5383C85.398 62.749 85.2544 62.9398 85.2559 63.3105C85.651 63.1441 86.046 62.9771 86.4808 62.7937C86.7129 63.2459 86.9614 63.7299 87.3381 64.4639C87.3381 64.4485 87.3162 64.7154 87.3455 64.9763C87.3684 65.179 87.4543 65.3748 87.5304 65.6347C87.4767 65.7281 87.3783 65.901 87.2874 66.0611C87.424 66.2087 87.515 66.3065 87.596 66.3935C86.8108 67.6508 86.1042 68.9522 85.243 70.1692C84.5199 71.1909 84.6213 71.2625 84.0916 71.5517C84.1761 71.6456 84.2615 71.74 84.3301 71.8161C83.2577 73.0176 82.1943 74.2098 81.115 75.4198V75.8695C81.9627 76.4097 82.7832 76.932 83.6409 77.4781C83.5166 77.7216 83.4406 77.8707 83.3233 78.1018C83.6478 78.3806 83.866 78.9168 84.4941 78.719C84.6318 78.9923 84.7441 79.2154 84.8544 79.4351C84.7754 79.5454 84.677 79.682 84.5423 79.8694C84.8822 80.2098 85.1873 80.5154 85.5173 80.8458C85.3916 81.1694 85.2847 81.4452 85.166 81.7508C85.2529 81.8998 85.3573 82.0797 85.4537 82.2452C85.406 82.3481 85.3911 82.4544 85.3319 82.4937C85.1988 82.5806 85.003 82.5975 84.9056 82.7079C84.3227 83.3658 84.2183 83.4026 83.4853 83.1521C82.5362 82.8276 81.5155 82.6368 80.6483 82.1632C79.4865 81.5291 78.4424 80.6794 77.2423 79.849C76.7385 80.2217 76.1729 80.733 75.6283 81.315C75.1016 81.878 74.4073 82.3242 73.4423 82.6115C73.6122 82.3307 73.6818 82.2159 73.8324 81.9654C73.2276 82.0782 72.7202 82.1727 72.2134 82.2671L72.1264 82.0927C72.4315 81.8546 72.7361 81.6171 73.0413 81.3796L72.5697 80.908H71.6444C71.5211 80.5984 71.384 80.2515 71.222 79.844H70.0989C69.9444 79.4549 69.8057 79.1061 69.7401 78.9411" fill="#03548A"/>
<path fill-rule="evenodd" clip-rule="evenodd" d="M75.6184 52.3491C75.1532 52.4604 74.7433 52.5588 74.1648 52.6975C73.571 52.2587 72.8609 51.712 72.1279 51.1992C71.2538 50.5875 70.4945 49.8083 69.4966 49.3774C69.2656 49.2776 69.0231 49.2055 68.702 49.0902C68.3129 48.5073 68.2677 47.425 67.1263 47.5443C66.61 47.0722 66.5468 46.2522 65.792 46.1727C65.545 45.7518 65.389 45.2703 65.0645 44.9696C63.5831 43.5956 62.5112 41.9453 61.5894 39.9541C61.5094 39.3394 61.5089 38.5199 61.3762 37.698C61.1675 36.4035 61.8573 35.2918 62.9784 34.5743C63.2879 34.3765 63.4475 33.9417 63.9618 33.9879C64.3196 34.0202 64.6973 33.8299 65.1723 33.7131C65.313 33.8383 65.4993 34.0038 65.7344 34.2125C65.3522 34.854 64.6297 35.259 64.575 36.1207C65.4253 36.4045 65.8064 35.4598 66.6621 35.351C66.7665 35.4444 66.9518 35.6094 67.1258 35.7654C66.8226 36.2201 66.6184 36.5262 66.2422 37.0903C66.8271 36.9054 67.243 36.9024 67.3966 36.7002C67.7847 36.1883 68.4123 35.9831 68.7766 35.4136C69.116 34.8834 69.6726 34.4883 70.2415 34.1186C71.0461 33.5963 71.6981 32.8454 72.4524 32.2382C73.5611 31.3457 74.6002 30.3677 75.835 29.6258C76.3235 29.3331 76.6848 28.8233 77.0903 28.3984C77.459 28.0118 78.0449 27.8428 78.1607 27.2664H79.9834V28.4421C79.9328 28.4928 79.7578 28.6677 79.5471 28.8789C79.7886 28.8357 80.0297 28.8014 80.2662 28.7477C80.5067 28.6931 80.7433 28.6195 81.108 28.5196C81.0524 29.3947 81.0946 30.1694 81.7267 30.734C81.5935 30.9134 81.5175 31.0157 81.3644 31.2229C81.5572 31.3293 81.7809 31.4515 82.1968 31.6796C81.7684 31.7969 81.6228 31.8367 81.4241 31.8913C81.4996 32.0643 81.601 32.2258 81.6377 32.4012C81.675 32.5741 81.6462 32.7605 81.6462 32.9379C81.1438 33.6276 80.6409 34.3174 80.0888 35.0747C79.9874 35.0861 79.7737 35.1095 79.4597 35.1438C79.5551 35.2749 79.6137 35.3569 79.6908 35.4633C79.6098 35.6571 79.5198 35.8723 79.4189 36.1118C78.2263 36.0541 78.2178 37.2831 77.4804 37.7616C77.6364 37.9668 77.7139 38.0687 77.7492 38.1154C77.2588 38.6064 76.7638 39.1013 76.2639 39.6008C76.3041 39.6375 76.24 39.5794 76.2679 39.6042C76.0452 39.8264 75.8157 40.056 75.5861 40.286C75.5115 40.2279 75.4375 40.1702 75.363 40.1121V40.8257C75.2054 40.696 75.114 40.6205 74.9088 40.452C74.954 40.7561 74.9843 40.9584 75.0265 41.2426C74.6881 41.6809 74.2811 42.2082 73.8403 42.7797C73.6421 42.6345 73.5069 42.5347 73.3866 42.4462C72.8987 43.0167 72.3982 43.6016 71.8934 44.1919C72.0877 44.2888 72.2671 44.3778 72.5284 44.5075C72.2849 44.8161 72.0757 45.0815 71.8794 45.3304C71.9112 45.4402 71.9112 45.5416 71.9614 45.5983C72.7868 46.5236 73.7658 47.3509 74.4093 48.3876C75.1344 49.5549 76.0403 50.7599 75.6184 52.3491" fill="#03548A"/>
<path fill-rule="evenodd" clip-rule="evenodd" d="M94.4223 32.7557C94.5058 32.6722 94.5699 32.6081 94.636 32.542C94.5873 32.4794 94.546 32.4073 94.4879 32.3542C94.1366 32.0336 93.6928 31.7588 93.4086 31.4448C93.1298 31.1377 92.8177 30.9036 92.5354 30.6223C92.1603 30.2482 91.7418 29.7125 91.722 29.2309C91.6867 28.3692 91.6345 27.5051 91.8392 26.6022C92.1926 25.0433 93.009 23.863 94.0904 22.7862C95.4629 21.4191 96.8309 20.0476 98.2711 18.6075C97.7244 18.1369 97.6966 17.2484 96.8309 17.0754C96.4672 16.3683 96.1049 15.6611 95.7412 14.954C95.4057 14.3015 95.4659 13.5974 95.4693 12.9002C95.4723 12.4037 95.4703 11.9073 95.4703 11.4109C95.927 10.828 96.3837 10.2451 96.8329 9.67259H99.0905C98.7287 10.2903 98.4191 10.8185 98.1155 11.3373C98.9504 11.9436 99.257 10.6302 99.9905 11.0307C100.448 11.6573 99.5964 11.9525 99.3265 12.5588C99.8473 12.4341 100.15 12.361 100.52 12.2721C100.74 12.9161 100.63 13.4796 100.284 14.0849C100.469 14.1569 100.614 14.2136 100.834 14.2986C100.99 14.4665 100.665 14.4909 100.61 14.7383C100.828 15.0713 101.093 15.4768 101.42 15.9782C103.656 13.6317 106.508 12.0589 108.251 9.37891H109.611C109.506 9.82615 109.415 10.2167 109.29 10.7509C109.667 10.6178 109.958 10.5154 110.357 10.3748V11.4263C110.574 11.4834 110.696 11.5152 110.819 11.5475C110.853 11.6236 110.907 11.6976 110.916 11.7766C110.932 11.9098 110.898 12.0509 110.924 12.1816C111.2 13.5889 110.499 14.7055 109.764 15.76C108.969 16.901 108.045 17.953 107.112 19.1263C107.778 19.9258 108.843 20.3144 109.78 21.0608C109.797 21.1841 109.826 21.3918 109.859 21.6308C110.108 21.9414 110.509 22.242 110.623 22.6277C110.872 23.473 111.49 24.2601 111.07 25.3514C110.968 25.3981 110.742 25.5089 110.511 25.6073C110.28 25.7052 110.045 25.7897 109.784 25.8915C109.425 25.5268 108.614 25.6426 108.723 24.9325C107.896 24.6934 107.168 24.4827 106.462 24.2785C106.301 23.9977 106.154 23.7433 105.988 23.4556H104.492C104.454 23.2941 104.425 23.1718 104.389 23.0207C103.835 22.5949 103.37 23.0963 103.047 23.1827C102.604 23.6956 102.266 24.0882 101.892 24.521C101.784 24.4395 101.698 24.3739 101.549 24.2611C101.389 24.4872 101.217 24.7307 101.007 25.0274C100.979 24.9911 101.047 25.079 101.148 25.2092C100.52 25.3668 100.465 25.9979 100.189 26.5172C99.9716 26.3835 99.8289 26.2955 99.6103 26.1609C99.573 26.3944 99.5368 26.623 99.493 26.8934C99.3996 26.9187 99.2778 26.9515 99.0602 27.0106C99.0021 27.5597 98.924 28.2286 98.1101 28.0462C97.8367 28.4006 97.3786 28.73 97.4099 29.0043C97.5033 29.8287 96.8131 30.2228 96.6247 30.8673C96.5358 31.6818 96.5482 31.6813 96.8011 32.2255C96.2113 32.6956 95.5454 33.0121 94.7806 33.2074C94.6807 33.0812 94.5689 32.941 94.4223 32.7557" fill="#03548A"/>
<path fill-rule="evenodd" clip-rule="evenodd" d="M15.1657 17.4441C14.8283 17.4858 14.625 17.5111 14.3686 17.543C14.5246 17.7159 14.6136 17.8138 14.7557 17.9713C14.4193 18.597 13.7817 18.9721 13.3494 19.5193L13.5611 19.731C13.2167 20.0013 12.8718 20.2716 12.5786 20.5017C12.4166 20.9286 12.7625 21.4101 12.1925 21.6745C12.6974 22.0129 13.1591 22.315 13.6128 22.6281C15.0355 23.611 16.5571 24.4543 17.7299 25.7781C18.4017 26.536 19.0343 27.2685 19.0462 28.3567C19.0482 28.5401 19.2346 28.721 19.3832 28.9898C18.9742 29.2487 18.5911 29.4907 18.111 29.7944C15.4062 28.2096 12.61 26.7974 10.0453 24.7276C9.86141 24.8325 9.45989 24.9209 9.38585 25.1272C9.09216 25.9441 8.51671 26.5176 7.93082 27.1025C7.85926 27.174 7.8861 27.3435 7.86672 27.4687C7.61577 27.4965 7.40258 27.5194 7.07709 27.5552C7.1397 27.7694 7.19288 27.9512 7.2858 28.2698C6.76402 28.7066 6.37443 29.3566 6.16919 30.1636C6.04993 30.6322 5.6007 31.0163 5.19818 31.5823V34.5272C4.94176 34.5436 4.72808 34.557 4.48608 34.5724C4.4339 34.719 4.37824 34.876 4.31165 35.0644H3.37741C3.23132 34.641 3.08174 34.2066 2.90881 33.7062C2.64891 33.8205 2.38951 33.9343 2.08042 34.07C2.01681 33.8732 1.96662 33.7192 1.91643 33.5651C1.8399 33.5333 1.75542 33.4627 1.68635 33.4757C1.11289 33.5845 0.720308 33.0995 0.649743 32.7909C0.362018 31.5346 -0.450966 30.2923 0.329718 28.9436C0.344129 27.6079 1.17351 26.5886 1.64361 25.4268C1.79716 25.0477 2.45709 25.1142 2.2782 24.4593C2.20465 24.1899 2.69363 23.7631 2.93415 23.4127C3.1523 23.0952 3.35754 22.7657 3.60849 22.476C3.90317 22.1356 4.26196 21.8504 4.55416 21.5085C4.79716 21.2232 4.9845 20.8908 5.22253 20.541C3.57569 19.3041 2.56841 17.5469 1.41403 15.9085C1.04381 14.3233 0.404258 12.7838 0.653719 10.9278C1.03487 10.49 1.52236 9.92942 2.04663 9.32764C2.62704 9.4469 3.27952 9.08712 3.80975 9.69189C3.46239 10.16 3.11752 10.6246 2.76917 11.0942C2.86508 11.1956 2.95403 11.291 3.04198 11.3844C3.77745 11.5365 4.04679 10.4661 4.81505 10.7141C4.92934 10.9357 5.04314 11.1578 5.1624 11.3884C4.92586 11.54 4.65503 11.7139 4.37079 11.8958C4.54422 12.0697 4.67193 12.1974 4.79964 12.3251C5.18327 11.9281 5.55597 11.9231 6.00669 12.4663C5.96594 12.7689 6.2005 13.2062 5.74779 13.5585C5.93563 13.649 6.1195 13.7374 6.38238 13.8632C6.16621 14.1539 5.97439 14.4113 5.7781 14.6751C5.96098 14.7402 6.11801 14.7954 6.44648 14.9122C6.14434 14.9937 6.00123 15.0319 5.75077 15.0995C5.77711 15.3197 5.72444 15.6208 5.84966 15.7893C6.36846 16.487 6.94093 17.1444 7.55464 17.8903C7.89256 17.5872 8.15196 17.3616 8.40291 17.1275C9.88576 15.745 11.1266 14.0873 12.9658 13.1083C12.9558 12.599 13.489 12.6347 13.7186 12.3619C13.9785 12.0533 14.2672 11.7691 14.4536 11.5698H15.3645C14.9515 12.1776 14.2479 12.5209 14.4774 13.3965C15.0658 13.0457 15.6418 12.7023 16.3434 12.2844C16.2808 12.6854 16.2321 12.9945 16.1774 13.3458C16.4229 13.4696 16.7877 13.6549 17.1793 13.8527C17.0784 14.0619 16.9939 14.2364 16.8955 14.4406C17.0371 14.4704 17.1604 14.4958 17.2891 14.5226C17.3025 14.5753 17.3542 14.6652 17.3293 14.6985C16.9994 15.1438 16.5576 15.5373 16.3474 16.0308C16.084 16.65 15.5031 16.9287 15.1657 17.4441" fill="#03548A"/>
<path fill-rule="evenodd" clip-rule="evenodd" d="M39.9041 31.2772C40.9839 29.9524 41.8958 28.8512 42.7888 27.7345C43.6346 26.6771 44.3576 25.5351 45.015 24.3648C44.9311 24.261 44.8496 24.1606 44.7099 23.9887C44.9395 23.7283 45.1666 23.4699 45.4076 23.196H46.3006C46.6346 23.53 46.9034 24.0065 47.2855 24.1283C47.7522 24.2764 47.8183 24.6496 48.0066 24.9284C48.6596 25.8939 49.1138 26.8739 48.6119 28.1321C48.3033 28.9058 47.9907 29.68 47.6697 30.4503C47.5733 30.6824 47.5027 30.9254 47.38 31.2787L46.6957 31.9635V32.8162C46.16 33.7867 45.7142 34.5957 45.2262 35.4803C45.9006 35.9384 46.5217 36.3802 47.1618 36.7927C48.43 37.6101 49.479 38.6254 50.1056 40.0202C50.2403 40.3204 50.3019 40.6538 50.4421 41.1224C50.3939 41.2293 50.2761 41.4922 50.1459 41.7804C49.8666 41.9106 49.565 42.0512 49.3294 42.1605C48.6924 41.9404 48.1288 41.7759 47.5902 41.5518C47.051 41.3282 46.5367 41.0449 46.0114 40.788C45.9219 40.0034 45.0275 40.3204 44.6592 39.7867C44.3571 39.3484 43.6852 39.166 43.0959 38.8226C41.3298 40.6245 39.7744 42.5929 38.3472 44.6661C38.2374 44.8251 38.2726 45.084 38.2408 45.2962C37.6187 45.7752 37.0035 45.7022 36.3863 45.2669V44.836C35.5842 44.3555 34.8324 43.9053 34.0099 43.4123C33.6164 42.9512 33.8166 42.2266 33.5602 41.6661C33.2745 41.0419 33.516 40.4377 33.4077 39.9785C34.3041 37.9803 35.3651 36.2301 36.8842 34.7199V33.7976C36.0061 33.1859 35.4605 32.2323 34.9079 31.2971C34.7225 30.9835 34.6937 30.574 34.6087 30.2053C34.4363 29.4549 34.1784 28.7289 34.2013 27.9318C34.2455 26.4072 35.1111 25.3194 36.5667 24.7723C37.4845 24.4274 38.376 24.6009 39.3629 24.504C38.8317 25.6037 37.559 25.5098 36.8151 26.4316C38.0982 26.3749 38.8799 25.1664 40.1883 25.397C40.1376 25.7051 40.0869 26.0137 40.0333 26.3387C40.2733 26.4231 40.6256 26.5479 40.9645 26.6681V28.389C40.6157 28.9978 40.2325 29.605 39.92 30.247C39.8191 30.4533 39.9041 30.7504 39.9041 31.2772" fill="#03548A"/>
<path fill-rule="evenodd" clip-rule="evenodd" d="M62.8056 14.4071C62.2982 15.0432 61.8351 15.6246 61.3227 16.2666V18.0054C60.8462 18.1967 60.3825 18.3836 59.8588 18.5938C59.2396 17.9925 58.9886 17.1949 58.7904 16.4411C58.525 16.54 58.2905 16.6269 57.9421 16.7561C57.6688 16.363 57.3363 16.0157 57.1569 15.6022C56.6203 14.3634 56.663 13.0405 56.7216 11.7957C56.9467 11.2829 57.1475 10.8247 57.398 10.2527C57.0233 10.1966 56.6913 10.2488 56.5537 10.1096C55.6781 9.22459 54.8139 8.32414 54.0114 7.37351C53.579 6.86067 53.1228 6.28075 52.9504 5.65611C52.6989 4.74175 52.693 3.7598 52.5742 2.7386C52.9867 2.15868 53.3221 1.47937 53.8459 1.01126C54.3274 0.580916 55.0122 0.378167 55.7546 0C55.9275 0.187344 56.096 0.368725 56.2664 0.553088C56.1671 0.648499 54.8437 1.92314 54.8437 1.92314C54.9391 2.01904 55.035 2.11495 55.1762 2.25558C55.7819 1.81381 56.3852 1.23588 57.3701 1.61702C57.1256 1.95196 56.9353 2.21235 56.6009 2.67003C57.0531 2.49362 57.3055 2.39572 57.6554 2.25956C57.8204 2.50803 57.9973 2.77488 58.2119 3.09888C57.8382 3.47307 57.5446 3.76676 57.1902 4.12157C57.4188 4.16828 57.5421 4.19412 57.7468 4.23636C57.4397 4.75417 57.6131 5.47025 56.8215 5.73462C57.6072 6.70116 58.4818 7.23387 59.3693 7.82323C62.3569 5.34602 65.2793 2.92247 68.2411 0.466621H69.5485C69.3194 0.925788 69.1375 1.29203 68.9532 1.66274C69.3457 1.96239 69.6563 1.62597 70.0042 1.4749C71.009 2.41262 71.2455 3.58339 71.0388 4.88934C70.6214 5.42503 70.1925 5.97514 69.7547 6.53667C69.7831 6.56251 69.8482 6.62314 70.027 6.78862C69.786 6.81943 69.554 6.84924 69.3214 6.87906C69.4123 6.97646 69.5033 7.07436 69.5942 7.17225H69.0898C68.1611 8.91997 66.5912 10.1091 65.4418 11.7013C67.0171 12.5789 68.7797 13.2319 70.4465 14.2252C70.4971 14.4757 70.5543 14.7599 70.6214 15.0959C70.8261 14.8792 70.9797 14.7167 71.1278 14.5602C71.7986 14.6506 71.7847 15.4219 72.3477 15.7041C72.8407 15.9516 73.1284 16.6085 73.512 17.0906V18.6996C73.3818 18.8298 73.2541 18.9575 73.0752 19.1364C71.6798 18.9874 70.526 18.1923 69.2553 17.5492C69.2295 17.5726 69.135 17.6581 69.0938 17.6953C68.2048 17.4757 67.6746 16.5216 66.6489 16.6642C66.1708 16.0495 65.3847 16.0018 64.7715 15.6395C64.1518 15.2738 63.5515 14.8767 62.8056 14.4071" fill="#03548A"/>
<path fill-rule="evenodd" clip-rule="evenodd" d="M102.272 36.0592C102.552 36.2173 102.772 36.3415 103.095 36.5239C103.021 36.9651 102.947 37.4099 102.856 37.9575C103.083 38.3521 103.273 38.9529 103.963 39.1954C104.271 38.765 104.461 38.2726 105.054 38.0321C105.471 37.8626 105.716 37.2688 106.036 36.8628C106.387 36.416 106.875 36.1109 107.152 35.5668C107.385 35.1091 107.884 34.796 108.2 34.3697C108.525 33.9289 108.772 33.4295 109.053 32.9564H110.58C110.661 33.3847 110.793 33.8081 110.289 34.2504C110.724 34.2703 111.061 34.2857 111.369 34.2996C111.507 34.9317 111.631 35.5042 111.753 36.0637C111.533 36.1497 111.378 36.2103 111.195 36.2819C111.214 36.4061 111.211 36.5358 111.255 36.6461C111.633 37.5789 111.571 37.8989 110.845 38.6189C110.542 38.9191 110.415 39.3862 110.539 39.6779C110.732 40.1361 110.15 39.9597 110.425 40.3826C110.134 40.1425 110.043 40.067 109.885 39.9368V40.6917C109.598 40.7468 109.351 40.794 109.057 40.8502V41.5911C108.71 41.9524 108.465 42.2078 108.262 42.4205C108.734 42.8831 109.17 43.3095 109.532 43.6648V44.6855C109.824 44.9777 110.13 45.2833 110.443 45.5974C110.346 45.7703 110.284 45.8792 110.175 46.0705C110.317 46.3587 110.491 46.7135 110.716 47.1712C110.455 47.7168 110.166 48.3196 109.892 48.8921H108.763C107.447 48.1392 106.171 47.4082 104.899 46.6797C104.673 47.0281 104.494 47.3054 104.342 47.5404C104.107 47.4261 103.926 47.3377 103.615 47.1861V48.4473C103.203 48.2938 102.915 48.1864 102.375 47.9857C102.598 48.2898 102.659 48.3728 102.776 48.5328C102.527 48.7663 102.265 49.0133 101.849 49.4039C101.765 48.8995 101.713 48.5835 101.656 48.2356C101.846 48.17 102 48.1168 102.196 48.0488C102.215 47.9469 102.239 47.8237 102.267 47.6731C102.096 47.6135 101.938 47.5598 101.78 47.5051C101.838 47.2656 101.897 47.0241 101.998 46.6146C101.747 46.8447 101.65 46.9336 101.592 46.9863C101.015 46.878 100.47 46.7761 99.8947 46.6688C99.8063 46.4988 99.6915 46.2772 99.5558 46.0178C99.6582 45.6212 99.7745 45.171 99.8922 44.7119C100.157 44.7556 100.494 44.8117 100.83 44.8674C100.844 44.8177 100.857 44.768 100.872 44.7178C100.52 44.5414 100.17 44.365 99.8599 44.2095C100.041 43.8348 100.222 43.4616 100.41 43.073C99.5181 41.5588 98.5465 40.1296 97.9974 38.4848C97.668 37.3518 98.0581 36.2322 98.2211 35.117C98.3478 34.2499 99.0648 33.6367 99.8495 33.1979C99.9613 33.1353 100.067 33.0632 100.246 32.9519H101.594C101.806 33.1646 101.998 33.3564 102.132 33.4911C101.867 33.7564 101.597 34.0258 101.437 34.1853V35.0192C101.736 34.9416 102.023 34.8676 102.351 34.7826C102.523 34.9431 102.68 35.0907 102.899 35.2949C102.669 35.5752 102.48 35.8063 102.272 36.0592" fill="#03548A"/>
<path fill-rule="evenodd" clip-rule="evenodd" d="M20.7684 49.9784C20.9214 50.1315 21.0491 50.2592 21.23 50.4401C20.3996 51.1502 19.5737 51.8558 18.7483 52.562C18.7667 52.6097 18.7856 52.6574 18.8045 52.7046C18.9799 52.6534 19.1941 52.6489 19.3218 52.5416C19.5603 52.3418 19.7482 52.0829 20.0756 52.0183C20.6546 51.6918 21.2335 51.3648 21.7965 51.0468C22.2875 51.4439 21.9292 51.7574 21.718 52.239C22.0395 52.1172 22.2477 52.0382 22.4719 51.9527C22.5698 52.0506 22.6975 52.1783 22.8257 52.3065C22.8262 52.8477 22.8262 53.3894 22.8262 53.9375C22.6682 54.0915 22.5071 54.2495 22.3367 54.4155C22.3615 54.4781 22.368 54.5646 22.4142 54.5984C22.7223 54.8295 23.0299 55.0635 23.3549 55.2693C23.7043 55.4899 24.1932 55.5535 24.2067 56.1185C24.2082 56.1836 24.3185 56.2572 24.391 56.3083C24.6698 56.5046 24.9963 56.6532 25.2234 56.8962C25.45 57.1382 25.5787 57.4717 25.8078 57.8633C25.8078 58.0923 25.8078 58.4536 25.8073 58.8144C25.5832 59.038 25.36 59.2616 25.1732 59.4485C23.4642 58.8377 21.7752 58.2345 20.0866 57.6312C19.7114 57.8315 19.3074 58.0466 18.9029 58.2618C18.886 58.2345 18.8691 58.2071 18.8522 58.1798C18.5009 58.5306 18.1495 58.882 17.7008 59.3307C17.6943 59.4375 17.6814 59.6472 17.665 59.9146C16.9534 60.5989 16.2085 61.316 15.6077 61.8944C15.3061 62.8301 15.4591 63.7912 14.2123 63.9885C13.9544 63.576 13.0281 63.5099 13.2393 62.5484C12.9829 62.4743 12.6679 62.3824 12.3245 62.283C12.2469 62.3352 12.1073 62.4286 11.9985 62.5011C11.6496 62.1324 11.345 61.8094 10.9022 61.3408C10.8034 60.4955 10.6766 59.4137 10.5435 58.2752C11.669 57.0582 12.7782 55.8591 13.9549 54.5865C13.4947 54.2982 13.0202 54.0572 12.6137 53.7317C12.1933 53.3948 11.839 52.9754 11.4449 52.5813C11.5537 52.23 11.6645 51.8717 11.7838 51.4846C11.5632 51.4091 11.4056 51.3549 11.2098 51.2873V50.372C11.2854 50.2959 11.3813 50.2005 11.4921 50.0892C11.8797 50.0122 12.2867 49.9312 12.7896 49.8308C14.1283 50.5822 15.5923 51.4036 17.0165 52.2022C18.4447 51.659 19.3705 50.4063 20.7684 49.9784" fill="#03548A"/>
</svg>
