<?xml version="1.0" encoding="iso-8859-1"?>
<!-- Generator: Adobe Illustrator 21.0.2, SVG Export Plug-In . SVG Version: 6.00 Build 0)  -->
<svg version="1.1" id="Layer_1" xmlns="http://www.w3.org/2000/svg" xmlns:xlink="http://www.w3.org/1999/xlink" x="0px" y="0px"
	 viewBox="0 0 845.206 241.62" style="enable-background:new 0 0 845.206 241.62;" xml:space="preserve">
<g>
	<g>
		<g>
			<path style="fill:#C2191B;" d="M10.791,124.7c-3.686-2.105-7.257-4.139-10.791-6.154v25.373l11.995-14.825
				C12.971,127.794,11.882,125.496,10.791,124.7z"/>
		</g>
		<g>
			<path style="fill:#C2191B;" d="M0,0v3.869l16.083,18.451c1.768,1.803,4.099,1.471,5.352,0.426l9.784-7.671l2.194,31.057
				c0.052,4.748,4.747,8.233,8.499,0.134L63.487,2.647l5.593,11.949c1.487,3.468,3.919,5.668,7.405,4.032l31.448-15.481
				l-5.685,34.595c-0.567,3.801,2.243,5.494,5.992,5.914l13.056,1.885L85.816,78.839c-6.669,5.94-1.98,9.417,2.588,8.099
				l30.354-6.909l-4.498,11.599c-0.648,1.488-0.295,3.818,1.951,4.988l23.922,10.769l-20.593,16.459
				c-4.539,3.697-6.849,4.921-4.51,8.519l4.681,9.023l-57.677,3.696c-2.252,0.101-4.466,1.615-5.335,3.822l-1.759,4.764h97.866V0H0z
				"/>
		</g>
		<g>
			<path style="fill:#C2191B;" d="M19.75,131.352c-1.074-0.81-3.48-0.978-4.432,0.318L0,153.39v0.276h43.326
				C35.482,146.244,27.927,139.095,19.75,131.352z"/>
		</g>
	</g>
	<g>
		<path style="fill:#696969;" d="M274.839,115.248c-10.446,10.446-24.325,15.669-38.055,15.669
			c-35.218,0-53.573-24.623-53.723-52.827c-0.299-27.906,17.907-54.021,53.723-54.021c13.729,0,27.608,5.223,38.055,15.669
			l-5.521,4.775c-8.954-8.954-20.743-13.281-32.533-13.281c-30.442,0-46.112,21.489-45.963,46.56
			c0.299,24.474,15.818,45.665,45.963,45.665c11.79,0,23.729-4.477,32.682-13.281L274.839,115.248z"/>
		<path style="fill:#696969;" d="M372.14,129.724l-11.491-25.668H298.27l-11.341,25.668h-8.656l46.859-104.462h8.805l46.858,104.462
			H372.14z M357.515,96.595l-28.056-63.572l-28.056,63.572H357.515z"/>
		<path style="fill:#696969;" d="M397.806,25.262l70.288,86.405V25.262h7.909v104.462h-3.134l-70.437-86.256v86.256h-8.059V25.262
			H397.806z"/>
		<path style="fill:#696969;" d="M582.408,129.724l-11.491-25.668h-62.379l-11.341,25.668h-8.655L535.4,25.262h8.805l46.858,104.462
			H582.408z M567.783,96.595l-28.056-63.572l-28.056,63.572H567.783z"/>
		<path style="fill:#696969;" d="M695.228,76.299c0.597,26.563-16.415,53.425-52.977,53.425c-11.79,0-23.579,0-35.368,0V25.262
			c11.789,0,23.578,0,35.368,0C677.618,25.262,694.631,50.631,695.228,76.299z M614.941,32.873v89.091h27.31
			c31.039,0,45.365-23.28,44.918-45.665c-0.447-21.788-14.773-43.426-44.918-43.426H614.941z"/>
		<path style="fill:#C2191B;" d="M715.227,129.724V25.262h7.909v104.462H715.227z"/>
		<path style="fill:#C2191B;" d="M837.297,36.902l-39.993,61.185h-2.687l-40.292-61.185v92.821h-8.059V25.262
			c3.88,0,5.671,0,9.551,0l39.994,60.887l39.546-60.887h9.849v104.462h-7.909V36.902z"/>
	</g>
</g>
<g>
	<path style="fill:#696969;" d="M34.75,193.898c-1.27-1.705-2.837-2.984-4.7-3.838c-1.865-0.853-3.809-1.279-5.832-1.279
		c-2.341,0-4.492,0.477-6.456,1.429c-1.964,0.951-3.659,2.231-5.088,3.838c-1.428,1.606-2.539,3.472-3.332,5.593
		c-0.794,2.123-1.189,4.335-1.189,6.635c0,2.46,0.396,4.751,1.189,6.873c0.793,2.122,1.895,3.967,3.303,5.533
		c1.407,1.568,3.094,2.808,5.058,3.72c1.964,0.913,4.136,1.368,6.516,1.368c2.578,0,4.88-0.506,6.902-1.518
		c2.023-1.012,3.788-2.469,5.296-4.373l3.749,3.153c-1.904,2.539-4.195,4.403-6.873,5.594c-2.678,1.189-5.703,1.785-9.074,1.785
		c-3.015,0-5.831-0.557-8.449-1.666c-2.618-1.11-4.89-2.648-6.813-4.612c-1.925-1.963-3.432-4.293-4.522-6.991
		c-1.091-2.697-1.636-5.653-1.636-8.866c0-3.094,0.525-5.989,1.576-8.688c1.051-2.697,2.529-5.037,4.434-7.021
		c1.904-1.983,4.165-3.55,6.783-4.7s5.494-1.726,8.628-1.726c2.856,0,5.603,0.516,8.241,1.547c2.638,1.032,4.85,2.718,6.635,5.058
		L34.75,193.898z"/>
	<path style="fill:#696969;" d="M45.937,203.062c1.429-1.468,3.124-2.549,5.088-3.243c1.964-0.693,3.957-1.041,5.98-1.041
		c4.125,0,7.101,0.973,8.925,2.915c1.824,1.944,2.737,4.9,2.737,8.866v11.961c0,0.794,0.039,1.616,0.119,2.469
		c0.079,0.854,0.179,1.637,0.298,2.351h-4.463c-0.159-0.634-0.248-1.339-0.268-2.112c-0.021-0.773-0.03-1.458-0.03-2.053h-0.119
		c-0.912,1.428-2.133,2.599-3.659,3.511c-1.527,0.912-3.362,1.368-5.504,1.368c-1.428,0-2.767-0.179-4.017-0.535
		c-1.25-0.357-2.341-0.883-3.272-1.577c-0.933-0.693-1.677-1.557-2.231-2.588c-0.556-1.031-0.833-2.222-0.833-3.57
		c0-2.301,0.595-4.106,1.785-5.415c1.189-1.31,2.667-2.281,4.433-2.916c1.765-0.634,3.669-1.031,5.713-1.189
		c2.042-0.158,3.917-0.238,5.623-0.238h1.785v-0.833c0-2.023-0.605-3.55-1.815-4.582c-1.21-1.031-2.906-1.547-5.087-1.547
		c-1.509,0-2.986,0.248-4.434,0.743c-1.448,0.497-2.728,1.261-3.838,2.291L45.937,203.062z M59.385,213.95
		c-2.976,0-5.336,0.417-7.081,1.25c-1.746,0.833-2.618,2.201-2.618,4.105c0,1.746,0.585,2.985,1.756,3.719
		c1.169,0.735,2.627,1.102,4.373,1.102c1.349,0,2.529-0.229,3.54-0.685c1.012-0.456,1.854-1.061,2.529-1.814
		c0.674-0.754,1.19-1.637,1.547-2.648c0.357-1.012,0.556-2.092,0.596-3.243v-1.785H59.385z"/>
	<path style="fill:#696969;" d="M77.176,206.096c0-1.269-0.04-2.459-0.119-3.57c-0.08-1.109-0.119-2.121-0.119-3.034h4.403
		c0,0.754,0.02,1.508,0.06,2.261c0.039,0.754,0.06,1.528,0.06,2.321h0.119c0.317-0.675,0.764-1.329,1.339-1.964
		c0.574-0.634,1.259-1.199,2.053-1.696c0.793-0.495,1.686-0.893,2.678-1.189c0.991-0.298,2.062-0.446,3.213-0.446
		c1.824,0,3.401,0.277,4.73,0.833s2.43,1.329,3.303,2.32c0.872,0.992,1.518,2.192,1.934,3.6c0.417,1.409,0.625,2.946,0.625,4.612
		v17.196h-4.642v-16.721c0-2.34-0.516-4.185-1.547-5.533c-1.032-1.349-2.639-2.023-4.819-2.023c-1.508,0-2.808,0.258-3.897,0.773
		c-1.092,0.516-1.984,1.25-2.678,2.201c-0.694,0.952-1.211,2.083-1.547,3.393c-0.338,1.309-0.506,2.757-0.506,4.344v13.566h-4.642
		V206.096z"/>
	<path style="fill:#696969;" d="M109.902,203.062c1.429-1.468,3.124-2.549,5.088-3.243c1.964-0.693,3.957-1.041,5.98-1.041
		c4.125,0,7.101,0.973,8.925,2.915c1.824,1.944,2.737,4.9,2.737,8.866v11.961c0,0.794,0.039,1.616,0.119,2.469
		c0.079,0.854,0.179,1.637,0.298,2.351h-4.463c-0.159-0.634-0.248-1.339-0.268-2.112c-0.021-0.773-0.03-1.458-0.03-2.053h-0.119
		c-0.912,1.428-2.133,2.599-3.659,3.511c-1.527,0.912-3.362,1.368-5.504,1.368c-1.428,0-2.767-0.179-4.017-0.535
		c-1.25-0.357-2.341-0.883-3.272-1.577c-0.933-0.693-1.677-1.557-2.231-2.588c-0.556-1.031-0.833-2.222-0.833-3.57
		c0-2.301,0.595-4.106,1.785-5.415c1.189-1.31,2.667-2.281,4.433-2.916c1.765-0.634,3.669-1.031,5.713-1.189
		c2.042-0.158,3.917-0.238,5.623-0.238h1.785v-0.833c0-2.023-0.605-3.55-1.815-4.582c-1.21-1.031-2.906-1.547-5.087-1.547
		c-1.509,0-2.986,0.248-4.434,0.743c-1.448,0.497-2.728,1.261-3.838,2.291L109.902,203.062z M123.351,213.95
		c-2.976,0-5.336,0.417-7.081,1.25c-1.746,0.833-2.618,2.201-2.618,4.105c0,1.746,0.585,2.985,1.756,3.719
		c1.169,0.735,2.627,1.102,4.373,1.102c1.349,0,2.529-0.229,3.54-0.685c1.012-0.456,1.854-1.061,2.529-1.814
		c0.674-0.754,1.19-1.637,1.547-2.648c0.357-1.012,0.556-2.092,0.596-3.243v-1.785H123.351z"/>
	<path style="fill:#696969;" d="M164.288,222.4h-0.118c-0.873,1.587-2.252,2.926-4.136,4.017c-1.885,1.09-4.076,1.636-6.575,1.636
		c-1.944,0-3.77-0.367-5.475-1.101c-1.706-0.733-3.184-1.756-4.433-3.064c-1.25-1.31-2.231-2.856-2.945-4.642
		c-0.715-1.785-1.071-3.728-1.071-5.831c0-2.103,0.356-4.046,1.071-5.831c0.714-1.785,1.705-3.333,2.975-4.642
		c1.27-1.31,2.806-2.33,4.611-3.064c1.805-0.733,3.799-1.101,5.98-1.101c2.023,0,3.877,0.416,5.563,1.249
		c1.686,0.833,3.163,2.004,4.434,3.511h0.118v-21.183h4.642v44.984h-4.642V222.4z M164.288,213.415c0-1.467-0.229-2.826-0.684-4.076
		c-0.457-1.249-1.121-2.34-1.994-3.272c-0.872-0.932-1.914-1.666-3.123-2.202c-1.211-0.535-2.569-0.803-4.076-0.803
		c-1.508,0-2.866,0.268-4.076,0.803c-1.211,0.536-2.252,1.271-3.124,2.202c-0.873,0.933-1.538,2.023-1.993,3.272
		c-0.457,1.25-0.685,2.609-0.685,4.076c0,1.468,0.228,2.826,0.685,4.076c0.455,1.249,1.12,2.341,1.993,3.272
		c0.872,0.933,1.913,1.666,3.124,2.202c1.21,0.535,2.568,0.803,4.076,0.803c1.507,0,2.865-0.268,4.076-0.803
		c1.209-0.536,2.251-1.27,3.123-2.202c0.873-0.932,1.537-2.023,1.994-3.272C164.06,216.241,164.288,214.883,164.288,213.415z"/>
	<path style="fill:#696969;" d="M176.902,188.602c0-0.912,0.327-1.705,0.981-2.38c0.654-0.674,1.458-1.012,2.41-1.012
		s1.755,0.338,2.41,1.012c0.654,0.675,0.981,1.468,0.981,2.38c0,0.992-0.318,1.806-0.952,2.44c-0.635,0.635-1.448,0.952-2.439,0.952
		c-0.992,0-1.806-0.317-2.439-0.952C177.219,190.407,176.902,189.594,176.902,188.602z M177.973,199.491h4.642v27.848h-4.642
		V199.491z"/>
	<path style="fill:#696969;" d="M191.479,203.062c1.429-1.468,3.124-2.549,5.088-3.243c1.964-0.693,3.957-1.041,5.98-1.041
		c4.125,0,7.101,0.973,8.925,2.915c1.824,1.944,2.737,4.9,2.737,8.866v11.961c0,0.794,0.039,1.616,0.119,2.469
		c0.079,0.854,0.179,1.637,0.298,2.351h-4.463c-0.159-0.634-0.248-1.339-0.268-2.112c-0.021-0.773-0.03-1.458-0.03-2.053h-0.119
		c-0.912,1.428-2.133,2.599-3.659,3.511c-1.527,0.912-3.362,1.368-5.504,1.368c-1.428,0-2.767-0.179-4.017-0.535
		c-1.25-0.357-2.341-0.883-3.272-1.577c-0.933-0.693-1.677-1.557-2.231-2.588c-0.556-1.031-0.833-2.222-0.833-3.57
		c0-2.301,0.595-4.106,1.785-5.415c1.189-1.31,2.667-2.281,4.433-2.916c1.765-0.634,3.669-1.031,5.713-1.189
		c2.042-0.158,3.917-0.238,5.623-0.238h1.785v-0.833c0-2.023-0.605-3.55-1.815-4.582c-1.21-1.031-2.906-1.547-5.087-1.547
		c-1.509,0-2.986,0.248-4.434,0.743c-1.448,0.497-2.728,1.261-3.838,2.291L191.479,203.062z M204.928,213.95
		c-2.976,0-5.336,0.417-7.081,1.25c-1.746,0.833-2.618,2.201-2.618,4.105c0,1.746,0.585,2.985,1.756,3.719
		c1.169,0.735,2.627,1.102,4.373,1.102c1.349,0,2.529-0.229,3.54-0.685c1.012-0.456,1.854-1.061,2.529-1.814
		c0.674-0.754,1.19-1.637,1.547-2.648c0.357-1.012,0.556-2.092,0.596-3.243v-1.785H204.928z"/>
	<path style="fill:#696969;" d="M222.719,206.096c0-1.269-0.04-2.459-0.119-3.57c-0.08-1.109-0.119-2.121-0.119-3.034h4.403
		c0,0.754,0.02,1.508,0.06,2.261c0.039,0.754,0.06,1.528,0.06,2.321h0.119c0.317-0.675,0.764-1.329,1.339-1.964
		c0.574-0.634,1.259-1.199,2.053-1.696c0.793-0.495,1.686-0.893,2.678-1.189c0.991-0.298,2.062-0.446,3.213-0.446
		c1.824,0,3.401,0.277,4.73,0.833s2.43,1.329,3.303,2.32c0.872,0.992,1.518,2.192,1.934,3.6c0.417,1.409,0.625,2.946,0.625,4.612
		v17.196h-4.642v-16.721c0-2.34-0.516-4.185-1.547-5.533c-1.032-1.349-2.639-2.023-4.819-2.023c-1.508,0-2.808,0.258-3.897,0.773
		c-1.092,0.516-1.984,1.25-2.678,2.201c-0.694,0.952-1.211,2.083-1.547,3.393c-0.338,1.309-0.506,2.757-0.506,4.344v13.566h-4.642
		V206.096z"/>
	<path style="fill:#696969;" d="M273.178,185.21h4.998v42.129h-4.998V185.21z"/>
	<path style="fill:#696969;" d="M287.815,206.096c0-1.269-0.04-2.459-0.119-3.57c-0.08-1.109-0.119-2.121-0.119-3.034h4.403
		c0,0.754,0.02,1.508,0.06,2.261c0.039,0.754,0.06,1.528,0.06,2.321h0.119c0.317-0.675,0.764-1.329,1.339-1.964
		c0.574-0.634,1.259-1.199,2.053-1.696c0.793-0.495,1.686-0.893,2.678-1.189c0.991-0.298,2.062-0.446,3.213-0.446
		c1.508,0,2.768,0.188,3.778,0.565c1.012,0.377,1.854,0.833,2.529,1.368c0.674,0.535,1.199,1.111,1.577,1.726
		c0.376,0.615,0.684,1.16,0.922,1.637c1.031-1.666,2.222-2.965,3.57-3.897c1.349-0.932,3.095-1.398,5.236-1.398
		c1.983,0,3.649,0.268,4.998,0.803c1.349,0.536,2.44,1.31,3.273,2.321c0.833,1.011,1.428,2.241,1.785,3.688
		c0.356,1.449,0.535,3.064,0.535,4.85v16.899h-4.642v-16.661c0-0.952-0.1-1.884-0.297-2.797c-0.199-0.912-0.557-1.726-1.071-2.439
		c-0.517-0.714-1.211-1.288-2.083-1.726c-0.873-0.436-1.983-0.654-3.332-0.654c-0.992,0-1.925,0.199-2.797,0.595
		c-0.873,0.397-1.636,0.952-2.291,1.666c-0.654,0.714-1.17,1.577-1.547,2.589s-0.565,2.133-0.565,3.361v16.066h-4.641V211.57
		c0-3.094-0.417-5.285-1.25-6.575c-0.833-1.288-2.201-1.934-4.105-1.934c-1.508,0-2.808,0.258-3.897,0.773
		c-1.092,0.516-1.984,1.25-2.678,2.201c-0.694,0.952-1.211,2.083-1.547,3.393c-0.338,1.309-0.506,2.757-0.506,4.344v13.566h-4.642
		V206.096z"/>
	<path style="fill:#696969;" d="M338.512,206.096c0-1.269-0.04-2.459-0.119-3.57c-0.08-1.109-0.119-2.121-0.119-3.034h4.403
		c0,0.754,0.02,1.508,0.06,2.261c0.039,0.754,0.06,1.528,0.06,2.321h0.119c0.317-0.675,0.764-1.329,1.339-1.964
		c0.574-0.634,1.259-1.199,2.053-1.696c0.793-0.495,1.686-0.893,2.678-1.189c0.991-0.298,2.062-0.446,3.213-0.446
		c1.508,0,2.768,0.188,3.778,0.565c1.012,0.377,1.854,0.833,2.529,1.368c0.674,0.535,1.199,1.111,1.577,1.726
		c0.376,0.615,0.684,1.16,0.922,1.637c1.031-1.666,2.222-2.965,3.57-3.897c1.349-0.932,3.095-1.398,5.236-1.398
		c1.983,0,3.649,0.268,4.998,0.803c1.349,0.536,2.44,1.31,3.273,2.321c0.833,1.011,1.428,2.241,1.785,3.688
		c0.356,1.449,0.535,3.064,0.535,4.85v16.899h-4.642v-16.661c0-0.952-0.1-1.884-0.297-2.797c-0.199-0.912-0.557-1.726-1.071-2.439
		c-0.517-0.714-1.211-1.288-2.083-1.726c-0.873-0.436-1.983-0.654-3.332-0.654c-0.992,0-1.925,0.199-2.797,0.595
		c-0.873,0.397-1.636,0.952-2.291,1.666c-0.654,0.714-1.17,1.577-1.547,2.589s-0.565,2.133-0.565,3.361v16.066h-4.641V211.57
		c0-3.094-0.417-5.285-1.25-6.575c-0.833-1.288-2.201-1.934-4.105-1.934c-1.508,0-2.808,0.258-3.897,0.773
		c-1.092,0.516-1.984,1.25-2.678,2.201c-0.694,0.952-1.211,2.083-1.547,3.393c-0.338,1.309-0.506,2.757-0.506,4.344v13.566h-4.642
		V206.096z"/>
	<path style="fill:#696969;" d="M388.554,188.602c0-0.912,0.327-1.705,0.981-2.38c0.654-0.674,1.458-1.012,2.41-1.012
		s1.755,0.338,2.41,1.012c0.654,0.675,0.981,1.468,0.981,2.38c0,0.992-0.318,1.806-0.952,2.44c-0.635,0.635-1.448,0.952-2.439,0.952
		c-0.992,0-1.806-0.317-2.439-0.952C388.87,190.407,388.554,189.594,388.554,188.602z M389.624,199.491h4.642v27.848h-4.642V199.491
		z"/>
	<path style="fill:#696969;" d="M431.276,226.089c0,5.078-1.3,8.936-3.897,11.574c-2.599,2.638-6.357,3.957-11.276,3.957
		c-2.736,0-5.206-0.397-7.408-1.19c-2.201-0.794-4.294-2.162-6.277-4.105l3.332-3.809c1.468,1.586,3.024,2.786,4.672,3.6
		c1.646,0.813,3.54,1.221,5.682,1.221c2.062,0,3.779-0.309,5.147-0.923c1.369-0.615,2.449-1.448,3.243-2.499
		c0.793-1.052,1.348-2.252,1.666-3.6c0.317-1.35,0.476-2.758,0.476-4.226v-3.569h-0.118c-1.111,1.784-2.56,3.094-4.344,3.927
		c-1.785,0.833-3.61,1.25-5.475,1.25c-2.183,0-4.186-0.357-6.01-1.071c-1.825-0.714-3.392-1.705-4.701-2.976
		c-1.309-1.269-2.32-2.776-3.034-4.522c-0.715-1.745-1.071-3.648-1.071-5.712c0-2.261,0.356-4.304,1.071-6.129
		c0.714-1.824,1.715-3.362,3.005-4.611c1.288-1.25,2.846-2.211,4.671-2.886c1.824-0.675,3.847-1.012,6.069-1.012
		c0.952,0,1.904,0.109,2.856,0.327c0.951,0.219,1.874,0.556,2.767,1.012s1.695,1.031,2.41,1.726
		c0.714,0.694,1.309,1.497,1.785,2.409h0.118v-4.76h4.642V226.089z M406.88,213.415c0,1.428,0.258,2.747,0.773,3.957
		c0.516,1.211,1.22,2.261,2.112,3.153s1.935,1.598,3.124,2.112c1.19,0.517,2.459,0.774,3.809,0.774c1.586,0,2.994-0.277,4.225-0.834
		c1.229-0.555,2.271-1.299,3.124-2.23c0.853-0.932,1.497-2.003,1.934-3.214c0.437-1.209,0.654-2.488,0.654-3.838
		c0-1.507-0.237-2.886-0.714-4.136c-0.476-1.249-1.15-2.33-2.022-3.242c-0.873-0.912-1.925-1.616-3.154-2.113
		c-1.229-0.495-2.579-0.743-4.046-0.743c-1.468,0-2.807,0.268-4.017,0.803c-1.211,0.536-2.241,1.271-3.095,2.202
		c-0.854,0.933-1.517,2.023-1.993,3.272C407.118,210.589,406.88,211.948,406.88,213.415z"/>
	<path style="fill:#696969;" d="M439.845,206.096c0-1.269-0.04-2.459-0.119-3.57c-0.08-1.109-0.119-2.121-0.119-3.034h4.403
		c0,0.754,0.02,1.508,0.06,2.261c0.039,0.754,0.06,1.528,0.06,2.321h0.119c0.317-0.675,0.764-1.329,1.339-1.964
		c0.574-0.634,1.259-1.199,2.053-1.696c0.793-0.495,1.686-0.893,2.678-1.189c0.991-0.298,2.062-0.446,3.213-0.446
		c0.317,0,0.635,0.021,0.952,0.06c0.317,0.04,0.634,0.119,0.952,0.237l-0.298,4.701c-0.794-0.238-1.627-0.357-2.499-0.357
		c-2.855,0-4.93,0.923-6.218,2.768c-1.29,1.845-1.934,4.373-1.934,7.587v13.566h-4.642V206.096z"/>
	<path style="fill:#696969;" d="M460.432,203.062c1.429-1.468,3.124-2.549,5.088-3.243c1.964-0.693,3.957-1.041,5.98-1.041
		c4.125,0,7.101,0.973,8.925,2.915c1.824,1.944,2.737,4.9,2.737,8.866v11.961c0,0.794,0.039,1.616,0.119,2.469
		c0.079,0.854,0.179,1.637,0.298,2.351h-4.463c-0.159-0.634-0.248-1.339-0.268-2.112c-0.021-0.773-0.03-1.458-0.03-2.053h-0.119
		c-0.912,1.428-2.133,2.599-3.659,3.511c-1.527,0.912-3.362,1.368-5.504,1.368c-1.428,0-2.767-0.179-4.017-0.535
		c-1.25-0.357-2.341-0.883-3.272-1.577c-0.933-0.693-1.677-1.557-2.231-2.588c-0.556-1.031-0.833-2.222-0.833-3.57
		c0-2.301,0.595-4.106,1.785-5.415c1.189-1.31,2.667-2.281,4.433-2.916c1.765-0.634,3.669-1.031,5.713-1.189
		c2.042-0.158,3.917-0.238,5.623-0.238h1.785v-0.833c0-2.023-0.605-3.55-1.815-4.582c-1.21-1.031-2.906-1.547-5.087-1.547
		c-1.509,0-2.986,0.248-4.434,0.743c-1.448,0.497-2.728,1.261-3.838,2.291L460.432,203.062z M473.88,213.95
		c-2.976,0-5.336,0.417-7.081,1.25c-1.746,0.833-2.618,2.201-2.618,4.105c0,1.746,0.585,2.985,1.756,3.719
		c1.169,0.735,2.627,1.102,4.373,1.102c1.349,0,2.529-0.229,3.54-0.685c1.012-0.456,1.854-1.061,2.529-1.814
		c0.674-0.754,1.19-1.637,1.547-2.648c0.357-1.012,0.556-2.092,0.596-3.243v-1.785H473.88z"/>
	<path style="fill:#696969;" d="M506.903,203.418h-8.211v13.924c0,0.913,0.02,1.756,0.06,2.529c0.039,0.773,0.198,1.448,0.476,2.023
		s0.694,1.032,1.25,1.368c0.555,0.338,1.348,0.506,2.38,0.506c0.674,0,1.369-0.079,2.083-0.238c0.714-0.157,1.388-0.396,2.022-0.714
		l0.179,4.225c-0.794,0.357-1.676,0.615-2.647,0.773c-0.973,0.158-1.896,0.238-2.768,0.238c-1.666,0-2.995-0.219-3.986-0.654
		c-0.992-0.437-1.766-1.051-2.32-1.845c-0.557-0.793-0.923-1.774-1.102-2.945c-0.178-1.17-0.268-2.47-0.268-3.897v-15.293h-6.069
		v-3.927h6.069v-7.914h4.642v7.914h8.211V203.418z"/>
	<path style="fill:#696969;" d="M512.021,188.602c0-0.912,0.327-1.705,0.981-2.38c0.654-0.674,1.458-1.012,2.41-1.012
		s1.755,0.338,2.41,1.012c0.654,0.675,0.981,1.468,0.981,2.38c0,0.992-0.318,1.806-0.952,2.44c-0.635,0.635-1.448,0.952-2.439,0.952
		c-0.992,0-1.806-0.317-2.439-0.952C512.337,190.407,512.021,189.594,512.021,188.602z M513.091,199.491h4.642v27.848h-4.642
		V199.491z"/>
	<path style="fill:#696969;" d="M525.349,213.415c0-2.182,0.376-4.165,1.13-5.95s1.785-3.322,3.095-4.611
		c1.309-1.289,2.876-2.291,4.701-3.005c1.824-0.715,3.808-1.071,5.95-1.071c2.142,0,4.125,0.356,5.95,1.071
		c1.824,0.714,3.392,1.716,4.701,3.005c1.309,1.289,2.34,2.826,3.094,4.611c0.753,1.785,1.131,3.769,1.131,5.95
		s-0.378,4.165-1.131,5.95c-0.754,1.785-1.785,3.323-3.094,4.611c-1.31,1.29-2.877,2.291-4.701,3.005
		c-1.825,0.715-3.809,1.071-5.95,1.071c-2.143,0-4.126-0.356-5.95-1.071c-1.825-0.714-3.393-1.715-4.701-3.005
		c-1.31-1.288-2.341-2.826-3.095-4.611S525.349,215.597,525.349,213.415z M530.347,213.415c0,1.468,0.228,2.826,0.685,4.076
		c0.455,1.249,1.12,2.341,1.993,3.272c0.872,0.933,1.913,1.666,3.124,2.202c1.21,0.535,2.568,0.803,4.076,0.803
		c1.507,0,2.865-0.268,4.076-0.803c1.209-0.536,2.251-1.27,3.123-2.202c0.873-0.932,1.537-2.023,1.994-3.272
		c0.455-1.25,0.684-2.608,0.684-4.076c0-1.467-0.229-2.826-0.684-4.076c-0.457-1.249-1.121-2.34-1.994-3.272
		c-0.872-0.932-1.914-1.666-3.123-2.202c-1.211-0.535-2.569-0.803-4.076-0.803c-1.508,0-2.866,0.268-4.076,0.803
		c-1.211,0.536-2.252,1.271-3.124,2.202c-0.873,0.933-1.538,2.023-1.993,3.272C530.574,210.589,530.347,211.948,530.347,213.415z"/>
	<path style="fill:#696969;" d="M562.3,206.096c0-1.269-0.04-2.459-0.119-3.57c-0.08-1.109-0.119-2.121-0.119-3.034h4.403
		c0,0.754,0.02,1.508,0.06,2.261c0.039,0.754,0.06,1.528,0.06,2.321h0.119c0.317-0.675,0.764-1.329,1.339-1.964
		c0.574-0.634,1.259-1.199,2.053-1.696c0.793-0.495,1.686-0.893,2.678-1.189c0.991-0.298,2.062-0.446,3.213-0.446
		c1.824,0,3.401,0.277,4.73,0.833s2.43,1.329,3.303,2.32c0.872,0.992,1.518,2.192,1.934,3.6c0.417,1.409,0.625,2.946,0.625,4.612
		v17.196h-4.642v-16.721c0-2.34-0.516-4.185-1.547-5.533c-1.032-1.349-2.639-2.023-4.819-2.023c-1.508,0-2.808,0.258-3.897,0.773
		c-1.092,0.516-1.984,1.25-2.678,2.201c-0.694,0.952-1.211,2.083-1.547,3.393c-0.338,1.309-0.506,2.757-0.506,4.344v13.566H562.3
		V206.096z"/>
	<path style="fill:#696969;" d="M612.759,185.21h4.998v37.487h19.279v4.642h-24.277V185.21z"/>
	<path style="fill:#696969;" d="M641.32,203.062c1.429-1.468,3.124-2.549,5.088-3.243c1.964-0.693,3.957-1.041,5.98-1.041
		c4.125,0,7.101,0.973,8.925,2.915c1.824,1.944,2.737,4.9,2.737,8.866v11.961c0,0.794,0.039,1.616,0.119,2.469
		c0.079,0.854,0.179,1.637,0.298,2.351h-4.463c-0.159-0.634-0.248-1.339-0.268-2.112c-0.021-0.773-0.03-1.458-0.03-2.053h-0.119
		c-0.912,1.428-2.133,2.599-3.659,3.511c-1.527,0.912-3.362,1.368-5.504,1.368c-1.428,0-2.767-0.179-4.017-0.535
		c-1.25-0.357-2.341-0.883-3.272-1.577c-0.933-0.693-1.677-1.557-2.231-2.588c-0.556-1.031-0.833-2.222-0.833-3.57
		c0-2.301,0.595-4.106,1.785-5.415c1.189-1.31,2.667-2.281,4.433-2.916c1.765-0.634,3.669-1.031,5.713-1.189
		c2.042-0.158,3.917-0.238,5.623-0.238h1.785v-0.833c0-2.023-0.605-3.55-1.815-4.582c-1.21-1.031-2.906-1.547-5.087-1.547
		c-1.509,0-2.986,0.248-4.434,0.743c-1.448,0.497-2.728,1.261-3.838,2.291L641.32,203.062z M654.769,213.95
		c-2.976,0-5.336,0.417-7.081,1.25c-1.746,0.833-2.618,2.201-2.618,4.105c0,1.746,0.585,2.985,1.756,3.719
		c1.169,0.735,2.627,1.102,4.373,1.102c1.349,0,2.529-0.229,3.54-0.685c1.012-0.456,1.854-1.061,2.529-1.814
		c0.674-0.754,1.19-1.637,1.547-2.648c0.357-1.012,0.556-2.092,0.596-3.243v-1.785H654.769z"/>
	<path style="fill:#696969;" d="M702.431,227.339h-4.582l-7.914-21.421h-0.119l-7.021,21.421h-4.76l-9.045-27.848h5.117
		l6.367,21.421h0.119l7.199-21.421h4.88l7.319,21.421h0.118l6.308-21.421h4.998L702.431,227.339z"/>
	<path style="fill:#696969;" d="M734.026,185.21h26.122v4.642h-21.124v13.924h19.637v4.642h-19.637v18.922h-4.998V185.21z"/>
	<path style="fill:#696969;" d="M765.623,188.602c0-0.912,0.327-1.705,0.981-2.38c0.654-0.674,1.458-1.012,2.41-1.012
		s1.755,0.338,2.41,1.012c0.654,0.675,0.981,1.468,0.981,2.38c0,0.992-0.318,1.806-0.952,2.44c-0.635,0.635-1.448,0.952-2.439,0.952
		c-0.992,0-1.806-0.317-2.439-0.952C765.939,190.407,765.623,189.594,765.623,188.602z M766.693,199.491h4.642v27.848h-4.642
		V199.491z"/>
	<path style="fill:#696969;" d="M780.558,206.096c0-1.269-0.04-2.459-0.119-3.57c-0.08-1.109-0.119-2.121-0.119-3.034h4.403
		c0,0.754,0.02,1.508,0.06,2.261c0.039,0.754,0.06,1.528,0.06,2.321h0.119c0.317-0.675,0.764-1.329,1.339-1.964
		c0.574-0.634,1.259-1.199,2.053-1.696c0.793-0.495,1.686-0.893,2.678-1.189c0.991-0.298,2.062-0.446,3.213-0.446
		c0.317,0,0.635,0.021,0.952,0.06c0.317,0.04,0.634,0.119,0.952,0.237l-0.298,4.701c-0.794-0.238-1.627-0.357-2.499-0.357
		c-2.855,0-4.93,0.923-6.218,2.768c-1.29,1.845-1.934,4.373-1.934,7.587v13.566h-4.642V206.096z"/>
	<path style="fill:#696969;" d="M801.502,206.096c0-1.269-0.04-2.459-0.119-3.57c-0.08-1.109-0.119-2.121-0.119-3.034h4.403
		c0,0.754,0.02,1.508,0.06,2.261c0.039,0.754,0.06,1.528,0.06,2.321h0.119c0.317-0.675,0.764-1.329,1.339-1.964
		c0.574-0.634,1.259-1.199,2.053-1.696c0.793-0.495,1.686-0.893,2.678-1.189c0.991-0.298,2.062-0.446,3.213-0.446
		c1.508,0,2.768,0.188,3.778,0.565c1.012,0.377,1.854,0.833,2.529,1.368c0.674,0.535,1.199,1.111,1.577,1.726
		c0.376,0.615,0.684,1.16,0.922,1.637c1.031-1.666,2.222-2.965,3.57-3.897c1.349-0.932,3.095-1.398,5.236-1.398
		c1.983,0,3.649,0.268,4.998,0.803c1.349,0.536,2.44,1.31,3.273,2.321c0.833,1.011,1.428,2.241,1.785,3.688
		c0.356,1.449,0.535,3.064,0.535,4.85v16.899h-4.642v-16.661c0-0.952-0.1-1.884-0.297-2.797c-0.199-0.912-0.557-1.726-1.071-2.439
		c-0.517-0.714-1.211-1.288-2.083-1.726c-0.873-0.436-1.983-0.654-3.332-0.654c-0.992,0-1.925,0.199-2.797,0.595
		c-0.873,0.397-1.636,0.952-2.291,1.666c-0.654,0.714-1.17,1.577-1.547,2.589s-0.565,2.133-0.565,3.361v16.066h-4.641V211.57
		c0-3.094-0.417-5.285-1.25-6.575c-0.833-1.288-2.201-1.934-4.105-1.934c-1.508,0-2.808,0.258-3.897,0.773
		c-1.092,0.516-1.984,1.25-2.678,2.201c-0.694,0.952-1.211,2.083-1.547,3.393c-0.338,1.309-0.506,2.757-0.506,4.344v13.566h-4.642
		V206.096z"/>
</g>
</svg>
