<svg id="Layer_1" data-name="Layer 1" xmlns="http://www.w3.org/2000/svg" viewBox="0 0 260 109.85"><defs><style>.cls-1{fill:#665c55;}.cls-2{fill:#006584;}.cls-3{fill:#34b3c8;}</style></defs><title>Icons</title><path class="cls-1" d="M26,102.4l-1.9,4H28l-1.9-4Zm.45-1.1,3.84,7.86a.57.57,0,0,1,.07.22.46.46,0,0,1-.5.46c-.24,0-.34-.12-.46-.34l-1.1-2.24H23.75l-1.1,2.24c-.12.22-.22.34-.46.34a.46.46,0,0,1-.5-.46.56.56,0,0,1,.07-.22l3.84-7.86a.49.49,0,0,1,.89,0Z"/><path class="cls-1" d="M45.54,102.31a.51.51,0,0,1,.17.38.46.46,0,0,1-.46.45.63.63,0,0,1-.46-.22,3.53,3.53,0,0,0-2.57-1.08,3.6,3.6,0,1,0,0,7.2,3.53,3.53,0,0,0,2.57-1.08.63.63,0,0,1,.46-.22.46.46,0,0,1,.46.45.51.51,0,0,1-.17.38,4.64,4.64,0,0,1-3.41,1.37,4.49,4.49,0,1,1,0-9,4.64,4.64,0,0,1,3.41,1.37Z"/><path class="cls-1" d="M48.82,108.82h5.12a.45.45,0,0,1,0,.89H48.31a.51.51,0,0,1-.51-.51v-7.54a.5.5,0,0,1,.51-.51h5.45a.45.45,0,0,1,0,.89H48.82v2.74h2.9a.45.45,0,0,1,0,.89h-2.9v3.15Z"/><path class="cls-1" d="M62.34,108.82a.45.45,0,0,1,0,.89H56.92a.51.51,0,0,1-.51-.51v-7.68a.51.51,0,0,1,1,0v7.3Z"/><path class="cls-1" d="M65.74,108.82h5.12a.45.45,0,0,1,0,.89H65.23a.51.51,0,0,1-.51-.51v-7.54a.5.5,0,0,1,.51-.51h5.45a.45.45,0,0,1,0,.89H65.74v2.74h2.9a.45.45,0,0,1,0,.89h-2.9v3.15Z"/><path class="cls-1" d="M78.21,102H74.35v3.1h3.86c1.11,0,1.76-.62,1.76-1.54A1.56,1.56,0,0,0,78.21,102Zm-3.86,7.32a.51.51,0,0,1-1,0v-7.68a.5.5,0,0,1,.51-.51h4.22c1.94,0,2.95,1,2.95,2.43a2.35,2.35,0,0,1-2.09,2.35l1.75,3.2a.56.56,0,0,1,.07.26.46.46,0,0,1-.48.46.46.46,0,0,1-.45-.27l-2-3.58h-3.5v3.34Z"/><path class="cls-1" d="M84.52,109.34a.51.51,0,0,1-1,0v-7.81a.51.51,0,0,1,1,0v7.81Z"/><path class="cls-1" d="M91,102.4l-1.9,4h3.8l-1.9-4Zm.45-1.1,3.84,7.86a.57.57,0,0,1,.07.22.46.46,0,0,1-.5.46c-.24,0-.34-.12-.46-.34l-1.1-2.24H88.66l-1.1,2.24c-.12.22-.22.34-.46.34a.46.46,0,0,1-.5-.46.57.57,0,0,1,.07-.22l3.84-7.86a.49.49,0,0,1,.89,0Z"/><path class="cls-1" d="M104.06,108.12v-6.61a.5.5,0,1,1,1,0v7.83a.47.47,0,0,1-.5.5.61.61,0,0,1-.46-.26l-5.74-6.8v6.58a.51.51,0,0,1-.5.5.5.5,0,0,1-.5-.5v-7.85a.47.47,0,0,1,.5-.5.56.56,0,0,1,.45.24l5.76,6.87Z"/><path class="cls-1" d="M118,105.5h3.05a.42.42,0,0,1,.43.43v2.18a.53.53,0,0,1-.15.34,5.31,5.31,0,0,1-3.75,1.47,4.49,4.49,0,1,1,0-9,4.65,4.65,0,0,1,3.27,1.22.47.47,0,0,1,.17.33.46.46,0,0,1-.46.45.49.49,0,0,1-.34-.12,3.84,3.84,0,0,0-2.64-1,3.62,3.62,0,0,0,0,7.25,4.45,4.45,0,0,0,2.91-1v-1.68H118a.41.41,0,0,1-.43-.43.42.42,0,0,1,.43-.43Z"/><path class="cls-1" d="M128.79,102h-3.86v3.1h3.86c1.11,0,1.77-.62,1.77-1.54a1.56,1.56,0,0,0-1.77-1.56Zm-3.86,7.32a.51.51,0,0,1-1,0v-7.68a.49.49,0,0,1,.51-.51h4.21c1.94,0,2.95,1,2.95,2.43a2.35,2.35,0,0,1-2.09,2.35l1.75,3.2a.56.56,0,0,1,.07.26.46.46,0,0,1-.48.46.46.46,0,0,1-.45-.27l-2-3.58h-3.5v3.34Z"/><path class="cls-1" d="M141.45,105.43A3.5,3.5,0,1,0,138,109a3.41,3.41,0,0,0,3.5-3.62Zm-3.5,4.49a4.49,4.49,0,1,1,4.52-4.49,4.32,4.32,0,0,1-4.52,4.49Z"/><path class="cls-1" d="M144.66,106.34v-4.82a.51.51,0,0,1,1,0v4.9c0,1.52,1,2.6,3,2.6s3-1.08,3-2.6v-4.9a.51.51,0,0,1,1,0v4.82c0,2.19-1.56,3.58-4,3.58s-4-1.39-4-3.58Z"/><path class="cls-1" d="M159.92,102h-3.43v3.17h3.43a1.59,1.59,0,1,0,0-3.17Zm-3.43,7.32a.51.51,0,0,1-1,0v-7.68a.5.5,0,0,1,.51-.51h3.79c1.94,0,2.95,1,2.95,2.47s-1,2.45-2.95,2.45h-3.27v3.27Z"/><path class="cls-1" d="M177.56,102.31a.51.51,0,0,1,.17.38.46.46,0,0,1-.46.45.63.63,0,0,1-.46-.22,3.53,3.53,0,0,0-2.57-1.08,3.6,3.6,0,1,0,0,7.2,3.53,3.53,0,0,0,2.57-1.08.63.63,0,0,1,.46-.22.46.46,0,0,1,.46.45.51.51,0,0,1-.17.38,4.64,4.64,0,0,1-3.41,1.37,4.49,4.49,0,1,1,0-9,4.64,4.64,0,0,1,3.41,1.37Z"/><path class="cls-1" d="M187.24,105.43a3.5,3.5,0,1,0-3.5,3.62,3.41,3.41,0,0,0,3.5-3.62Zm-3.5,4.49a4.49,4.49,0,1,1,4.52-4.49,4.33,4.33,0,0,1-4.52,4.49Z"/><path class="cls-1" d="M199.83,109.35a.5.5,0,1,1-1,0v-6.13l-3.14,6.29a.53.53,0,0,1-1,0l-3.14-6.29v6.13a.5.5,0,0,1-1,0v-7.85a.48.48,0,0,1,.5-.5.56.56,0,0,1,.55.38l3.58,7.18,3.58-7.18a.56.56,0,0,1,.55-.38.48.48,0,0,1,.5.5v7.85Z"/><path class="cls-1" d="M207.19,102h-3.43v3.17h3.43a1.59,1.59,0,1,0,0-3.17Zm-3.43,7.32a.51.51,0,0,1-1,0v-7.68a.5.5,0,0,1,.51-.51H207c1.94,0,2.95,1,2.95,2.47s-1,2.45-2.95,2.45h-3.27v3.27Z"/><path class="cls-1" d="M214.67,102.4l-1.9,4h3.8l-1.9-4Zm.45-1.1,3.84,7.86a.56.56,0,0,1,.07.22.46.46,0,0,1-.5.46c-.24,0-.34-.12-.46-.34l-1.1-2.24h-4.59l-1.1,2.24c-.12.22-.22.34-.46.34a.46.46,0,0,1-.5-.46.56.56,0,0,1,.07-.22l3.84-7.86a.49.49,0,0,1,.89,0Z"/><path class="cls-1" d="M227.78,108.12v-6.61a.5.5,0,1,1,1,0v7.83a.47.47,0,0,1-.5.5.61.61,0,0,1-.46-.26l-5.74-6.8v6.58a.51.51,0,0,1-.5.5.5.5,0,0,1-.5-.5v-7.85a.47.47,0,0,1,.5-.5.56.56,0,0,1,.45.24l5.76,6.87Z"/><path class="cls-1" d="M234.89,106v3.29a.51.51,0,0,1-1,0V106l-3.27-4.27a.47.47,0,1,1,.77-.55l3,3.92,3-3.92a.48.48,0,1,1,.77.55L234.89,106Z"/><path class="cls-2" d="M115.15,28.77a1,1,0,0,1-.91-.56A19.42,19.42,0,0,1,132.72,0a1,1,0,1,1-.12,2,17.38,17.38,0,0,0-16.54,25.2,1,1,0,0,1-.91,1.48Z"/><path class="cls-3" d="M151.7,26.44h-.06a1,1,0,0,1-1-1.08A17.37,17.37,0,0,0,125.49,8.82,1,1,0,0,1,124.56,7a19.42,19.42,0,0,1,28.15,18.48,1,1,0,0,1-1,1Z"/><path class="cls-2" d="M128.45,45.52q-.58,0-1.17,0a1,1,0,0,1,.12-2,17.38,17.38,0,0,0,16.54-25.19,1,1,0,1,1,1.82-.92,19.42,19.42,0,0,1-17.32,28.19Z"/><path class="cls-2" d="M126.7,40.62a19.42,19.42,0,0,1-19.41-20.57,1,1,0,1,1,2,.12,17.38,17.38,0,0,0,25.19,16.53,1,1,0,1,1,.92,1.82,19.3,19.3,0,0,1-8.74,2.09Z"/><path class="cls-1" d="M115.19,70a1,1,0,0,1,.35.77.93.93,0,0,1-.94.91,1.27,1.27,0,0,1-.94-.45A7.16,7.16,0,0,0,108.44,69c-5.08,0-7.48,3.62-7.48,7.31s2.4,7.31,7.48,7.31a7.16,7.16,0,0,0,5.22-2.19,1.27,1.27,0,0,1,.94-.45.93.93,0,0,1,.94.9,1,1,0,0,1-.35.77,9.42,9.42,0,0,1-6.92,2.78c-6.19,0-9.39-4.38-9.39-9.12s3.2-9.12,9.39-9.12A9.42,9.42,0,0,1,115.19,70Z"/><path class="cls-1" d="M129.2,76.46h6.19a.86.86,0,0,1,.87.87v4.42a1.07,1.07,0,0,1-.31.7,10.78,10.78,0,0,1-7.62,3c-6.16,0-9.43-4.31-9.43-9.12,0-5.15,3.62-9.12,9.43-9.12A9.44,9.44,0,0,1,135,69.67a1,1,0,0,1,.35.66.93.93,0,0,1-.94.9,1,1,0,0,1-.7-.24,7.79,7.79,0,0,0-5.36-2A7,7,0,0,0,121,76.32c0,3.72,2.37,7.41,7.38,7.41a9,9,0,0,0,5.91-2.12V78.2H129.2a.84.84,0,0,1-.87-.87.86.86,0,0,1,.87-.87Z"/><path class="cls-1" d="M148.34,85.44a12.18,12.18,0,0,1-7.24-2.23,1.1,1.1,0,0,1-.56-.9.92.92,0,0,1,1-.91,1.13,1.13,0,0,1,.7.24,10,10,0,0,0,6.09,2c3.17,0,5.15-1.22,5.15-3.06,0-2.05-2-2.68-5.08-3.48C142.85,75.69,141,74.3,141,71.8c0-3,2.51-4.59,7.17-4.59a11.18,11.18,0,0,1,6.19,1.71,1,1,0,0,1,.56.87.92.92,0,0,1-.94.87,1,1,0,0,1-.59-.17,9.9,9.9,0,0,0-5.18-1.5c-3.1,0-5.11.77-5.11,2.75s1.7,2.47,5.22,3.44c4.42,1.22,7.2,2.12,7.2,5.29s-2.85,5-7.2,5Z"/><path class="cls-1" d="M158.79,68.53v.84h.47a.42.42,0,0,0,0-.84Zm-.11-.19h.58a.57.57,0,0,1,.63.61.56.56,0,0,1-.42.59l.44.75a.1.1,0,0,1,0,.14.11.11,0,0,1-.14,0l-.46-.82h-.47v.77a.11.11,0,0,1-.21,0V68.45a.11.11,0,0,1,.11-.11Zm.47,2.84a1.77,1.77,0,1,0-1.74-1.77,1.71,1.71,0,0,0,1.74,1.77Zm0-3.74a2,2,0,1,1-2,2,1.93,1.93,0,0,1,2-2Z"/></svg>