<svg width="510" height="188" viewBox="0 0 510 188" fill="none" xmlns="http://www.w3.org/2000/svg">
<g clip-path="url(#clip0_52_14)">
<path d="M331.51 72.3611C331.529 25.2852 331.726 24.7629 350.517 21.8575C371.839 18.5533 380.538 25.3611 380.538 45.329V56.9698H360.011C359.452 35.6062 359.452 35.6062 357 35.6062C354.548 35.6062 354.548 35.6062 354.548 71.687C354.548 107.768 354.548 107.768 357 107.768C359.452 107.768 359.452 107.768 359.727 94.7122L360.001 81.6567H380.538C380.538 113.237 379.509 115.487 369.897 119.485C367.269 120.576 362.63 121.706 359.589 121.982C356.549 122.257 351.517 122.01 348.418 121.422C331.647 118.25 331.5 117.832 331.51 72.3611Z" fill="black" fill-opacity="0.988235"/>
<path d="M413.149 112.078C410.324 106.657 409.667 40.7522 412.364 33.3652C417.729 18.648 451.007 16.6256 458.647 30.5547C460.01 33.0423 460.383 36.0997 460.422 45.1009L460.471 56.4949L440.434 57.0361C439.875 35.606 439.875 35.606 436.933 35.606C433.99 35.606 433.99 35.606 433.735 71.1645C433.461 109.448 433.441 109.296 438.423 107.758C440.228 107.207 440.365 106.286 440.365 94.4082V81.6565H460.962C460.962 111.338 459.539 114.851 451.154 118.924C447.672 120.624 443.592 121.716 439.63 122.019C436.256 122.276 431.185 122.048 428.351 121.516C420.613 120.054 415.719 117.016 413.149 112.078Z" fill="black" fill-opacity="0.988235"/>
<path d="M257.942 21.8003C301.587 22.313 301.587 22.313 301.587 28.4847C301.587 34.6565 301.587 34.6565 291.043 34.9223L280.5 35.1977V61.7171C299.135 61.7171 299.135 61.7171 299.135 67.8888C299.135 74.0605 299.135 74.0605 289.817 74.0605H280.5V108.176C301.587 108.717 301.587 108.717 301.587 114.889C301.587 121.06 301.587 121.06 279.764 121.298L257.942 121.535V21.8003Z" fill="black" fill-opacity="0.988235"/>
<path d="M133.385 138.626L131.894 137.772C131.011 137.259 130.217 137.259 129.462 138.626L126.519 136.727L124.499 135.835C123.018 135.179 122.341 135.303 121.949 136.309C121.645 137.059 120.792 137.677 118.673 137.677L112.053 137.544C108.414 137.468 102.01 137.686 90.2308 138.626C89.8581 136.784 90.2897 134.116 90.9468 131.505C91.6137 128.894 92.7122 123.586 93.3987 119.712C94.0853 115.838 95.4191 110.398 96.3606 107.606L98.077 102.545L101.019 106.343V108.242L102.981 111.091L103.226 111.328C103.363 111.461 103.099 112.126 102.638 112.809C101.108 115.107 106.649 123.434 109.719 123.434C111.17 123.434 113.554 124.108 115.025 124.925C121.831 128.732 124.43 123.32 119.026 116.569C116.947 113.968 114.25 110.607 110.827 106.343L108.865 103.495L107.11 98.9847C105.472 94.7975 105.129 94.4936 99.0578 94.9494C100.598 89.053 102 87.5433 106.217 84.9037C109.807 82.6439 111.857 80.6405 112.288 78.9599C112.641 77.5736 113.563 76.3298 114.328 76.1968L115.731 75.9595L121.615 74.0605C129.834 72.8641 130.246 73.016 132.355 75.893C133.6 77.5831 138.073 81.2671 142.3 84.0871C154.383 92.1389 157.708 103.989 154.618 127.944L153 140.525L151.607 139.566C150.568 138.854 150.126 139.006 149.891 140.145C149.616 141.456 149.283 141.38 147.665 139.652C146.625 138.531 145.203 137.819 144.516 138.075C143.82 138.332 142.977 138.104 142.633 137.572C142.29 137.031 141.407 136.822 140.672 137.097C139.926 137.373 138.975 137.078 138.563 136.442C137.984 135.569 137.259 135.692 133.385 138.626ZM115.662 80.6025C113.416 81.4476 108.454 91.8065 109.219 94.0474C109.836 95.8799 109.856 95.8799 111.141 94.0568C111.857 93.0504 114.073 91.2179 116.064 90.0025C118.399 88.5783 119.369 87.4484 118.771 86.8502C118.251 86.347 117.692 84.5999 117.516 82.9762C117.28 80.7449 116.829 80.1657 115.662 80.6025ZM123.577 82.6059L124.401 83.7928C125.068 84.7423 125.46 84.7423 127.5 82.6059L129.216 81.1627C130.158 80.3651 130.825 79.3017 130.442 77.8585L129.462 75.01L127.431 75.2474C123.028 75.7601 119.458 79.0738 119.811 82.3116C120.115 85.0746 120.291 85.2171 123.577 82.6059Z" fill="black" fill-opacity="0.988235"/>
<path d="M85.327 139.576L83.7577 141.066C81.7962 142.918 82.2375 143.345 91.2116 145.273V147.172C91.2116 148.406 90.5545 149.071 89.3579 149.071C87.0629 149.071 85.9841 151.387 89.25 152.869L90.2308 155.717L87.2885 158.566H85.327L85.0131 157.379C84.7679 156.429 84.3756 156.429 81.4039 158.566C77.981 163.199 70.8802 157.91 66.6924 150.191C63.7599 144.779 62.5437 143.497 58.3558 141.465C55.6587 140.155 52.0593 137.439 50.3625 135.436C46.7925 131.239 45.39 131.666 46.9985 136.461C48.0087 139.462 47.9204 139.889 46.0668 140.82C43.0754 142.339 40.6725 139.424 41.6435 135.436C42.281 132.806 41.9377 132.141 38.3383 129.103C34.1602 125.571 33.2972 123.178 35.7883 122.01C36.7004 121.592 38.0245 122.096 39.2897 123.33C42.0947 126.083 43.507 125.865 42.9185 122.76C42.2614 119.333 45.0272 117.576 47.4497 119.893C51.0687 123.339 49.0581 118.82 44.1641 112.477C39.4662 106.4 39.2504 105.878 40.8883 104.691C42.4183 103.59 42.9283 103.685 44.625 105.403C46.8416 107.654 47.4987 106.752 45.4881 104.207C44.5368 103.001 42.7518 102.536 39.0052 102.517C33.1108 102.498 29.8743 101.188 30.7962 99.2127C31.1395 98.4816 31.1199 96.7345 30.7472 95.3388C29.9037 92.158 33.5914 90.7432 35.8962 93.3543C37.946 95.6901 38.5149 95.3198 37.897 92.063C37.4654 89.8412 36.4258 88.7778 33.307 87.382C29.2662 85.5875 29.2662 85.5875 31.8456 81.2483C34.5918 76.6052 36.9947 75.7602 40.0056 78.3618C41.5356 79.6911 41.7122 79.6341 41.9966 77.6497C42.1633 76.4628 43.046 74.6303 43.9581 73.5859C45.5764 71.7153 45.5175 71.6964 39.9664 72.0382C33.2187 72.4655 32.9245 71.6964 37.7793 66.2463C41.0452 62.5717 41.3983 62.4198 44.2425 63.4073C47.0083 64.3663 47.332 64.2618 48.1362 62.1349C49.2249 59.277 52.0887 59.125 54.3935 61.8121C55.335 62.904 56.5708 63.5402 57.1593 63.2364C57.836 62.8755 57.7674 62.6667 56.9729 62.6667C56.2864 62.6667 54.9722 61.4893 54.0404 60.0556C52.4908 57.6438 51.8729 57.4444 46.0374 57.4444C38.1127 57.4444 36.416 55.1372 43.2912 53.7034C45.645 53.2097 47.9008 52.2222 48.3127 51.5006C48.7835 50.684 50.3625 50.3042 52.5399 50.4657C57.5025 50.8549 60.5331 46.8006 58.807 42.0911C57.0318 37.2487 58.297 36.4796 63.5833 39.1667C68.1635 41.4929 68.1635 41.4929 68.6539 39.4705C68.9285 38.3596 69.5072 37.1158 69.9387 36.7075C70.38 36.2897 70.4977 34.1723 70.2035 31.9885C69.9093 29.7951 69.9191 28.1525 70.2231 28.3329C70.537 28.5038 71.9591 27.317 73.4008 25.7028C78.0791 20.4046 82.9437 22.4745 80.2858 28.6273C78.8931 31.8461 79.2854 31.8176 87.2199 28.0766C87.4454 27.9626 86.6804 26.9467 85.5035 25.8073C82.0904 22.503 82.6299 19.8444 86.5529 20.5471C92.516 21.6105 95.2524 26.4814 91.7608 29.8236C88.2791 33.1469 89.1716 34.1248 93.4772 31.7036C96.6058 29.9376 96.6058 29.9376 95.9095 32.4442C94.6835 36.8024 89.6718 38.6444 86.0724 36.0523C82.316 33.3273 79.8837 34.9509 83.4929 37.7709C85.4937 39.3376 85.6506 39.8693 84.6306 41.5974C83.3556 43.7717 74.5581 45.5947 72.9399 44.0281C72.4593 43.5628 71.9493 44.9966 71.7825 47.3228C71.5079 51.0448 70.9979 51.776 66.555 54.8903C62.3279 57.8622 61.7395 58.6693 62.3377 60.5873C62.9164 62.4008 62.3475 63.5022 59.3954 66.3127C55.9627 69.579 55.7862 70.0347 56.4139 73.9182C57.0416 77.7636 56.865 78.2289 53.8345 80.7735C50.5783 83.5081 50.5783 83.5081 52.2554 87.4675C53.8443 91.218 53.8345 91.6073 52.177 94.845C50.49 98.1398 50.49 98.3962 52.2064 101.596C53.452 103.903 53.8149 105.964 53.3931 108.328C52.2554 114.851 61.8081 130.755 68.3106 133.157C69.6935 133.67 72.1749 135.626 73.8127 137.506C76.0489 140.06 77.0689 140.639 77.8731 139.804C78.4714 139.196 80.3839 138.892 82.1395 139.139L85.327 139.576ZM77.216 151.226C75.7743 149.84 74.3424 148.947 74.0285 149.242C73.7245 149.545 74.1462 150.913 74.9799 152.28C75.8135 153.647 77.0199 154.768 77.6475 154.768C79.9131 154.768 79.7856 153.714 77.216 151.226ZM82.3847 150.02V153.818H84.3462V150.02H82.3847ZM64.8387 141.294C65.3781 140.449 65.9862 140.516 67.271 141.532C68.7127 142.69 69.0462 142.7 69.4287 141.579C69.6837 140.858 69.056 139.87 68.0458 139.386C67.0356 138.911 65.6724 138.114 65.0152 137.62C63.2793 136.309 62.9262 136.499 62.73 138.864C62.632 140.041 62.6025 141.323 62.6614 141.712C62.7202 142.101 63.0733 142.424 63.446 142.424C63.8187 142.424 64.4464 141.921 64.8387 141.294ZM54.5014 129.54C53.197 129.217 51.8827 128.362 51.5885 127.622C50.7352 125.466 50.235 126.074 50.392 129.065C50.5783 132.53 51.765 133.784 53.1283 131.951C54.0306 130.745 54.2954 130.783 55.0408 132.217C55.5116 133.129 56.1295 133.879 56.3943 133.879C58.1891 133.879 56.512 130.024 54.5014 129.54ZM49.3622 92.4143C50.5195 91.2939 50.0683 90.9331 48.3225 91.5788C47.3614 91.9396 46.4591 91.7307 46.2433 91.0945C45.9687 90.316 45.6156 90.3634 45.0075 91.2844C44.5466 91.9966 44.1543 92.6802 44.1543 92.8131C44.1445 92.9461 45.1645 93.0505 46.4199 93.0505C47.685 93.0505 49.0091 92.7657 49.3622 92.4143ZM40.9962 88.8063C41.5749 88.2461 40.4372 82.6061 39.7506 82.6061C39.4662 82.6061 39.2308 84.1063 39.2308 85.9293C39.2308 87.7618 39.525 89.2525 39.8879 89.2525C40.241 89.2525 40.7412 89.0531 40.9962 88.8063ZM50.7647 76.3204C49.5485 76.3014 48.3716 76.4248 48.146 76.5863C47.9204 76.7572 48.2539 77.3269 48.8816 77.8491C49.5093 78.3808 50.5391 78.6941 51.1766 78.5422C53.3147 78.058 53.0008 76.3679 50.7647 76.3204ZM60.8077 52.8584C60.8077 52.5071 60.131 52.2222 59.2974 52.2222C58.4735 52.2222 58.0322 52.6495 58.3166 53.1717C58.6108 53.6939 59.1404 54.1212 59.5033 54.1212C60.337 54.1212 60.8077 53.6654 60.8077 52.8584ZM66.1137 49.7535C65.0447 50.1523 64.3483 49.6586 63.9266 48.1869C63.2989 46.0505 63.2989 46.0505 62.9556 48.2533C62.7693 49.4592 63.0929 50.8454 63.6716 51.3392C64.2502 51.8234 65.3977 51.8899 66.202 51.4816C68.1733 50.5036 68.0949 49.0129 66.1137 49.7535ZM79.4424 39.6509C79.4424 39.1762 77.0983 39.2426 73.6558 39.8123C73.44 39.8503 73.7637 40.3061 74.3914 40.8283C75.0093 41.3505 75.8527 41.7683 76.2549 41.7588C77.3239 41.7398 79.4424 40.344 79.4424 39.6509Z" fill="#00D65B" fill-opacity="0.956863"/>
<path d="M161.827 158.566L161.601 156.259C161.327 153.533 161.729 153.087 164.034 153.59C164.975 153.79 165.75 153.714 165.75 153.41C165.75 153.116 165.201 152.812 164.524 152.736C163.847 152.66 162.749 152.014 160.846 150.02L157.904 148.121L159.13 146.669C159.807 145.881 160.248 144.808 159.865 143.374V141.475C166.564 142.814 167.3 142.538 170.507 139.566C172.478 137.743 176.234 134.629 178.863 132.654C185.356 127.745 191.652 116.199 190.838 110.683C190.456 108.024 190.848 105.897 192.221 103.296C194.065 99.792 194.075 99.4977 192.456 96.2599C190.858 93.0601 190.858 92.6898 192.505 89.0438C194.241 85.2078 194.241 85.2078 191.417 83.0145C187.749 80.185 186.788 78.153 188.259 76.3585C189.818 74.431 188.906 72.0003 185.091 67.8415C181.178 63.5878 181.354 63.9296 182.345 62.4674C183.541 60.7108 182.492 59.372 177.774 56.59C172.802 53.6751 171.586 50.5417 173.969 46.7817C176.401 42.9268 175.95 42.2621 172.557 44.7308C166.505 49.127 155.413 43.2401 161.278 38.749C163.936 36.7076 161.297 35.5112 158.522 37.4957C155.599 39.5846 151.794 38.8724 149.508 35.7866C146.9 32.2735 151.176 24.592 156.501 23.2248C161.209 22.0189 162.141 23.6995 158.845 27.4215C156.737 29.7953 156.737 29.7953 159.532 30.9537C164.328 32.9571 164.965 32.6912 163.583 29.2825C162.464 26.529 162.563 26.1587 164.681 24.7724C168.565 22.2278 174.959 28.0957 174.008 33.3369C173.125 38.2458 175.018 39.8789 181.599 39.8789C186.454 39.8789 186.454 39.8789 185.817 43.6484C184.649 50.5797 187.033 53.1054 196.066 54.5201C204.481 55.8399 205.981 56.6375 204.029 58.7169C203.029 59.7803 201.509 59.9512 197.596 59.448C192.603 58.8118 183.953 64.091 187.984 65.3159C188.622 65.5153 189.828 64.7272 190.681 63.5783C192.966 60.4735 196.605 61.5939 195.565 65.088C194.82 67.6232 194.82 67.6232 198.792 65.9046C202.754 64.186 202.754 64.186 206.913 68.2593C211.876 73.1302 211.003 74.3361 202.823 73.8803C197.625 73.586 197.625 73.586 199.9 75.3805C201.205 76.4155 201.96 77.8302 201.676 78.7038C201.166 80.3084 202.225 80.4223 207.04 79.2735C209.316 78.7322 209.836 79.1405 211.866 83.0335C214.141 87.4011 214.141 87.4011 210.14 89.6135C207.727 90.9522 205.864 92.7943 205.461 94.247C204.52 97.6747 205.716 98.2918 208.472 95.8042C211.866 92.7373 213.808 93.8292 213.808 98.8046C213.808 102.612 213.553 103.001 210.13 104.464C207.354 105.66 205.01 108.11 200.567 114.5C196.625 120.159 195.389 122.542 196.821 121.706C199.832 119.931 202.519 121.45 201.538 124.365C200.509 127.403 202.382 127.85 205.108 125.21C207.805 122.599 211.758 123.957 210.267 126.995C207.825 131.989 199.518 134.942 195.585 132.217C193.535 130.793 192.809 130.727 190.505 131.771C187.817 132.996 187.817 132.996 191.005 133.85C196.448 135.303 193.81 140.563 186.464 142.871C183.061 143.944 181.943 145.083 178.167 151.34C175.773 155.309 173.39 158.566 172.89 158.566C171.203 158.566 169.673 156.382 169.673 153.989C169.673 151.986 169.526 151.872 168.692 153.249C168.153 154.132 167.712 156.543 167.712 158.613C167.712 162.782 166.329 163.37 163.543 160.398L161.827 158.566ZM188.082 145.71C189.171 146.118 190.093 145.539 190.985 143.887C193.28 139.661 196.046 141.788 194.751 146.783C194.31 148.473 193.643 149.071 192.623 148.691C191.603 148.311 190.819 149.023 190.122 150.979C189.553 152.536 188.474 153.818 187.719 153.818C186.964 153.818 185.669 153.182 184.846 152.404C182.796 150.457 185.552 144.77 188.082 145.71ZM166.24 148.121C166.515 148.121 166.731 147.4 166.731 146.507C166.731 145.434 166.407 145.206 165.75 145.843C165.211 146.365 164.769 147.096 164.769 147.457C164.769 147.827 164.995 148.121 165.26 148.121H166.24ZM177.362 143.146C178.333 142.206 178.765 142.253 179.481 143.374C180.746 145.349 182.511 143.421 181.805 140.829C181.256 138.797 181.256 138.797 177.921 140.706C176.078 141.75 174.577 142.785 174.577 142.994V143.849C174.577 144.105 174.93 144.323 175.362 144.323C175.793 144.323 176.695 143.792 177.362 143.146ZM199.096 108.309C199.096 107.303 199.812 105.783 200.685 104.938C201.558 104.093 202.029 103.172 201.734 102.878C200.724 101.909 198.9 103.704 198.086 106.457C197.478 108.489 196.85 109.031 195.614 108.565C194.536 108.167 194.173 108.337 194.565 109.05C194.898 109.648 196.056 110.142 197.135 110.142C198.419 110.142 199.096 109.505 199.096 108.309ZM199.449 92.3385C199.175 88.6829 198.871 88.3696 198.4 91.2846C198.086 93.2785 197.596 93.6868 195.987 93.288C194.653 92.9462 194.173 93.1456 194.575 93.8577C194.898 94.4559 196.183 94.9496 197.409 94.9496C199.253 94.9496 199.616 94.4844 199.449 92.3385ZM204.432 91.1516C204.942 91.1516 205.618 85.1698 205.177 84.5337C205.01 84.2868 204.461 84.7141 203.961 85.4832C203.461 86.2522 203.039 87.8379 203.039 89.0153C203.029 90.1926 203.245 91.1516 203.51 91.1516H204.432ZM196.154 78.4854C196.154 77.9632 192.054 77.9726 191.338 78.5044C191.113 78.6658 191.446 79.226 192.074 79.7482C192.702 80.2799 193.623 80.7072 194.133 80.7072C195.036 80.7072 196.154 79.4823 196.154 78.4854ZM185.473 54.3112C184.806 54.1023 184.071 54.1118 183.835 54.3397C183.6 54.5676 183.404 55.2512 183.404 55.8589C183.404 56.4761 183.816 56.9698 184.326 56.9698C185.836 56.9698 186.797 54.7385 185.473 54.3112ZM181.854 48.6617C181.472 47.5698 180.462 48.8326 180.462 50.3898C180.462 51.966 180.05 52.2223 178.353 51.7001C176.548 51.1494 176.411 51.2823 177.372 52.5926C178.049 53.5137 179.216 53.8935 180.285 53.5516C181.697 53.0959 182.511 50.5702 181.854 48.6617ZM170.654 41.6355C170.654 40.9803 165.495 40.8284 164.799 41.4551C164.553 41.683 165.103 42.2811 166.025 42.7749C166.956 43.2686 168.378 43.3446 169.183 42.9363C169.997 42.5375 170.654 41.9488 170.654 41.6355ZM156.55 33.109C156.129 32.1975 155.776 32.1405 155.403 32.8906C155.109 33.4888 153.922 33.7452 152.774 33.4508C150.97 32.9951 150.833 33.1375 151.833 34.4953C152.48 35.3688 153.333 36.0714 153.736 36.0619C155.472 36.0335 157.119 34.2959 156.55 33.109Z" fill="#00D65B" fill-opacity="0.956863"/>
<path d="M489.404 129.131L234.404 130.081C232.639 129.169 232.678 128.581 233.482 127.641C235.306 125.504 487.589 125.542 488.668 127.679L489.404 129.131Z" fill="#00F468" fill-opacity="0.976471"/>
<path d="M95.1346 157.616L94.1539 154.768L91.2115 151.919L91.9471 151.634C92.3492 151.473 93.2319 151.046 95.1346 150.02L96.1154 151.112C96.8215 151.9 97.0962 151.71 97.0962 150.419C97.0962 149.432 96.6548 148.719 95.1346 149.071L93.7125 148.672C92.4669 148.33 92.4669 147.969 95.1346 143.374L96.6058 144.219C97.5277 144.751 98.0769 144.703 98.0769 144.095C98.0769 143.507 99.2539 143.355 103.962 144.323V147.172L104.315 148.833C104.511 149.745 104.952 150.172 105.923 149.071H106.904C107.443 149.071 107.885 149.878 107.885 150.865C107.885 151.853 108.532 152.907 109.326 153.201C111.258 153.923 110.219 148.501 106.904 147.172H105.923L106.904 143.374L108.62 143.136C109.562 143.004 110.67 143.431 111.808 145.273L112.22 145.928C112.455 146.279 113.338 145.852 115.731 143.374L117.692 144.323L118.369 146.934C119.173 150.02 119.605 150.685 120.635 149.071L121.704 149.621C123.273 150.438 124.244 149.09 121.615 147.172L119.654 145.273L121.615 143.374L123.077 143.136C123.881 143.004 124.656 142.624 124.793 142.291C124.93 141.95 126.039 142.064 129.462 143.374V147.172L130.197 147.4C131.766 147.874 133.924 146.564 131.423 145.273L132.159 143.431C132.669 142.158 133.571 141.722 137.308 142.424L140.25 144.323L141.211 145.51C141.741 146.165 141.966 147.267 141.702 147.969C141.044 149.726 142.251 151.492 143.143 150.087C143.526 149.498 144.575 149.28 145.478 149.612C147.635 150.419 147.547 149.754 143.192 145.273L147.115 143.374L148.802 143.611C149.724 143.744 150.215 144.276 149.881 144.798C149.538 145.358 150.862 145.842 156.923 146.222L157.904 148.121L157.786 149.308C157.58 151.435 157.884 151.729 160.846 150.02V152.394C160.846 153.875 160.287 154.768 157.904 154.768L154.049 149.792C153.549 149.156 152.882 148.871 152.568 149.166C152.264 149.47 152.451 150.21 153.981 151.919L155.942 157.616L154.962 159.515L153.981 160.465L151.539 158.328C150.195 157.151 148.655 156.296 147.115 156.667L145.154 153.818L146.87 153.799C149.361 153.78 151.343 152.328 150.842 150.884C150.499 149.887 150.264 149.878 149.646 150.846C149.224 151.511 148.273 151.824 147.537 151.549C146.811 151.283 145.752 151.682 144.173 153.818L142.506 152.631C139.74 150.656 139.465 150.761 139.269 156.667L137.406 157.265C136.248 157.635 135.366 157.36 135.081 156.553C134.836 155.831 134.346 155.138 133.385 154.768L134.238 152.631C135.248 150.087 135.081 149.669 132.404 151.919H131.05C130.295 151.919 128.961 152.992 128.079 154.293C125.96 157.426 123.675 157.293 117.692 150.97L116.368 149.308C115.643 148.397 114.672 147.988 114.191 148.406C113.71 148.843 113.75 149.46 114.289 149.83C114.809 150.201 115.574 151.245 116.712 153.818L114.995 155.48C113.357 157.066 113.073 157.047 108.914 155.242C104.501 153.325 103.01 153.495 105.05 155.698C105.668 156.363 105.962 157.749 105.707 158.775C105.286 160.455 105.119 160.493 103.981 159.126C103.216 158.214 101.215 157.616 95.1346 157.616Z" fill="#00D65B" fill-opacity="0.956863"/>
<path d="M115.731 75.9596C111.553 70.9083 109.787 67.2717 109.111 64.6321L107.885 59.8182V53.1717V51.0733C107.885 47.4652 110.327 46.136 117.702 45.7372C126.176 45.2719 132.404 49.782 132.404 59.8182C129.628 65.3347 127.206 68.544 125.225 70.5L121.615 74.0606L115.731 75.9596Z" fill="#FCFCFC" fill-opacity="0.988235"/>
<path d="M132.404 59.8181C132.404 49.7819 126.176 45.2718 117.702 45.7371C110.327 46.1359 107.885 47.4652 107.885 51.0733V53.1716L107.159 47.2373C106.766 43.971 106.1 41.1985 104.942 40.8282C116.427 27.184 117.447 27.2789 131.541 37.0872C144.82 46.3353 144.997 46.8385 137.553 54.5104L132.404 59.8181Z" fill="black" fill-opacity="0.988235"/>
<path d="M118.673 161.414L119.899 160.512C121.096 159.639 121.086 154.768 119.889 154.768C119.036 154.768 117.722 156.904 117.692 159.515C114.348 161.31 113.377 161.329 112.514 160.636C111.621 159.914 110.66 160.275 108.993 161.955C105.992 164.965 104.138 164.87 102.686 161.623C101.245 158.385 98.8419 158.632 97.5473 162.155C97.0275 163.579 96.0565 164.633 95.3798 164.5L94.1538 164.263V161.414V160.465L95.1346 157.616C101.215 157.616 103.216 158.214 103.981 159.126C105.119 160.493 105.286 160.455 105.707 158.775C105.962 157.749 105.668 156.363 105.05 155.698C103.01 153.495 104.501 153.324 108.914 155.242C113.073 157.046 113.357 157.065 114.995 155.48L116.712 153.818L117.692 150.97C123.675 157.293 125.96 157.426 128.079 154.293C128.961 152.992 130.295 151.919 131.05 151.919H132.404L133.385 154.768C134.346 155.138 134.836 155.831 135.081 156.553C135.366 157.36 136.248 157.635 137.406 157.265L139.269 156.667L141.231 158.566L142.212 161.414C136.19 167.728 134.365 167.349 134.365 163.342C134.365 160.598 133.267 160.18 130.481 161.86C129.697 162.335 127.99 162.829 126.696 162.962C125.401 163.095 123.459 163.978 122.38 164.918C120.458 166.589 120.389 166.57 119.546 164.025L118.673 161.414ZM129.658 155.242C129.167 156.809 128.922 158.414 129.108 158.803C129.305 159.192 129.913 159.515 130.472 159.515C131.031 159.515 131.707 158.955 131.982 158.262C132.257 157.578 132.041 155.974 131.511 154.701C130.55 152.394 130.55 152.394 129.658 155.242Z" fill="#FCFCFC" fill-opacity="0.988235"/>
<path d="M102.981 111.091V110.141L110.827 106.344C114.25 110.607 116.947 113.968 119.026 116.57C124.43 123.32 121.831 128.733 115.025 124.925C113.553 124.109 111.17 123.434 109.719 123.434C106.649 123.434 101.108 115.107 102.638 112.81C103.098 112.126 103.363 111.461 103.226 111.328L102.981 111.091Z" fill="#FCFCFC" fill-opacity="0.988235"/>
<path d="M85.3269 139.576L90.2308 138.626C102.01 137.686 108.414 137.468 112.053 137.544L118.673 137.677L121.635 138.864C124.214 139.899 124.715 139.842 126.519 136.727L129.462 138.626V143.374C126.039 142.063 124.93 141.95 124.793 142.291C124.656 142.624 123.881 143.003 123.077 143.136L121.615 143.374L120.144 141.712C118.771 140.155 118.673 140.183 118.673 144.323H117.692L115.731 143.374L111.808 145.273C110.67 143.431 109.562 143.003 108.62 143.136L106.904 143.374L106.09 141.95C104.952 139.956 103.962 140.174 103.962 144.323C99.2538 143.355 98.0769 143.507 98.0769 144.095C98.0769 144.703 97.5277 144.751 96.6058 144.219L95.1346 143.374L93.9086 142.662C91.5156 141.266 91.2115 141.342 91.2115 145.273C82.2375 143.345 81.7961 142.918 83.7577 141.066L85.3269 139.576Z" fill="#FCFCFC" fill-opacity="0.988235"/>
<path d="M147.115 143.374L144.418 142.367C142.525 141.665 141.653 141.665 141.231 143.374L140.25 144.323L137.308 142.424L137.857 141.418C138.975 139.414 137.651 138.199 136.405 140.079C135.238 141.826 135.091 141.845 133.385 138.626C137.259 135.692 137.984 135.569 138.563 136.442C138.975 137.078 139.926 137.373 140.672 137.097C141.407 136.822 142.29 137.031 142.633 137.572C142.977 138.104 143.82 138.332 144.516 138.075C145.203 137.819 146.625 138.531 147.665 139.652C149.283 141.38 149.616 141.456 149.891 140.145C150.126 139.006 150.568 138.854 151.607 139.566L153 140.525C154.138 140.212 155.02 140.43 155.697 140.801L156.923 141.475V143.374V146.222C150.862 145.842 149.538 145.358 149.881 144.798C150.215 144.276 149.724 143.744 148.802 143.611L147.115 143.374Z" fill="#FCFCFC" fill-opacity="0.988235"/>
<path d="M421.623 140.772C422.643 141.028 424.055 140.895 424.761 140.478C425.458 140.05 426.752 140.079 427.615 140.525C428.498 140.981 429.793 140.981 430.558 140.525C433.412 138.816 435.462 141.247 435.462 146.336C435.462 152.299 433.157 152.337 432.706 146.384C432.539 144.209 431.99 142.424 431.48 142.424H430.067C429.803 142.424 429.577 144.105 429.577 146.165C429.577 149.507 428.881 150.97 427.272 150.97C426.988 150.97 426.615 149.156 426.448 146.934C426.233 144.114 425.703 142.899 424.673 142.899C423.643 142.899 423.114 144.114 422.898 146.934C422.731 149.156 422.182 150.97 421.672 150.97H420.26C419.995 150.97 419.769 148.567 419.769 145.633C419.769 140.876 419.965 140.354 421.623 140.772Z" fill="black" fill-opacity="0.988235"/>
<path d="M36.0923 117.291C33.8758 117.263 29.0013 108.935 30.0998 107.055C31.1198 105.318 35.6313 106.429 36.8573 108.717C37.5831 110.075 38.9954 111.091 40.1331 111.091C42.5948 111.091 43.9384 115.202 42.1633 117.272C41.4963 118.051 40.5646 118.687 40.0938 118.687C39.6133 118.687 39.0346 118.373 38.7894 118.003C38.554 117.623 37.3379 117.301 36.0923 117.291Z" fill="#00D65B" fill-opacity="0.956863"/>
<path d="M271.957 140.99C272.801 140.981 273.821 140.658 274.223 140.269C274.625 139.889 275.959 140.202 277.185 140.99C278.568 141.864 279.647 142.044 280.019 141.465C281.373 139.338 286.434 140.459 288.091 143.26C291.602 149.175 282.805 154.312 278.941 148.605C278.058 147.305 277.617 145.557 277.94 144.722C278.352 143.687 277.881 143.032 276.479 142.671C273.948 142.035 272.693 143.744 272.673 147.884C272.664 149.583 272.212 150.97 271.673 150.97C271.134 150.97 270.663 150.751 270.624 150.495C269.937 145.88 270.624 141 271.957 140.99ZM285.933 143.431C285.1 142.13 281.785 142.13 280.961 143.421C280.608 143.962 280.588 145.463 280.902 146.744C281.275 148.245 282.167 149.071 283.423 149.071C285.463 149.071 287.13 145.311 285.933 143.431Z" fill="black" fill-opacity="0.988235"/>
<path d="M204.834 112.99C205.824 112.99 207.129 111.926 207.747 110.616C208.492 109.021 209.649 108.242 211.277 108.242C214.239 108.242 215.357 109.752 213.769 111.604C213.121 112.363 212.856 112.99 213.18 112.99C213.504 112.99 212.896 114.509 211.817 116.37C210.326 118.943 209.404 119.617 207.992 119.181C206.962 118.867 205.844 119.057 205.501 119.598C205.148 120.14 204.451 120.586 203.941 120.586C203.431 120.586 202.47 119.731 201.803 118.687C200.293 116.323 202.068 112.99 204.834 112.99Z" fill="#00D65B" fill-opacity="0.956863"/>
<path d="M351.586 136.604C355.097 135.369 359.942 137.249 359.942 139.832C359.942 141.693 357.971 141.826 356.637 140.06C354.224 136.87 350.664 138.588 350.321 143.098C349.929 148.425 353.087 150.837 356 147.409C356.99 146.232 358.285 145.273 358.873 145.273C360.55 145.273 360.129 147.665 358.147 149.403C357.167 150.267 354.96 150.97 353.244 150.97C351.439 150.97 349.585 150.277 348.83 149.308C345.035 144.485 346.339 138.436 351.586 136.604Z" fill="black" fill-opacity="0.988235"/>
<path d="M402.527 137.06C405.136 138.721 405.842 140.744 404.018 141.332C403.439 141.522 402.419 140.943 401.753 140.06C399.34 136.87 395.78 138.588 395.436 143.098C395.015 148.719 397.869 150.561 401.713 147.134C404.803 144.39 406.362 146.099 403.538 149.128C402.586 150.144 400.556 150.97 399.026 150.97C397.486 150.97 395.505 150.438 394.622 149.783C387.551 144.561 395.123 132.369 402.527 137.06Z" fill="black" fill-opacity="0.988235"/>
<path d="M244.408 142.377C244.702 136.309 244.702 136.309 249.606 136.604C252.303 136.765 254.618 137.003 254.755 137.126C255.755 138.075 254.421 138.626 251.077 138.626C247.811 138.626 247.154 138.94 247.154 140.525C247.154 142.063 247.811 142.424 250.587 142.424C252.47 142.424 254.019 142.643 254.019 142.899V143.848C254.019 144.105 252.47 144.323 250.587 144.323C247.811 144.323 247.154 144.684 247.154 146.222C247.154 147.751 247.811 148.121 250.528 148.121C253.588 148.121 255 148.843 255 150.4C255 150.713 252.793 150.97 250.096 150.97C246.938 150.97 244.996 150.523 244.653 149.707C244.349 149.004 244.241 145.709 244.408 142.377Z" fill="black" fill-opacity="0.988235"/>
<path d="M439.944 140.896C440.797 141.209 442.268 141.066 443.229 140.563C444.445 139.937 445.603 140.098 447.084 141.095C451.222 143.905 448.761 151.454 443.926 150.78C442.464 150.58 441.64 151.141 441.189 152.631C440.826 153.809 440.277 154.768 439.963 154.768H438.894C438.629 154.768 438.404 151.52 438.404 147.542C438.404 141.37 438.629 140.402 439.944 140.896ZM444.043 142.605C443.092 142.424 442.042 142.984 441.699 143.848C441.356 144.712 441.356 146.241 441.699 147.238C442.052 148.273 443.072 148.966 444.043 148.833C446.446 148.501 446.446 143.051 444.043 142.605Z" fill="black" fill-opacity="0.988235"/>
<path d="M295.947 140.867C303.715 141.095 304.715 150.371 296.997 150.58C294.447 150.647 293.672 151.112 293.427 152.717C293.25 153.847 292.926 154.768 292.691 154.768H291.779C291.514 154.768 291.288 151.606 291.288 147.751C291.288 140.725 291.288 140.725 295.947 140.867ZM296.928 142.605C295.977 142.424 294.927 142.984 294.584 143.848C294.241 144.712 294.241 146.241 294.584 147.238C294.937 148.273 295.957 148.966 296.928 148.833C299.331 148.501 299.331 143.051 296.928 142.605Z" fill="black" fill-opacity="0.988235"/>
<path d="M98.0769 102.545C96.0859 98.7 96.184 97.9404 97.459 96.6111L99.0577 94.9495C105.129 94.4937 105.472 94.7975 107.11 98.9848L108.865 103.495L106.855 103.77C105.756 103.922 103.991 104.568 101.019 106.343L98.0769 102.545ZM103.55 97.9119C101.657 95.0919 99.0479 96.3072 100.225 99.4596C100.656 100.637 101.274 101.596 101.598 101.596C101.912 101.596 102.804 101.254 103.589 100.836C104.805 100.172 104.805 99.7824 103.55 97.9119Z" fill="#FCFCFC" fill-opacity="0.988235"/>
<path d="M115.662 80.6026C116.829 80.1658 117.28 80.745 117.516 82.9763C117.692 84.6 118.251 86.347 118.771 86.8503C119.369 87.4485 118.399 88.5784 116.064 90.0026C114.073 91.218 111.857 93.0505 111.141 94.0569C109.856 95.88 109.836 95.88 109.219 94.0475C108.454 91.8066 113.416 81.4477 115.662 80.6026Z" fill="#00F468" fill-opacity="0.976471"/>
<path d="M102.981 54.1213L103.961 43.6769L104.942 40.8284C106.1 41.1987 106.766 43.9712 107.159 47.2375L107.885 53.1718V59.8183C106.502 63.1225 105.943 63.4643 105.511 62.7902C105.129 62.2015 105.07 61.7173 105.374 61.7173C105.678 61.7173 105.923 61.4704 105.923 61.1665C105.923 60.8627 105.374 60.7962 104.697 61.0336C104.02 61.271 103.471 61.4134 103.471 61.347C103.471 61.29 103.363 59.6379 103.226 57.6819L102.981 54.1213Z" fill="#1CA04F" fill-opacity="0.968627"/>
<path d="M410.207 145.083C414.061 143.82 414.414 143.573 413.512 142.69C413.12 142.32 411.835 142.481 410.648 143.051C409.461 143.621 408.383 144.143 408.245 144.209C408.108 144.266 408 143.668 408 142.87C408 140.953 411.854 139.614 414.542 140.592C416.248 141.218 416.729 142.263 416.964 145.89C417.249 150.419 417.249 150.419 412.619 150.694C410.079 150.846 407.784 150.647 407.529 150.258C406.146 148.188 407.255 146.051 410.207 145.083ZM413.512 147.941C414.385 146.564 412.119 145.653 410.854 146.877C410.364 147.352 409.962 148.045 409.962 148.406C409.962 148.776 410.599 149.071 411.374 149.071C412.149 149.071 413.11 148.558 413.512 147.941Z" fill="black" fill-opacity="0.988235"/>
<path d="M51.716 146.697C49.9212 146.697 48.5677 143.07 49.6564 141.18C51.0098 138.845 52.834 139.215 53.55 141.978C54.0208 143.82 54.6092 144.247 56.051 143.801C59.0521 142.88 61.7492 148.653 59.1894 150.523C58.189 151.255 57.0415 151.872 56.6394 151.891C56.2373 151.91 55.2369 150.742 54.4131 149.308C53.599 147.874 52.3829 146.697 51.716 146.697Z" fill="#00D65B" fill-opacity="0.956863"/>
<path d="M311.61 141.047C315.219 143.345 314.562 146.222 310.414 146.222C308.53 146.222 306.981 146.659 306.981 147.2C306.981 148.719 309.609 149.337 311.571 148.273C313.836 147.048 314.484 147.665 312.885 149.526C312.199 150.315 310.6 150.97 309.315 150.97C308.03 150.97 306.324 150.476 305.51 149.878C300.665 146.279 306.51 137.819 311.61 141.047ZM306.981 144.323H310.904V142.424H306.981V144.323Z" fill="black" fill-opacity="0.988235"/>
<path d="M320.466 144.523C322.222 143.943 323.654 143.184 323.654 142.842C323.654 142.491 322.222 142.424 320.466 142.681C316.838 143.212 315.965 142.842 317.465 141.389C318.034 140.839 319.996 140.525 321.81 140.696C325.282 141.019 325.164 140.782 326.528 150.039C326.567 150.315 324.615 150.637 322.183 150.751C319.191 150.903 317.436 150.514 316.73 149.555C315.308 147.618 316.671 145.776 320.466 144.523ZM323.301 146.517C322.997 146.222 321.82 146.213 320.672 146.507C319.535 146.792 318.858 147.494 319.172 148.055C319.476 148.615 320.368 149.071 321.143 149.071C322.712 149.071 324.164 147.352 323.301 146.517Z" fill="black" fill-opacity="0.988235"/>
<path d="M452.135 140.525H453.547C453.792 140.525 454.116 142.339 454.283 144.561C454.675 149.735 457.372 150.267 457.843 145.273C458.47 138.626 460.962 138.826 460.962 145.52C460.962 150.523 460.962 150.523 457.039 150.742C454.802 150.875 452.704 150.457 452.154 149.783C450.889 148.216 450.879 140.525 452.135 140.525Z" fill="black" fill-opacity="0.988235"/>
<path d="M257.962 144.959C257.942 139.12 260.257 139.3 260.698 145.168C261.13 150.846 264.18 150.371 264.621 144.551C264.788 142.339 265.337 140.525 265.847 140.525H267.309C267.613 140.525 267.721 142.747 267.554 145.463C267.26 150.39 267.26 150.39 263.091 150.685C260.796 150.837 258.707 150.647 258.452 150.257C258.187 149.868 257.962 147.485 257.962 144.959Z" fill="black" fill-opacity="0.988235"/>
<path d="M376.615 152.679C379.008 151.824 379.018 152.109 376.576 146.137C375.478 143.44 374.742 141.066 374.948 140.877C376.105 139.756 377.41 140.962 378.44 144.086C379.616 147.646 379.617 147.646 381.097 144.371C384.501 136.803 385.315 140.174 382.088 148.473C379.96 153.961 379.322 154.768 377.145 154.768C375.782 154.768 374.654 154.454 374.654 154.075C374.654 153.695 375.537 153.068 376.615 152.679Z" fill="black" fill-opacity="0.988235"/>
<path d="M331.225 140.896C332.304 140.839 333.677 140.506 334.276 140.155C334.864 139.794 336.247 140.373 337.345 141.437C340.258 144.257 340.003 150.97 336.992 150.97C336.669 150.97 336.404 149.251 336.404 147.143C336.404 144.504 335.913 143.136 334.835 142.728C332.814 141.978 331.529 143.972 331.52 147.884C331.51 149.583 331.059 150.97 330.519 150.97C329.98 150.97 329.509 150.751 329.47 150.495C328.675 145.149 329.44 140.991 331.225 140.896Z" fill="black" fill-opacity="0.988235"/>
<path d="M466.179 147.988C467.091 148.719 468.553 148.995 469.533 148.634C470.946 148.093 470.583 147.656 467.582 146.232C463.443 144.266 462.805 141.826 466.111 140.62C469.259 139.471 474.094 141.427 472.329 143.136C472.103 143.355 470.956 143.032 469.788 142.424C467.562 141.266 466.846 141.437 466.846 143.108C466.846 143.649 467.974 144.314 469.357 144.57C472.28 145.111 473.8 148.786 471.642 150.106C470.897 150.561 469.288 150.951 468.072 150.951C466.856 150.96 465.385 150.561 464.786 150.068C462.913 148.492 464.267 146.46 466.179 147.988Z" fill="black" fill-opacity="0.988235"/>
<path d="M129.462 75.01L127.745 77.9534C126.804 79.5771 125.48 81.2862 123.577 82.606C120.291 85.2171 120.115 85.0747 119.811 82.3116C119.458 79.0739 123.028 75.7601 127.431 75.2474L129.462 75.01Z" fill="#FCFCFC" fill-opacity="0.988235"/>
<path d="M368.789 146.061C368.779 144.152 368.22 142.329 367.543 142.025C366.562 141.589 366.562 141.361 367.543 140.924C368.22 140.62 368.769 139.547 368.769 138.55C368.769 137.544 369.152 136.727 369.622 136.727C370.956 136.727 373.84 141.893 372.702 142.263C371.005 142.814 371.496 149.071 373.241 149.071C374.085 149.071 374.497 149.498 374.163 150.02C373.83 150.542 372.702 150.97 371.653 150.97C370.603 150.97 369.534 150.647 369.279 150.258C369.014 149.868 368.789 147.979 368.789 146.061Z" fill="black" fill-opacity="0.988235"/>
<path d="M178.745 31.5517C181.707 30.1179 181.952 30.1274 182.247 31.6181C182.423 32.5106 183.414 33.2323 184.453 33.2323C185.493 33.2323 186.346 33.745 186.346 34.3812C186.346 35.7389 183.933 37.2012 182.188 36.9068C181.511 36.7929 179.961 36.9828 178.745 37.3341C177.529 37.6949 176.323 37.6569 176.068 37.2676C174.744 35.2927 175.832 32.9569 178.745 31.5517Z" fill="#00D65B" fill-opacity="0.956863"/>
<path d="M190.416 41.8726C194.359 40.5434 194.192 40.5054 194.192 42.6987C194.192 43.99 194.653 44.3983 195.703 44.009C197.733 43.2494 198.655 44.2844 197.331 45.8225C196.752 46.5062 194.477 47.3702 192.29 47.7405C190.103 48.1203 188.092 48.1013 187.837 47.712C186.346 45.4807 187.513 42.8506 190.416 41.8726Z" fill="#00D65B" fill-opacity="0.956863"/>
<path d="M47.8125 44.6263C46.5963 43.6768 46.9886 41.5879 48.3028 42.0247C48.9796 42.2525 49.8426 41.6449 50.235 40.6859C51.049 38.635 51.0588 38.635 54.4326 39.8788C56.4825 40.6289 56.9532 41.36 56.708 43.4014C56.5315 44.8162 55.845 46.098 55.1682 46.2499C54.4915 46.4018 52.7261 46.2309 51.2451 45.8606C49.7642 45.4998 48.2146 44.9491 47.8125 44.6263Z" fill="#00D65B" fill-opacity="0.956863"/>
<path d="M61.9355 34.818C60.9646 35.0649 59.6601 34.6566 59.0226 33.916C57.4044 32.0265 57.5809 31.02 59.415 31.7037C61.6707 32.5487 61.7884 32.4728 61.7884 30.3174C61.7884 28.7318 62.2003 28.4754 63.9951 28.9976C67.3101 29.9566 68.9873 31.9031 68.389 34.1059C68.0948 35.1978 67.3788 36.0809 66.7805 36.0809C66.1921 36.0809 65.2505 35.7011 64.7013 35.2263C64.1423 34.7611 62.8967 34.5807 61.9355 34.818Z" fill="#00D65B" fill-opacity="0.956863"/>
<path d="M144.173 161.414V160.465L147.115 156.667C148.655 156.296 150.195 157.151 151.539 158.328L153.981 160.465C153.981 163.323 153.549 164.405 153.02 164.728C151.48 165.649 148.096 163.408 148.096 161.462C148.096 160.028 147.714 159.848 146.135 160.55L144.173 161.414Z" fill="#FCFCFC" fill-opacity="0.988235"/>
<path d="M201.44 136.471C204.353 137.012 204.579 138.009 202.578 141.712C201.803 143.146 200.705 144.323 200.136 144.323C199.567 144.323 198.351 143.621 197.448 142.757C194.898 140.345 197.792 135.797 201.44 136.471Z" fill="#00D65B" fill-opacity="0.956863"/>
<path d="M89.25 152.869C85.9841 151.388 87.0629 149.071 89.3579 149.071C90.5544 149.071 91.2116 148.406 91.2116 147.172V145.273C91.2116 141.342 91.5156 141.266 93.9087 142.662L95.1346 143.374C92.4669 147.969 92.4669 148.33 93.7125 148.672L95.1346 149.071V150.02C93.2319 151.046 92.3492 151.473 91.9471 151.634L91.2116 151.919L89.25 152.869Z" fill="#8CEAB5" fill-opacity="0.988235"/>
<path d="M102.981 110.141L101.019 108.242V106.343C103.991 104.568 105.756 103.922 106.855 103.77L108.865 103.495L110.827 106.343L102.981 110.141Z" fill="#00D65B" fill-opacity="0.956863"/>
<path d="M103.962 43.6768L102.981 54.1212C97.5866 49.4592 97.5866 49.4592 100.774 46.5632L103.962 43.6768Z" fill="black" fill-opacity="0.988235"/>
<path d="M130.442 145.273L129.462 143.374V138.626C130.217 137.259 131.011 137.259 131.894 137.772L133.385 138.626C135.091 141.845 135.238 141.826 136.405 140.079C137.651 138.199 138.975 139.414 137.857 141.418L137.308 142.424C133.571 141.722 132.669 142.158 132.159 143.431L131.423 145.273H130.442Z" fill="#8CEAB5" fill-opacity="0.988235"/>
<path d="M144.173 160.465L144.183 158.803C144.193 155.546 142.839 154.084 141.231 158.566L139.269 156.667C139.465 150.761 139.74 150.656 142.506 152.631L144.173 153.818H145.154L147.115 156.667L144.173 160.465Z" fill="#D3F7E2" fill-opacity="0.988235"/>
<path d="M63.495 149.308C65.2898 148.729 67.0258 153.704 65.6135 155.356C64.9956 156.078 64.1031 156.667 63.6323 156.667C63.1517 156.667 62.5142 156.069 62.2004 155.328C61.3373 153.324 62.1121 149.745 63.495 149.308Z" fill="#00D65B" fill-opacity="0.956863"/>
<path d="M179.383 151.501C181.148 150.447 182.217 151.008 182.815 153.305C183.198 154.777 182.874 156.173 181.942 157.103C180.775 158.252 180.256 158.309 179.5 157.379C178.294 155.879 178.216 152.204 179.383 151.501Z" fill="#00D65B" fill-opacity="0.956863"/>
<path d="M362.885 140.525H364.846V150.97H362.885V140.525Z" fill="black" fill-opacity="0.988235"/>
<path d="M123.577 82.606C125.48 81.2862 126.804 79.5771 127.745 77.9534L129.462 75.01L130.442 77.8585L127.5 82.606C125.46 84.7423 125.068 84.7423 124.401 83.7928L123.577 82.606Z" fill="#112319" fill-opacity="0.988235"/>
<path d="M158.885 158.566V157.616L159.591 157.198C159.973 156.961 159.757 156.325 157.904 154.768C160.287 154.768 160.846 153.875 160.846 152.394V150.02C162.749 152.014 163.847 152.66 164.524 152.736C165.201 152.812 165.75 153.116 165.75 153.41C165.75 153.714 164.975 153.79 164.034 153.59C161.729 153.087 161.327 153.533 161.601 156.258L161.827 158.566H158.885Z" fill="#8CEAB5" fill-opacity="0.988235"/>
<path d="M140.25 144.323L141.231 143.374L143.192 145.273C147.547 149.754 147.635 150.419 145.478 149.612C144.575 149.28 143.526 149.498 143.143 150.087C142.251 151.492 141.044 149.726 141.702 147.969C141.966 147.267 141.741 146.165 141.211 145.51L140.25 144.323Z" fill="#D3F7E2" fill-opacity="0.988235"/>
<path d="M118.673 137.677C120.792 137.677 121.645 137.06 121.949 136.309C122.341 135.303 123.018 135.18 124.499 135.835L126.519 136.727C124.715 139.842 124.214 139.899 121.635 138.864L118.673 137.677Z" fill="#939393" fill-opacity="0.988235"/>
<path d="M103.55 97.9119C104.805 99.7824 104.805 100.172 103.589 100.836C102.804 101.254 101.912 101.596 101.598 101.596C101.274 101.596 100.656 100.637 100.225 99.4596C99.0478 96.3073 101.657 95.0919 103.55 97.9119Z" fill="black" fill-opacity="0.988235"/>
<path d="M142.211 161.414L141.231 158.566C142.839 154.084 144.193 155.546 144.183 158.803L144.173 160.465V161.414H142.211Z" fill="#00D65B" fill-opacity="0.956863"/>
<path d="M118.673 161.414L117.692 159.515C117.722 156.904 119.036 154.768 119.889 154.768C121.086 154.768 121.096 159.638 119.899 160.512L118.673 161.414Z" fill="#00D65B" fill-opacity="0.956863"/>
<path d="M87.2885 158.566L88.2692 157.616L91.2115 160.465L92.1923 163.313C89.5736 162.943 88.4752 161.879 88.0535 160.702L87.2885 158.566Z" fill="#FCFCFC" fill-opacity="0.988235"/>
<path d="M129.658 155.242C130.55 152.394 130.55 152.394 131.511 154.701C132.041 155.973 132.257 157.578 131.982 158.262C131.708 158.955 131.031 159.515 130.472 159.515C129.913 159.515 129.305 159.192 129.109 158.803C128.922 158.414 129.167 156.809 129.658 155.242Z" fill="#00D65B" fill-opacity="0.956863"/>
<path d="M155.942 157.616L153.981 151.919L154.961 150.97L157.904 154.768C159.757 156.325 159.973 156.961 159.591 157.198L158.885 157.616H156.923H155.942Z" fill="#FCFCFC" fill-opacity="0.988235"/>
<path d="M103.962 147.172V144.323C103.962 140.174 104.952 139.956 106.09 141.95L106.904 143.374L105.923 147.172H103.962Z" fill="#8CEAB5" fill-opacity="0.988235"/>
<path d="M144.173 153.818C145.752 151.682 146.811 151.283 147.537 151.549C148.273 151.824 149.224 151.511 149.646 150.846C150.264 149.878 150.499 149.887 150.842 150.884C151.343 152.328 149.361 153.78 146.87 153.799L145.154 153.818H144.173Z" fill="#8CEAB5" fill-opacity="0.988235"/>
<path d="M105.923 149.071L106.904 147.172C110.219 148.501 111.258 153.923 109.326 153.201C108.532 152.907 107.885 151.853 107.885 150.865C107.885 149.878 107.443 149.071 106.904 149.071H105.923Z" fill="#8CEAB5" fill-opacity="0.988235"/>
<path d="M156.923 146.222V143.374L158.149 142.738C158.826 142.386 159.483 142.386 159.865 143.374C160.248 144.808 159.807 145.88 159.13 146.669L157.904 148.121L156.923 146.222Z" fill="#8CEAB5" fill-opacity="0.988235"/>
<path d="M91.2115 160.465L92.1923 155.717H93.1731L94.1539 160.465V161.414L91.2115 160.465Z" fill="#00D65B" fill-opacity="0.956863"/>
<path d="M143.192 145.273L141.231 143.374C141.652 141.665 142.525 141.665 144.418 142.367L147.115 143.374L143.192 145.273Z" fill="#8CEAB5" fill-opacity="0.988235"/>
<path d="M90.2308 155.717L89.25 152.869L91.2115 151.919L94.1538 154.768L93.1731 155.717H92.1923H90.2308Z" fill="#FCFCFC" fill-opacity="0.988235"/>
<path d="M117.692 144.323H118.673L121.615 147.172L120.635 149.071C119.605 150.685 119.173 150.02 118.369 146.934L117.692 144.323Z" fill="#D3F7E2" fill-opacity="0.988235"/>
<path d="M117.692 150.97L116.711 153.818C115.574 151.245 114.809 150.201 114.289 149.83C113.75 149.46 113.71 148.843 114.191 148.406C114.671 147.988 115.642 148.397 116.368 149.308L117.692 150.97Z" fill="#D3F7E2" fill-opacity="0.988235"/>
<path d="M119.654 145.273L118.673 144.323C118.673 140.183 118.771 140.155 120.144 141.712L121.615 143.374L119.654 145.273Z" fill="#8CEAB5" fill-opacity="0.988235"/>
<path d="M165.681 139.139C166.947 138.379 168.133 140.497 167.035 141.56C166.544 142.035 165.838 142.424 165.456 142.424C165.083 142.424 164.769 141.807 164.769 141.057C164.769 140.307 165.181 139.443 165.681 139.139Z" fill="#00D65B" fill-opacity="0.956863"/>
<path d="M92.1923 163.313L91.2115 160.465L94.1539 161.414V164.263L92.1923 163.313Z" fill="#8CEAB5" fill-opacity="0.988235"/>
<path d="M155.942 159.515L156.923 157.616H158.885V158.566C156.952 161.006 156.354 161.205 156.197 160.569L155.942 159.515Z" fill="#00D65B" fill-opacity="0.956863"/>
<path d="M88.2693 157.616L90.2308 155.717H92.1924L91.2116 160.465L88.2693 157.616Z" fill="#D3F7E2" fill-opacity="0.988235"/>
<path d="M94.1539 160.465L93.1731 155.717L94.1539 154.768L95.1346 157.616L94.1539 160.465Z" fill="#D3F7E2" fill-opacity="0.988235"/>
<path d="M82.3846 150.02H84.3462V153.818H82.3846V150.02Z" fill="#8CEAB5" fill-opacity="0.988235"/>
<path d="M127.5 82.6061L130.442 77.8586C130.825 79.3019 130.158 80.3653 129.216 81.1629L127.5 82.6061Z" fill="#FCFCFC" fill-opacity="0.988235"/>
<path d="M81.4038 158.566C84.3755 156.429 84.7678 156.429 85.013 157.379L85.3269 158.566H81.4038Z" fill="#FCFCFC" fill-opacity="0.988235"/>
<path d="M132.404 151.919C135.081 149.669 135.248 150.087 134.238 152.631L133.385 154.768L132.404 151.919Z" fill="#8CEAB5" fill-opacity="0.988235"/>
<path d="M157.904 148.121L160.846 150.02C157.884 151.729 157.58 151.435 157.786 149.308L157.904 148.121Z" fill="#FCFCFC" fill-opacity="0.988235"/>
<path d="M103.962 147.172H105.923H106.904L105.923 149.071C104.952 150.172 104.511 149.745 104.315 148.833L103.962 147.172Z" fill="#FCFCFC" fill-opacity="0.988235"/>
<path d="M129.462 147.172L130.442 145.273H131.423C133.924 146.564 131.766 147.874 130.197 147.4L129.462 147.172Z" fill="#FCFCFC" fill-opacity="0.988235"/>
<path d="M156.923 143.374V141.475H159.865V143.374C159.483 142.386 158.826 142.386 158.149 142.738L156.923 143.374Z" fill="#D3F7E2" fill-opacity="0.988235"/>
<path d="M120.635 149.071L121.615 147.172C124.244 149.09 123.273 150.438 121.704 149.621L120.635 149.071Z" fill="#8CEAB5" fill-opacity="0.988235"/>
<path d="M111.808 145.273L115.731 143.374C113.338 145.852 112.455 146.279 112.22 145.928L111.808 145.273Z" fill="#8CEAB5" fill-opacity="0.988235"/>
<path d="M154.962 150.97L153.981 151.919C152.451 150.21 152.264 149.469 152.568 149.166C152.882 148.871 153.549 149.156 154.049 149.792L154.962 150.97Z" fill="#8CEAB5" fill-opacity="0.988235"/>
<path d="M95.1346 150.02V149.071C96.6548 148.719 97.0962 149.432 97.0962 150.419C97.0962 151.71 96.8216 151.9 96.1154 151.112L95.1346 150.02Z" fill="#D3F7E2" fill-opacity="0.988235"/>
<path d="M154.962 159.515L155.942 157.616H156.923L155.942 159.515H154.962Z" fill="#D3F7E2" fill-opacity="0.988235"/>
<path d="M129.462 147.172V143.374L130.442 145.273L129.462 147.172Z" fill="#D3F7E2" fill-opacity="0.988235"/>
<path d="M101.019 108.242L102.981 110.141V111.091L101.019 108.242Z" fill="#1CA04F" fill-opacity="0.968627"/>
</g>
<defs>
<clipPath id="clip0_52_14">
<rect width="510" height="188" fill="white"/>
</clipPath>
</defs>
</svg>
