<svg width="120" height="104" viewBox="0 0 120 104" fill="none" xmlns="http://www.w3.org/2000/svg">
<path fill-rule="evenodd" clip-rule="evenodd" d="M107.952 82.4134C107.182 83.0169 106.82 83.8912 106.665 84.8741C106.58 85.4163 106.085 85.4905 105.713 85.5857C105.39 85.6686 105.093 85.6794 104.832 85.9453C104.725 86.0554 104.388 86.0795 104.247 85.9933C103.795 85.7179 103.311 85.5166 102.894 85.1492C101.426 83.8569 100.349 82.2585 99.3413 80.6278C98.3132 78.9639 97.2371 77.3179 96.4497 75.5132C96.2049 74.9515 96.195 74.9561 96.8113 74.5199C97.3125 75.473 97.7797 76.4406 98.3207 77.3651C98.7498 78.0986 99.2688 78.7788 99.7915 79.5463C99.9145 79.2373 99.9116 79.0393 99.7207 78.7638C98.681 77.262 97.694 75.7261 96.9112 73.9674C97.0362 73.8858 97.1874 73.7868 97.3378 73.6891C97.3726 73.7189 97.45 73.786 97.5826 73.9007V73.2744C97.9541 73.2003 98.2909 73.1336 98.7291 73.0466C99.0708 73.2061 99.2332 73.8108 99.7957 73.8858C99.7774 74.4976 100.312 74.8024 100.581 75.2494C100.914 75.8036 101.366 76.2861 101.686 76.6957C102.047 76.6477 102.317 76.5972 102.59 76.5781C103.547 76.511 103.523 76.5412 104.119 77.0669C104.782 77.6509 105.235 78.4681 106.089 78.8392C106.144 78.8628 106.205 78.9465 106.208 79.0049C106.235 79.6196 106.579 79.8428 107.156 79.992C107.64 80.1175 107.778 80.6278 107.801 81.1298C107.818 81.5146 107.889 81.8969 107.952 82.4134" fill="#03548A"/>
<path fill-rule="evenodd" clip-rule="evenodd" d="M22.5369 11.0211C23.222 11.364 23.222 11.364 23.5906 10.6462C24.0591 10.4855 24.6253 10.809 25.049 10.3787C25.5257 10.4975 25.9963 10.6591 26.4801 10.7258C27.2612 10.833 27.6647 11.4374 28.1058 11.946C28.4053 12.2914 28.7188 12.6381 28.9926 13.0134C29.3128 13.4524 29.6955 13.8451 30.0169 14.2829C30.3081 14.6797 30.557 15.1084 30.8155 15.5284C30.8872 15.6452 30.9791 15.7873 30.9688 15.9099C30.941 16.2363 31.0541 16.4562 31.286 16.6903C31.7321 17.1401 31.6973 17.8003 31.8522 18.362C31.996 18.8855 31.9135 19.4824 31.8672 20.042C31.8498 20.2557 31.8216 20.7117 31.3511 20.3754C31.3179 20.3514 31.1535 20.5266 31.0404 20.5929C30.9211 20.6624 30.7173 20.7954 30.6751 20.7585C30.1789 20.3228 30.0579 20.6343 29.8309 21.0651C29.4971 21.6992 29.2933 21.6524 28.397 21.4925C27.8515 21.3948 27.2733 21.3778 26.9539 20.9043C26.0903 19.6245 25.2056 18.3533 25.0859 16.7172C25.0382 16.0615 24.8551 15.3772 24.3142 14.9059C23.8482 14.4995 23.5388 13.9188 22.9026 13.6923C22.7108 13.6239 22.5704 13.3953 22.4213 13.2267C22.1044 12.8672 21.9342 12.4675 21.9259 11.9617C21.9172 11.4365 22.3322 11.3189 22.5369 11.0211" fill="#03548A"/>
<path fill-rule="evenodd" clip-rule="evenodd" d="M95.7508 53.8002C95.1916 53.241 94.7223 52.6934 94.1752 52.2395C92.6058 50.9372 91.8606 49.0948 90.922 47.3801C90.5004 46.6101 90.6209 45.7452 90.6392 44.9122C90.6425 44.7677 90.8421 44.6273 90.9589 44.4757C91.1184 44.7913 91.2679 45.087 91.4862 45.5186V43.9766C91.8147 43.8138 92.139 43.7251 92.3602 43.5238C92.6348 43.2741 92.945 43.3234 93.1968 43.3867C93.4901 43.4605 93.7403 43.7053 94.0352 43.8925C93.8625 44.7018 94.181 45.3795 94.5757 46.0857C94.929 45.99 95.3461 46.241 95.6999 45.8782C95.7748 45.8011 96.0209 45.7949 96.1269 45.8587C96.9934 46.3802 98.0567 46.6569 98.4949 47.7272C98.5736 47.9202 98.661 48.1695 98.8192 48.2553C99.0578 48.3845 98.8436 48.7879 99.2533 48.8037C99.5905 48.8165 99.3751 49.1603 99.4355 49.3475C99.5105 49.5795 99.6128 49.8064 99.6534 50.0442C99.6907 50.2621 99.6613 50.4915 99.6613 50.7177C98.7939 51.4616 98.2364 52.4093 97.809 53.4651C97.1152 53.5777 96.411 53.6925 95.7508 53.8002" fill="#03548A"/>
<path fill-rule="evenodd" clip-rule="evenodd" d="M1.67152 1.1362C1.87737 0.855789 2.03767 0.62218 2.21536 0.401825C2.28039 0.321884 2.38063 0.265553 2.47382 0.213363C2.73933 0.0646652 2.92903 0.485079 3.22601 0.302002C3.45879 0.158689 3.73134 0.0298723 3.99684 0.0041918C4.2172 -0.0169325 4.544 0.24857 4.66246 0.163245C4.92631 -0.0268733 5.08412 -0.084033 5.31359 0.173186C5.35625 0.220405 5.5124 0.184784 5.60974 0.161174C6.32962 -0.0123762 6.32921 -0.0144473 6.71442 0.685139C6.76702 0.533541 6.81258 0.402653 6.89542 0.163659C7.00933 0.471825 7.12116 0.690937 7.16838 0.92289C7.22637 1.2062 7.24045 1.49987 7.25371 1.78981C7.26737 2.08141 7.2566 2.37425 7.42021 2.67455L7.52956 1.58851C7.56808 1.58685 7.60702 1.5852 7.64595 1.58396C7.66708 1.77614 7.70436 1.96833 7.7056 2.16094C7.71181 3.13762 7.66584 4.1168 7.72134 5.09017C7.77063 5.94881 7.62359 6.72626 7.13856 7.4362C6.95672 7.26224 6.78442 6.99839 6.57731 7.41922C6.35075 7.87898 5.98791 7.84419 5.51903 7.63336C5.44116 8.1333 5.40595 8.72271 4.57797 8.53425V7.28212C4.52288 7.27135 4.46737 7.26017 4.41229 7.24898C4.28098 7.67603 4.1501 8.10307 4.01507 8.54253C3.64518 8.29484 3.34199 8.03141 3.40205 7.51035C3.41862 7.36413 3.24797 7.20425 3.19288 7.04106C2.95471 6.33111 2.95844 6.32946 2.36903 6.31248C2.25637 6.30916 2.14371 6.31206 2.03104 6.31206H1.72163C1.43584 6.02626 1.1782 5.75165 0.902759 5.4965C0.315836 4.95431 0.129031 4.2365 0.0350071 3.49052C-0.0113834 3.12064 0.0685574 2.73419 0.0159539 2.36597C-0.0420343 1.96005 0.167137 1.66017 0.351871 1.37437C0.720096 0.804843 0.920983 0.788275 1.67152 1.1362" fill="#03548A"/>
<path fill-rule="evenodd" clip-rule="evenodd" d="M67.5463 10.0766C67.0646 10.4038 66.6006 10.7319 66.1173 11.0272C66.0705 11.0558 65.9023 10.8855 65.7209 10.7588C65.6099 10.958 65.5345 11.1407 65.4169 11.2898C65.2785 11.4658 65.1008 11.6108 64.9438 11.7728C64.6257 12.1004 64.3192 12.4653 63.8491 11.9674C63.8131 11.9297 63.7037 11.967 63.6296 11.9592C63.1015 11.902 62.5982 12.0337 62.0668 11.6087C61.6389 11.2666 61.0943 11.0301 60.6921 10.6101C60.3151 10.2158 59.925 9.84549 59.662 9.34513C59.2585 8.57679 58.8601 7.81714 59.0038 6.91543C59.0398 6.68928 59.1951 6.48176 59.3356 6.17898C59.6197 6.41176 59.8119 6.56916 60.0364 6.75348C60.2203 6.14336 60.1826 5.43425 60.748 4.89661C60.9696 5.06229 61.1837 5.22217 61.4509 5.42182V4.59797C62.1931 4.47123 62.8675 4.21608 63.6114 4.26081C64.038 4.28649 64.4066 4.42152 64.6767 4.6804C65.0238 5.01259 65.4488 5.25034 65.7321 5.67614C65.988 6.06135 66.338 6.38359 66.6069 6.7804C67.048 7.43277 67.1971 8.19531 67.5198 8.88951C67.6738 9.22046 67.5463 9.68271 67.5463 10.0766" fill="#03548A"/>
<path fill-rule="evenodd" clip-rule="evenodd" d="M19.7064 31.6716V34.0955C19.9313 33.4829 19.8924 32.8641 19.9115 32.2486C19.9189 32.0009 19.8017 31.6927 20.102 31.5448C20.4122 31.3916 20.7399 31.24 21.0745 31.1907C21.1897 31.1737 21.4088 31.4463 21.4742 31.6248C21.5446 31.8166 21.4904 32.0539 21.4904 32.2958C21.6776 32.2175 21.789 32.1268 21.8888 32.138C22.0951 32.1612 22.3784 32.3521 22.4841 32.2751C23.071 31.8431 23.7142 32.1268 24.321 32.0928C24.5957 32.0775 25.0111 32.261 25.1428 32.4838C25.4659 33.0327 26.1178 33.2004 26.4596 33.8461C26.4707 34.122 26.5072 34.4629 26.7938 34.8299C27.1695 35.3108 27.4901 35.908 27.3737 36.6118C27.3194 36.939 27.3642 37.2824 27.3642 37.6812C26.5942 38.1381 25.7931 38.5821 25.0252 39.0775C24.2216 39.5961 23.4906 39.2477 22.8067 38.8895C22.3076 38.6277 21.6378 38.5051 21.4693 37.808C20.3534 37.306 20.155 36.13 19.5594 35.2416C19.1588 34.6443 19.1713 33.9493 19.0578 33.3172C18.9642 32.7949 19.3328 32.1898 19.4968 31.6215C19.5668 31.638 19.6368 31.655 19.7064 31.6716" fill="#03548A"/>
<path fill-rule="evenodd" clip-rule="evenodd" d="M41.5634 43.8945C41.0879 43.419 40.5838 42.9149 40.0164 42.3475C40.0164 41.9718 39.9774 41.524 40.0362 41.0895C40.0586 40.928 40.2918 40.7648 40.4654 40.67C40.5312 40.6335 40.7006 40.7868 40.8241 40.8543C40.9881 40.5295 41.0842 40.0901 41.6388 40.1969C41.7419 40.2172 41.8881 40.2234 41.9585 40.1667C42.2348 39.943 42.5355 39.7148 42.8888 39.813C43.5222 39.9894 44.228 40.0926 44.7217 40.5295C45.6975 41.394 46.6254 42.3334 47.1112 43.5818C47.4007 44.3261 47.6621 45.0949 47.8021 45.8769C47.863 46.219 47.7706 46.6887 47.3809 46.9613C46.7393 47.4107 46.1217 47.8961 45.466 48.3236C45.2428 48.4689 44.928 48.5696 44.6674 48.5468C43.0259 48.4047 41.8562 47.6323 41.3712 45.7783C41.3004 45.5082 41.131 45.227 41.1674 44.9743C41.2204 44.6086 41.4201 44.2636 41.5634 43.8945" fill="#03548A"/>
<path fill-rule="evenodd" clip-rule="evenodd" d="M44.3798 84.7054C44.335 84.4788 44.2903 84.2527 44.2456 84.0261C44.2427 84.9249 43.2937 85.2612 43.087 86.0255C43.0133 86.2988 42.609 86.4206 42.4417 86.2686C42.1687 86.0217 41.9828 86.2019 41.8287 86.3021C41.419 86.5689 41.0711 86.5432 40.6528 86.2988C39.447 85.5939 38.2032 84.946 37.4924 83.6537C36.6358 83.1902 36.3853 82.2488 35.853 81.533C35.5941 81.1851 35.5117 80.7059 35.3311 80.2386C35.6459 79.7801 36.1032 79.9015 36.6561 80.1773C36.6027 79.9168 36.6172 79.677 36.5079 79.5291C36.3567 79.3257 36.5182 79.2458 36.604 79.2098C36.9933 79.047 37.3959 78.9277 37.7165 78.6204C37.7948 78.545 38.0164 78.5748 38.1539 78.6162C38.3995 78.6908 38.6099 78.8478 38.8829 78.6257C38.9603 78.5632 39.2122 78.6883 39.3704 78.7579C40.7302 79.3552 41.9608 80.104 42.766 81.4295C42.8745 81.6084 43.1189 81.7981 43.3016 81.9684C43.8256 82.455 43.9237 83.1641 44.3292 83.6889C44.5985 84.0381 44.5396 84.3446 44.3798 84.7054" fill="#03548A"/>
<path fill-rule="evenodd" clip-rule="evenodd" d="M112.947 32.04C112.976 31.8316 113.006 31.6229 113.039 31.3934C113.121 31.4531 113.194 31.4767 113.213 31.5226C113.503 32.2309 113.864 32.9098 114.034 33.6674C114.141 34.1437 114.277 34.5997 113.816 34.9709C113.502 35.2235 113.821 35.9492 113.114 35.9086C112.781 36.4433 112.248 36.3899 111.738 36.3535C111.622 36.7113 111.551 37.0601 111.4 37.3712C111.231 37.7216 110.69 37.8206 110.109 37.6549C109.977 37.6172 109.849 37.4884 109.727 37.4991C108.787 37.5812 108.789 37.5882 108.393 36.8468C108.196 36.4769 107.957 36.1236 107.804 35.7363C107.617 35.2641 107.328 34.9692 106.851 34.7654C106.143 34.4626 105.683 33.8488 105.561 33.1186C105.45 32.4575 105.76 31.8511 106.35 31.3748C106.642 31.7567 106.934 32.1373 107.343 32.6708C107.343 32.1249 107.337 31.7575 107.345 31.3905C107.352 31.0256 107.392 31.1002 107.969 30.84C108.382 30.6541 108.979 30.8794 109.217 30.307C109.624 30.2912 110.031 30.2763 110.439 30.2606C111.192 30.2307 111.859 30.3128 112.21 31.1494C112.349 31.4808 112.683 31.731 112.947 32.04" fill="#03548A"/>
<path fill-rule="evenodd" clip-rule="evenodd" d="M1.5815 37.5282C0.690137 37.3351 0.377001 36.7031 0.295817 36.1476C0.191853 35.4373 -0.0487983 34.741 0.00877567 33.99C0.0833319 33.0179 0.0779473 32.0317 0.00504786 31.0596C-0.0301592 30.5878 0.272622 30.2386 0.26558 29.7975C0.263924 29.6828 0.423391 29.4608 0.498776 29.4653C1.08031 29.4984 1.35659 28.8689 1.96629 28.8651C2.37014 28.8631 2.77191 28.4845 3.22505 28.2476C3.67156 28.6941 4.62132 28.1419 4.98333 29.1265C4.74641 29.8182 5.33665 30.4258 5.5367 31.1345C5.56446 31.2335 5.66842 31.3218 5.66925 31.4154C5.67878 32.5316 5.67505 33.6475 5.67505 34.8599C5.49446 34.6996 5.41617 34.6304 5.22191 34.4577C5.2828 34.7199 5.2712 34.9208 5.36067 34.9887C5.45594 35.0616 5.65682 34.9808 5.79185 35.026C5.85315 35.0463 5.88588 35.2082 5.8925 35.3084C5.89582 35.3544 5.79599 35.4559 5.75954 35.4484C5.48617 35.395 5.21653 35.3205 4.9212 35.2467C4.71949 35.6833 4.5041 36.1493 4.34339 36.4976C4.03564 36.4748 3.85173 36.4608 3.66824 36.4471C3.99008 36.7718 3.6202 36.8886 3.48641 37.0883C3.35014 37.2908 3.25031 37.5178 3.14221 37.7195C2.43144 37.6425 2.16635 37.1844 1.97623 36.5776C1.84162 36.9023 1.72025 37.1935 1.5815 37.5282" fill="#03548A"/>
<path fill-rule="evenodd" clip-rule="evenodd" d="M84.7326 89.4748C84.1481 89.4583 83.5952 89.3004 83.3127 89.9483C82.8355 89.3195 82.7792 88.8734 83.2651 88.3739C83.6006 88.0293 83.8217 87.5989 84.2492 87.3011C84.6232 87.0402 84.7607 86.4632 85.083 86.0958C85.3307 85.8133 85.7026 85.6393 86.0195 85.4177C86.1185 85.5142 86.2254 85.6194 86.3939 85.7847C86.215 85.9119 86.0394 86.037 85.8633 86.1616C85.8828 86.2068 85.9027 86.2519 85.9222 86.2971C86.1798 86.2565 86.437 86.2159 86.7265 86.1703C86.8036 86.2859 86.893 86.5825 87.0848 86.6823C88.2367 87.282 88.9719 88.2832 89.6719 89.3108C89.9018 89.648 89.9809 90.0841 90.1657 90.4573C90.6217 91.3797 90.7393 91.55 90.6006 92.3883C90.5003 92.9943 90.3897 93.6404 89.9138 94.1342C89.7258 94.3288 89.5253 94.6101 89.5154 94.8594C89.4905 95.489 89.1446 95.5897 88.636 95.5574C88.4939 95.5483 88.3436 95.5665 88.2052 95.6038C87.318 95.8423 87.2265 95.8175 86.7841 95.1374C86.1288 94.1304 85.8157 92.979 85.4346 91.8598C85.1654 91.0691 84.96 90.256 84.7326 89.4748" fill="#03548A"/>
<path fill-rule="evenodd" clip-rule="evenodd" d="M70.3682 77.082C69.7407 76.7258 69.1053 76.4139 68.5938 75.8982C67.6407 74.9356 66.6176 74.0339 65.7383 73.0083C64.8138 71.9302 63.835 70.8673 63.2771 69.6032C63.3359 69.1041 63.9862 69.6342 63.9986 69.0452C64.0024 68.8771 64.4145 68.7147 64.6431 68.5552C65.2106 68.1593 65.5275 68.093 65.9408 68.5329C66.3488 68.9674 66.8206 69.1231 67.3545 69.2362C68.1792 69.411 68.7483 70.0443 69.4541 70.4341C70.2092 70.8507 70.7472 71.5218 71.3607 72.1045C71.6783 72.4061 72.0731 72.6376 72.346 72.9715C72.6206 73.3074 72.8729 73.7112 72.9702 74.1242C73.0291 74.3756 72.8402 74.755 72.648 74.9791C72.4107 75.2554 72.2984 75.6542 71.883 75.788C71.6427 75.8651 71.6767 76.1335 71.6299 76.3547C71.576 76.6086 71.5052 76.9176 71.0645 76.5986C70.7563 76.3762 70.497 76.6918 70.3682 77.082" fill="#03548A"/>
<path fill-rule="evenodd" clip-rule="evenodd" d="M115.845 70.5486C114.558 70.0185 114.004 69.0327 113.454 68.0746C112.971 67.2325 112.53 66.3557 112.171 65.454C111.812 64.5535 111.187 63.7002 111.466 62.567C112.28 63.1344 112.213 64.2192 112.995 64.9445C112.852 63.7972 112.256 62.9108 111.959 61.7021C112.37 61.9275 112.519 62.0091 112.702 62.1089C112.737 61.9121 112.774 61.7059 112.81 61.5004C113.151 61.4358 113.487 61.372 113.883 61.2966C113.989 61.4648 114.126 61.7133 114.291 61.9436C114.93 62.8395 114.934 62.8354 116.095 63.2483C116.225 63.2947 116.346 63.3701 116.464 63.4447C117.363 64.013 118.182 64.6533 118.677 65.6412C118.86 66.0065 119.11 66.6775 119.099 67.0665C119.096 67.1576 119.172 67.2644 119.239 67.3415C119.408 67.5374 119.331 67.7043 119.157 67.8033C118.649 68.0895 118.429 68.6528 117.979 68.99C117.786 69.1337 117.752 69.3251 117.717 69.5624C117.669 69.8855 117.035 70.3043 116.741 70.2363C116.558 70.1941 116.44 69.8586 116.191 70.1059C116.06 70.2359 115.961 70.3975 115.845 70.5486Z" fill="#03548A"/>
<path fill-rule="evenodd" clip-rule="evenodd" d="M79.2643 44.2238C79.0671 44.2565 78.8604 44.2905 78.575 44.3377C78.6877 44.5489 78.7681 44.6989 78.8521 44.8563C78.3157 45.3926 77.7574 45.951 77.1817 46.5271C77.0889 46.5271 76.9754 46.5102 76.8685 46.5296C75.6015 46.7641 74.7578 46.045 74.054 45.1781C73.5044 44.5009 73.0318 43.7549 72.664 42.941C72.4345 42.4328 72.2295 41.9647 72.3935 41.2742C72.7779 42.1192 73.1204 42.8714 73.463 43.624C73.5239 43.6041 73.5847 43.5847 73.646 43.5648C73.6183 43.4215 73.6141 43.2678 73.5586 43.1361C73.3296 42.5918 73.0691 42.06 72.8533 41.5112C72.7576 41.268 72.5526 40.9653 73.0749 40.8522C73.236 40.8174 73.3304 40.4699 73.4534 40.264C73.5611 40.0834 73.6655 39.9008 73.7508 39.755C74.2789 39.7065 74.2839 40.1683 74.6132 40.3589C74.5366 40.0681 74.4599 39.7773 74.3589 39.3946C74.5279 39.2608 74.7536 39.0819 74.9794 38.9025C75.1218 39.0442 75.3107 39.2699 75.4859 38.8537C75.676 38.4038 75.9569 38.2286 76.4121 38.5239C76.4535 38.5509 76.5392 38.5716 76.5666 38.5492C77.0939 38.1147 77.4045 38.5476 77.6485 38.8797C78.2308 39.6738 78.505 40.6273 78.8538 41.5344C78.9358 41.7473 79.1143 42.2472 78.5137 42.2712C78.4798 42.2725 78.4537 42.4593 78.4243 42.5595C78.5494 42.5897 78.7415 42.6867 78.7892 42.6386C79.1259 42.301 79.3073 42.7418 79.2742 42.8192C79.0717 43.2951 79.541 43.7549 79.2643 44.2238" fill="#03548A"/>
<path fill-rule="evenodd" clip-rule="evenodd" d="M75.1738 20.1193C75.3064 20.2519 75.4393 20.3848 75.6411 20.5861C75.6779 20.2668 75.7086 20.0034 75.7421 19.7159C76.2069 19.6186 76.6861 19.496 77.1728 19.4239C77.4669 19.3804 77.7775 19.3816 78.0708 19.4268C78.2944 19.4616 78.1188 19.8783 78.5359 19.9147C78.8055 19.9383 79.0127 20.3964 79.2044 20.7154C79.3602 20.9743 79.127 21.5347 79.7184 21.5011C79.7387 21.8677 79.759 22.2347 79.7802 22.6012C79.7818 22.6369 79.7901 22.6721 79.7955 22.7077L81.4738 24.386C81.6536 24.386 81.8441 24.3628 82.026 24.3914C82.3064 24.4366 82.6083 24.7145 82.4646 24.8868C82.1448 25.2699 82.7181 25.5346 82.4907 25.8473C81.6171 26.1091 81.3417 26.1381 80.6309 26.0138C80.809 26.3986 80.964 26.7341 81.1586 27.1558C81.0451 27.2647 80.8956 27.5302 80.7482 27.5294C79.8174 27.5224 78.8379 27.7585 78.0082 27.0978C77.7833 26.9185 77.5116 26.778 77.3368 26.5589C76.9379 26.0594 76.5809 25.5263 76.2168 24.9995C76.0374 24.7398 75.8842 24.4614 75.7119 24.1963C75.4451 23.7859 75.5242 23.1944 75.0351 22.9007C75.1092 22.4028 74.8284 22.0263 74.649 21.5968C74.4051 21.0132 74.5563 20.4548 75.1738 20.1193" fill="#03548A"/>
<path fill-rule="evenodd" clip-rule="evenodd" d="M40.3117 3.37489C40.752 3.37489 41.0532 3.37447 41.3539 3.37489C41.7569 3.37572 42.1931 3.3082 42.2854 3.89057C42.2954 3.95518 42.4461 4.05418 42.5182 4.04382C42.9954 3.97299 43.1192 4.42406 43.4112 4.62246C44.2036 5.16092 44.3204 6.04773 44.5184 6.86785C44.6315 7.33548 44.4803 7.67098 43.948 7.9895C43.3507 8.34696 42.6031 8.56897 42.1931 9.21844C41.831 9.22548 41.5349 9.79169 41.112 9.33856C41.0507 9.27311 40.9148 9.25116 40.8142 9.25282C39.3885 9.28015 38.4963 8.46169 37.7512 7.37027C37.373 6.8169 36.8996 6.32234 36.7513 5.64098C36.6904 5.3614 36.6548 5.07477 36.6349 4.78939C36.6278 4.69578 36.6829 4.53341 36.7484 4.5098C37.322 4.30477 37.7391 3.8156 38.2954 3.61637C38.9813 3.37116 39.7149 3.29743 40.3117 3.37489" fill="#03548A"/>
<path fill-rule="evenodd" clip-rule="evenodd" d="M38.5008 58.1682C38.6661 58.4279 38.7874 58.6193 39.0235 58.9908C39.0766 58.5974 39.0969 58.4627 39.1122 58.3277C39.1619 57.88 39.1611 57.8808 39.7269 57.8232C39.7977 57.8158 39.9066 57.8253 39.9319 57.7851C40.1899 57.3784 40.5929 57.2645 40.9997 57.3871C41.4607 57.5258 41.9557 57.6998 42.3144 58.0021C43.714 59.1818 44.5374 60.7628 45.1769 62.4403C45.2854 62.7265 45.1922 63.0894 45.1922 63.4124C45.0245 63.3938 44.8928 63.3793 44.7606 63.3644C44.7892 63.7695 44.6977 64.0698 44.2238 64.1655C44.0818 64.1945 43.8875 64.4065 43.8734 64.5494C43.8258 65.0374 43.3246 64.7996 43.1498 65.0535C42.8706 64.6091 42.3902 65.1471 42.0762 64.8294C41.7755 64.5254 41.3638 64.291 41.165 63.9339C40.7271 63.1474 40.308 62.3289 40.0516 61.4723C39.9207 61.0341 39.7264 60.7429 39.3889 60.5441C38.8409 60.2223 38.4151 59.8143 38.1475 59.2344C37.9243 58.7502 37.9147 58.7548 38.5008 58.1682" fill="#03548A"/>
<path fill-rule="evenodd" clip-rule="evenodd" d="M59.672 45.0301C59.672 44.9178 59.6451 44.7617 59.6815 44.6217C59.7059 44.5281 59.8662 44.4643 59.8803 44.3744C59.8957 44.2763 59.7805 44.1636 59.7793 44.0567C59.7784 43.9619 59.9118 43.8455 59.8857 43.7755C59.8381 43.6467 59.7312 43.5274 59.6215 43.4379C59.5486 43.3783 59.4272 43.3774 59.2773 43.3368C59.3477 43.5816 59.4044 43.7788 59.4616 43.9764C59.0627 43.7332 58.6195 43.5394 58.8146 42.9533C58.9794 43.0237 59.1414 43.0937 59.3423 43.1799C59.4069 42.4745 58.7529 42.8415 58.501 42.5076C58.8697 42.5511 59.1153 42.2972 59.486 42.3465C59.6579 42.3693 59.8816 42.0039 60.145 41.7546C60.5107 42.0532 60.9208 42.3875 61.4004 42.7789C61.4473 42.4927 61.4808 42.2889 61.5214 42.0408C62.0636 41.936 62.6194 41.8287 63.1815 41.7202C63.4702 42.0889 63.6959 42.4252 63.971 42.7147C64.2096 42.9649 64.5376 43.1318 64.7675 43.3882C65.4161 44.1122 65.7102 45.0264 65.977 45.9306C66.0726 46.2541 66.1778 46.766 65.5594 46.8526C65.5623 47.4465 64.9361 47.5352 64.6536 47.9117C64.2994 48.3831 63.6732 48.4642 62.9972 48.1913C61.9849 47.7825 61.3197 46.9922 60.6731 46.2226C60.3496 45.837 59.9864 45.4733 59.672 45.0301" fill="#03548A"/>
<path fill-rule="evenodd" clip-rule="evenodd" d="M78.2878 59.6789C78.4701 59.741 78.6461 59.8007 78.8478 59.8694C78.8888 58.9193 77.9068 58.6529 77.7701 57.7781C77.9689 57.8659 78.1308 57.9032 78.2481 57.9964C78.4361 58.1464 78.5943 58.3327 78.8288 58.5672C78.7488 58.0908 78.6958 57.9815 78.4241 57.6555C79.0181 56.9373 79.0181 56.9373 79.7193 56.9348C80.1049 57.3693 80.4342 57.9417 80.9283 58.2433C81.4739 58.5767 81.6346 59.1458 82.0368 59.5538C82.4211 59.9444 82.6763 60.4762 82.931 60.9753C83.071 61.2487 83.1899 61.5979 83.1443 61.8853C83.0863 62.2486 82.9314 62.7825 82.6746 62.8856C82.2521 63.0559 82.3466 63.3545 82.2136 63.6113C82.0314 63.9622 81.782 64.3035 81.3247 64.3788C81.0576 64.4227 80.7395 64.6265 80.5436 64.5383C80.0668 64.3233 79.5743 64.0495 79.2218 63.6739C78.5566 62.9648 77.9618 62.1848 77.3927 61.3945C77.2498 61.1965 77.3157 60.8486 77.2734 60.4572C77.4631 60.6104 77.5385 60.6709 77.6984 60.7997C77.6156 60.2236 78.1192 60.026 78.2878 59.6789" fill="#03548A"/>
<path fill-rule="evenodd" clip-rule="evenodd" d="M72.3491 101.108C72.0405 100.938 71.8918 100.857 71.7477 100.777C71.4938 101.695 71.4308 101.742 70.6807 101.412C70.8787 101.873 71.0373 102.242 71.21 102.642C71.0141 102.756 70.8136 102.873 70.6111 102.99C70.2449 102.625 69.8734 102.253 69.4675 101.847C69.2231 102.397 69.8958 102.652 69.8295 103.183C69.226 103.267 68.876 102.857 68.5285 102.479C68.3388 102.273 68.2361 101.985 68.0406 101.786C67.1691 100.901 66.3862 99.9448 65.6564 98.9424C65.591 98.8526 65.5003 98.7805 65.4191 98.7026C64.9792 98.283 64.5182 97.8775 64.4855 97.1937C64.9245 96.9249 65.1577 97.3391 65.4564 97.5955C65.76 97.093 65.0575 97.0259 65.089 96.6556C65.1159 96.2091 65.9654 96.7787 65.7496 96.0488H66.9728C67.3228 96.2953 67.6777 96.5392 68.0257 96.7923C68.3748 97.0462 68.6055 97.4111 69.033 97.6178C69.448 97.8191 69.723 98.2938 70.0884 98.6156C70.3265 98.8256 70.4777 99.1143 70.8584 99.2088C71.1338 99.2767 71.2809 99.6946 71.6992 99.6408C71.8156 99.6255 72.0256 99.8359 72.0848 99.9854C72.1979 100.27 72.2327 100.586 72.3491 101.108" fill="#03548A"/>
<path fill-rule="evenodd" clip-rule="evenodd" d="M64.5874 25.5581C64.9759 25.5838 65.2443 25.3829 65.5997 25.6393C65.4191 25.7014 65.2882 25.7466 65.1453 25.7959C65.2787 26.2486 65.427 26.6984 65.5359 27.1574C65.5637 27.275 65.502 27.5074 65.4204 27.5417C64.9672 27.7331 64.8301 28.2206 64.4772 28.4878C64.3211 28.6062 64.087 28.6448 63.8828 28.6679C63.7805 28.6791 63.66 28.5246 63.5577 28.5354C63.433 28.5487 63.3187 28.6576 63.1874 28.7321C62.9936 28.0471 63.0035 28.0193 62.2401 27.7592C61.7833 27.6035 61.6884 27.1545 61.3645 26.872C61.292 27.0265 61.222 27.1756 61.1437 27.3429C61.0298 27.2236 60.838 27.1151 60.8385 27.0074C60.8443 25.6617 60.843 25.6314 60.2288 24.825C59.8825 25.4335 60.546 25.7855 60.5821 26.3807C60.4176 26.355 60.172 26.3741 60.1434 26.3041C59.8547 25.6024 59.4149 24.9397 59.8659 24.0981C60.0059 23.8367 60.0312 23.6996 60.3456 23.6942C60.5394 23.6913 60.7478 23.5774 60.9205 23.4681C61.3682 23.1852 61.7994 22.877 62.2778 22.551C62.3872 22.7142 62.4882 22.8654 62.4638 22.8285C62.8411 23.0916 63.2346 22.3833 63.2976 23.1218C63.3158 23.3314 63.7843 22.8314 63.7843 23.3803C63.7843 23.5923 64.174 23.8048 64.3699 24.0007C64.2999 24.1821 64.2337 24.3553 64.167 24.5284C64.2225 24.5669 64.278 24.6055 64.3339 24.644C64.4321 24.4572 64.5302 24.2704 64.6541 24.0355C64.8558 24.3785 64.973 24.5769 65.1267 24.8374C64.9598 25.0603 64.7738 25.3092 64.5874 25.5581" fill="#03548A"/>
<path fill-rule="evenodd" clip-rule="evenodd" d="M26.6178 59.2989C26.3577 58.9709 26.1519 58.7112 25.9232 58.4221C25.8068 58.6602 25.7327 58.8114 25.6362 59.0086C25.2017 58.8048 24.9092 58.4685 24.6603 58.1176C24.1103 57.3418 23.6849 56.4861 23.1274 55.7091C22.7844 55.2315 22.7641 54.6313 22.8995 54.01C23.4144 53.9056 23.5258 54.5108 23.9549 54.6636V53.5639C24.7659 53.4496 25.5475 53.3394 26.2641 53.2388C27.0159 53.9139 27.5108 54.6433 27.8617 55.4858C28.0621 55.9659 28.4751 56.3262 28.6006 56.8755C28.6503 57.0925 28.372 57.3845 28.7145 57.546C28.7203 57.5485 28.6126 57.8128 28.6093 57.8116C28.0501 57.6098 27.8621 58.4208 27.324 58.2908C27.2892 58.2821 27.194 58.49 27.1405 58.6039C27.0813 58.729 27.0548 58.8723 26.9819 58.9875C26.9281 59.0736 26.8237 59.1275 26.6178 59.2989" fill="#03548A"/>
<path fill-rule="evenodd" clip-rule="evenodd" d="M51.6376 72.9608C51.7991 73.3344 51.9167 73.6065 52.0849 73.9946C52.1918 73.7117 52.2411 73.5821 52.2933 73.4446C52.3438 73.4756 52.4266 73.4972 52.4374 73.5378C52.5393 73.925 52.7232 74.256 53.0028 74.5501C53.1701 74.7261 53.2911 74.9527 53.405 75.1709C53.6059 75.5574 53.8908 75.8212 54.3522 75.9033C54.4247 75.7566 54.4993 75.605 54.5341 75.5346C54.7478 75.6945 54.9802 75.8689 55.1533 75.9985C55.1533 76.1393 55.1682 76.1998 55.1512 76.211C54.9466 76.344 54.7375 76.4695 54.5465 76.5863C54.602 76.8949 54.6517 77.1744 54.7267 77.5932C54.3883 77.4288 54.2031 77.3385 53.9364 77.2084C53.7885 77.5058 53.6402 77.8049 53.4808 78.1263C53.3292 78.1433 53.1515 78.164 52.934 78.1884V78.6904C52.3666 79.1154 51.9022 79.0582 51.4102 78.6096C50.8742 78.1209 50.2699 77.7079 49.7231 77.126C49.953 76.974 50.175 76.8273 50.4186 76.6666C50.2943 76.211 50.0711 75.8043 49.7492 75.4066C49.4274 75.0086 49.2509 74.4925 49.0194 74.0443C49.3504 73.6363 49.6117 73.9383 49.9153 74.0659C49.9282 73.952 49.9808 73.8306 49.9447 73.7486C49.7182 73.2391 49.8163 72.9873 50.2964 72.9653C50.747 72.9442 51.1994 72.9608 51.6376 72.9608" fill="#03548A"/>
<path fill-rule="evenodd" clip-rule="evenodd" d="M19.488 77.4272C19.6773 77.7072 19.8318 77.9363 20.0248 78.2216C20.0749 78.0655 20.1437 77.9648 20.1279 77.8807C20.0509 77.4728 19.9511 77.0693 19.8467 76.6091H20.5032C20.56 76.7272 20.6295 76.8718 20.7671 77.158V76.2351C20.8955 76.19 21.0048 76.1763 21.0814 76.1196C21.2566 75.9891 21.5342 75.6929 21.5627 75.7161C21.8498 75.9522 22.2043 75.8097 22.4827 75.9166C22.8977 76.0757 23.292 76.3532 23.2866 76.8825C23.285 77.0407 23.0754 77.2168 23.1069 77.3497C23.1326 77.4578 23.4225 77.4819 23.5091 77.6041C23.5799 77.7039 23.5857 77.9715 23.5128 78.0299C23.22 78.2635 23.2846 78.5658 23.3045 78.8491C23.3297 79.2029 23.1748 79.4178 22.8608 79.5069C22.5253 79.6022 22.4471 79.8171 22.3766 80.1381C22.2768 80.5917 21.9658 80.8932 21.4397 80.8709C21.2579 80.8634 21.0694 80.8676 20.893 80.9061C20.444 81.0042 19.8782 80.8965 19.7382 80.5673C19.3965 79.7637 18.9019 79.0045 18.9939 78.0589C19.0299 77.6902 19.2519 77.5854 19.488 77.4272" fill="#03548A"/>
<path fill-rule="evenodd" clip-rule="evenodd" d="M55.713 57.105C55.9939 57.1874 56.2871 57.2731 56.6475 57.3788C56.8003 57.0147 56.8455 56.6651 56.5232 56.34C56.9192 55.98 57.1826 56.5226 57.5707 56.4638C57.6068 56.2679 57.6453 56.0616 57.6826 55.8595C57.9866 55.5339 58.2608 56.1345 58.6282 55.8512C59.0039 55.5613 59.0987 56.1871 59.4181 56.2588C59.5974 56.2989 59.7652 56.4858 59.8932 56.6431C60.3173 57.1634 60.3836 57.8994 60.9547 58.3538C61.0914 58.4623 61.0185 58.8355 61.0492 59.1673C60.4159 58.8562 60.3774 59.8611 59.7672 59.6229C59.5796 59.9265 59.7569 60.477 59.0705 60.5429C58.9981 60.4194 58.8846 60.226 58.723 59.9501C58.5855 60.2372 58.5188 60.3763 58.4505 60.5197C58.0661 60.6108 57.8901 60.2794 57.7637 60.0686C57.3442 59.3665 56.8007 58.8293 56.0978 58.4093C55.6654 58.1508 55.4281 57.7296 55.713 57.105" fill="#03548A"/>
<path fill-rule="evenodd" clip-rule="evenodd" d="M50.217 27.0933C49.6839 27.5108 49.2908 27.819 48.7834 28.217H47.8345C47.465 27.6827 47.3449 26.9798 46.8002 26.5387C46.7431 25.7948 46.2286 25.3338 45.7817 24.8152C45.6396 24.6499 45.6703 24.3359 45.6098 24.0286C45.773 23.983 45.9345 23.9864 46.019 23.9072C46.886 23.0966 47.7028 23.5523 48.3936 24.1052C48.9835 24.577 49.4813 25.2012 49.8993 25.8366C50.1362 26.1965 50.13 26.7164 50.217 27.0933" fill="#03548A"/>
</svg>
