<svg width="96" height="44" viewBox="0 0 96 44" fill="none" xmlns="http://www.w3.org/2000/svg">
<g clip-path="url(#clip0_53_112)">
<path d="M20.5791 33.731C19.9919 31.0318 20.2599 30.5138 22.2457 30.5209C23.9562 30.5256 24.0171 30.5847 24.8309 33.0615C26.3464 37.6768 30.6591 37.8495 32.1357 33.3549C33.2711 29.8987 31.9895 27.325 27.0116 23.0764C22.4479 19.1802 20.9543 16.3368 20.9543 11.5465C20.9543 -0.903643 35.6686 -1.44536 36.0926 10.9882C36.1462 12.5779 35.9586 12.7647 34.3139 12.7695C32.5669 12.7766 32.4256 12.6559 31.8944 10.6949C30.4861 5.51657 25.0965 6.23098 25.0965 11.5985C25.0965 14.5176 25.8762 15.7667 29.6772 18.9318C35.0108 23.3744 36.5482 26.1445 36.5482 31.311C36.5482 36.7045 34.482 40.2742 30.6445 41.509C29.6236 41.8379 28.6173 42.1075 28.4053 42.1075C28.1933 42.1075 27.2699 41.8426 26.3513 41.5209C23.2837 40.4445 21.522 38.0695 20.5791 33.731Z" fill="black"/>
<path d="M85.4619 41.1612L80.0406 41.0429C79.853 27.4762 79.8359 18.8276 79.8847 13.0698L79.9748 2.60205H93.7803C93.5683 6.36098 93.4562 7.53194 93.3978 7.62893C93.3393 7.72592 91.3511 7.80872 88.9803 7.81108C86.6095 7.81108 84.5482 7.89151 84.3971 7.9885C84.2168 8.10205 84.0804 9.9685 83.9902 13.5429L83.8587 18.9246C93.0445 18.9246 92.8325 18.8016 92.8325 21.7728V24.1289C85.4449 24.1289 84.5092 24.1999 84.2315 24.4696C83.7856 24.9025 83.9391 35.4861 84.3971 35.7747C84.5458 35.8717 86.7192 35.9522 89.2215 35.9522C94.5941 35.9569 94.3919 35.8623 94.6258 38.4762C94.7793 40.1984 94.75 40.3758 94.2189 40.9814C93.7218 41.5515 93.4757 41.6343 92.2672 41.6343C91.5046 41.6343 90.8832 41.5539 90.8832 41.4569C90.8832 41.3599 88.4443 41.2274 85.4619 41.1612Z" fill="black"/>
<path d="M7.73602 24.3657L7.6751 7.92481C1.36688 8.1117 1.37663 8.11879 1.54962 5.396C1.61784 4.31492 1.68119 3.24331 1.69094 3.01385C1.70556 2.62116 2.20505 2.59987 9.68526 2.65901L17.665 2.72051C17.816 8.27729 17.9135 8.20395 14.2319 7.94137C11.9561 7.77815 11.9391 7.78288 11.9025 8.3246C11.883 8.62503 11.8562 16.1547 11.8416 25.0564L11.8172 41.2418C8.58394 41.3766 8.00404 41.3128 7.91876 41.1022C7.85053 40.939 7.76769 33.4093 7.73602 24.3657Z" fill="black"/>
<path d="M48.6359 29.9531C46.5332 27.2374 44.8495 24.905 44.8958 24.7701C44.9421 24.6376 46.7232 25.7282 48.8528 27.1972C52.7269 29.868 52.7269 29.868 53.1606 29.305C53.3994 28.9951 54.7565 27.0103 56.1746 24.8908C59.5858 19.8024 63.5086 15.1611 68.3379 10.4961C74.4585 4.58452 76.7683 3.44431 72.0585 8.65807C65.6528 15.7478 57.6439 28.5693 55.0514 35.8789C54.8126 36.5531 54.5007 37.1634 54.3545 37.2391C54.2108 37.3148 53.7234 36.8181 53.2751 36.1344C52.8268 35.4508 50.7411 32.6688 48.6359 29.9531Z" fill="black"/>
<path d="M55.797 6.15065C55.1635 2.95 56.6571 1.93989 58.3724 2.96183C59.2715 3.49645 59.4445 3.70699 59.3153 4.11387C59.2276 4.38828 59.1131 4.95839 59.0595 5.38183L58.9645 6.15065L58.2335 6.38721C57.4831 5.90463 57.2784 5.90463 56.9543 6.1128L56.5279 6.38721L55.797 6.15065Z" fill="#FFCC00"/>
<path d="M40.2031 29.8065L40.4004 29.7473C40.5076 29.7142 40.7976 29.8822 41.0437 30.1164C41.2873 30.3529 41.6382 30.4878 42.1523 30.2796L43.1269 30.5162V31.2258C42.4154 33.563 39.4721 33.8682 39.4721 32.5719C39.4721 32.2005 39.304 31.6398 39.0969 31.3299C38.7411 30.7929 38.7582 30.7432 39.4623 30.2867L40.2031 29.8065Z" fill="#FFCC00"/>
<path d="M37.5228 24.6022L37.2792 23.6559L36.7919 22.2366L37.5228 21.2903C38.0906 21.1318 38.2538 20.8716 38.2538 20.6114C38.2538 19.7598 38.8337 19.7077 39.1651 20.531L39.4721 21.2903L39.8302 21.7043C40.1738 22.0994 40.1909 22.0994 40.203 21.2903C41.3141 21.2903 41.297 21.4606 40.5685 22.4731C40.242 22.9297 39.9716 23.4336 39.9667 23.5968L39.9594 23.8925L39.2284 24.129C38.5681 24.0391 38.1831 24.1456 37.9492 24.3065L37.5228 24.6022Z" fill="#FFCC00"/>
<path d="M56.7716 38.7957L56.2672 39.5645C55.4217 40.8537 55.7555 41.6344 57.1517 41.6344C58.3968 41.6344 58.9718 40.8301 58.3821 39.9146C58.2335 39.6828 58.0288 39.3374 57.7462 38.7957C59.6613 39.2853 59.6589 39.2759 59.1789 41.3126C58.8914 42.5309 58.8914 42.5309 57.1882 42.5238C55.2829 42.5167 55.2244 42.4954 55.4339 41.8804C55.5143 41.6367 55.3828 41.0311 55.1415 40.532C54.7005 39.6236 54.7005 39.6236 55.7361 39.2096L56.7716 38.7957Z" fill="#FFCC00" fill-opacity="0.556863"/>
<path d="M76.5076 24.3657C76.3346 24.0913 76.0057 23.9848 75.6646 23.9517L75.0457 23.8926L74.6778 23.1072C74.3513 22.4093 74.3513 22.2556 75.0457 21.0539C75.5184 19.9728 75.7547 19.6534 75.879 19.6463C76.1446 19.6321 76.1202 19.5919 76.3346 20.4033L76.5076 21.0539L76.8439 21.5861C77.1265 22.0308 77.185 22.0498 77.2094 21.7044C77.2264 21.4773 77.4018 21.2904 77.9696 21.2904C78.2303 21.4465 78.067 21.9268 77.7722 22.4567L77.2386 23.4194L76.5076 24.3657Z" fill="#FFCC00"/>
<path d="M71.8782 32.4087C71.8782 31.6754 71.771 31.4625 71.6394 31.4625C71.3616 31.4625 70.5405 30.3152 70.7062 30.1567C70.7671 30.0975 71.135 30.1803 71.5224 30.3412C72.1413 30.599 72.2363 30.5848 72.2973 30.2205L72.3655 29.8066L72.6701 30.0526C73.0477 30.3577 73.4205 30.353 73.8274 29.8066C74.1101 29.6315 74.2246 29.7734 74.266 30.01C74.305 30.2442 74.6071 30.5068 74.936 30.5943L75.533 30.7528L75.7767 31.2259C75.0554 31.4577 74.8483 31.7582 74.8313 32.0822L74.802 32.6453L71.8782 32.4087Z" fill="#FFCC00"/>
<path d="M67.4924 39.9785L67.3097 39.6379C67.2098 39.4486 66.798 39.2618 66.396 39.2239C65.6284 39.1482 64.895 38.0861 65.2995 37.1398C65.6358 37.1398 65.8039 36.8749 65.8867 36.5484C65.9793 36.1889 66.2132 35.957 66.4837 35.957C66.7273 35.957 67.0514 36.2243 67.2049 36.5484C67.3925 36.9506 67.6776 37.1398 68.0967 37.1398H68.7107H69.198V37.3764L68.7716 37.4615C68.5377 37.5089 68.428 37.6153 68.7107 37.8495L67.9797 38.0861L67.6751 38.2658C67.507 38.3628 67.4534 38.5757 67.7361 39.0323C68.6108 40.2624 68.2234 40.797 67.7239 40.2388L67.4924 39.9785Z" fill="#FFCC00"/>
<path d="M38.7411 12.5375H39.2284C39.8887 12.5091 40.2176 12.2418 40.3858 11.9272L40.6903 11.3547L41.1971 11.6504C41.4773 11.8137 41.6235 12.0266 41.5236 12.1236C41.4213 12.2205 41.4676 12.301 41.9086 12.301L42.3959 12.5375L42.5324 12.7859C42.6079 12.9231 42.525 13.375 42.3496 13.7913C42.1742 14.2076 42.0207 14.5767 42.0085 14.6098C41.9135 14.87 40.2566 14.2526 40.0081 13.8623C39.7084 13.3915 39.6987 13.401 39.9594 14.6666C39.9521 15.6294 39.9058 15.6625 39.7157 15.3762C39.5866 15.1823 39.4769 14.6831 39.4769 14.2715C39.4745 13.8599 39.3356 13.479 39.1675 13.4246C38.9994 13.3726 38.8361 13.1502 38.802 12.9326L38.7411 12.5375Z" fill="#FFCC00"/>
<path d="M46.5381 7.09682C45.3661 6.10327 45.4416 5.91402 46.3553 5.91402C46.7915 5.91402 47.174 5.80757 47.2081 5.67746L47.269 5.4409L48.4873 5.20435C48.7797 5.75316 49.055 5.91402 49.2865 5.91402H49.7056L49.9493 6.6237L49.2183 7.09682L49.0404 7.58886C48.826 8.18499 47.6418 8.13295 46.5381 7.09682Z" fill="#FFCC00"/>
<path d="M71.8782 13.4838C71.2179 13.2212 70.9986 13.0083 70.9645 12.8427L70.9036 12.5376H71.7564C72.2242 12.5376 72.6091 12.4311 72.6091 12.301C72.6091 12.1709 72.8626 12.0645 73.1744 12.0645C73.4863 12.0645 73.9249 12.1709 74.5584 12.5376H75.533L75.7767 13.0107L74.802 13.4838L74.4975 14.0161C74.2733 14.4088 73.9712 14.5483 73.3426 14.5483C72.7164 14.5483 72.4142 14.4088 71.8782 13.4838Z" fill="#FFCC00"/>
<path d="M56.7716 38.7956C57.0762 37.5655 57.3271 37.4307 57.4684 37.9061C57.5172 38.0694 57.6 38.3367 57.6512 38.4999L57.7462 38.7956C58.0289 39.3373 58.2335 39.6827 58.3822 39.9145C58.9718 40.83 58.3968 41.6343 57.1517 41.6343C55.7556 41.6343 55.4217 40.8537 56.2672 39.5644L56.7716 38.7956Z" fill="#FFCC00"/>
<path d="M46.5381 38.0861H46.2944V37.3764C46.7671 37.2818 47.04 37.0689 47.2081 36.8418L47.5127 36.4302L47.8392 36.4893C48.0195 36.5224 48.212 36.6786 48.2656 36.8371C48.3216 36.9956 48.4483 37.076 48.731 36.9033L49.7056 37.1399L49.9493 38.0861L49.2183 38.3226L49.0429 38.81C48.7943 39.496 47.3251 39.3706 46.5381 38.0861Z" fill="#FFCC00"/>
<path d="M65.2995 5.91404L65.7868 5.67748L67.005 5.44092L67.736 5.91404L68.004 6.14113C68.1965 6.30199 68.1259 6.60715 67.2487 8.04307H66.5177L66.0913 7.98393C65.8574 7.95081 65.6235 7.81834 65.5748 7.68823C65.5261 7.55812 65.3116 7.21748 65.0997 6.92888C64.8 6.52672 64.7805 6.35167 65.2995 5.91404Z" fill="#FFCC00"/>
<path d="M71.8781 13.4839C72.4142 14.4088 72.7163 14.5484 73.3425 14.5484C73.9711 14.5484 74.2733 14.4088 74.4974 14.0161L74.802 13.4839C75.4258 15.7312 75.1212 16.254 74.4877 15.6389C74.0467 15.2108 72.4264 15.3149 72.134 15.7903C71.6589 16.5592 71.2422 15.4733 71.5931 14.3781L71.8781 13.4839Z" fill="#FFCC00" fill-opacity="0.556863"/>
<path d="M65.2995 37.1398C64.895 38.086 65.6284 39.1482 66.396 39.2239C66.798 39.2617 67.2098 39.4486 67.3097 39.6379L67.4924 39.9785C66.5884 39.7443 66.1499 39.8673 65.6942 40.1914C64.6806 40.9082 64.5685 40.8301 64.5685 39.4037C64.5685 38.3723 64.4857 38.105 64.1446 38.0411C63.84 37.9843 63.7377 37.7691 63.7791 37.2747C63.8546 36.4065 63.8327 36.4183 64.6295 36.811L65.2995 37.1398Z" fill="#FFCC00" fill-opacity="0.556863"/>
<path d="M46.5381 38.0859C47.3251 39.3705 48.7943 39.4958 49.0429 38.8098L49.2183 38.3225C49.2183 38.7507 49.3011 38.7956 49.401 38.6963C49.5009 38.5993 49.6788 38.9092 49.7958 39.387C50.0857 40.5722 49.7227 40.8584 48.882 40.1038C48.0439 39.3468 46.7817 39.2735 46.7817 39.9784C46.7817 40.2386 46.7013 40.4515 46.6014 40.4515C46.3237 40.4515 46.0703 39.6638 46.2213 39.2687C46.2944 39.0748 46.3968 38.727 46.4479 38.4999L46.5381 38.0859Z" fill="#FFCC00" fill-opacity="0.556863"/>
<path d="M71.8782 32.4087L74.8021 32.6453C75.5671 33.1799 75.3235 33.8943 74.7411 33.7121C73.4205 33.3029 72.5848 33.3029 72.117 33.7145C71.5322 34.2278 71.2423 33.7642 71.6297 32.9362L71.8782 32.4087Z" fill="#FFCC00" fill-opacity="0.556863"/>
<path d="M39.9594 14.6666C39.6987 13.401 39.7084 13.3916 40.0081 13.8623C40.2566 14.2527 41.9135 14.8701 42.0085 14.6099C42.0207 14.5767 42.1742 14.2077 42.3496 13.7914C42.5251 13.375 42.6079 12.9232 42.5324 12.786L42.3959 12.5376C44.0479 12.5376 44.043 12.6843 43.083 13.6447C42.3789 14.352 42.3374 14.4727 42.625 14.9931C43.0806 15.821 42.7663 16.3817 42.2936 15.5845C42.028 15.135 41.6552 14.9221 40.9413 14.8157L39.9594 14.6666Z" fill="#FFCC00" fill-opacity="0.556863"/>
<path d="M67.2487 8.04303C68.1259 6.60711 68.1965 6.30195 68.004 6.14109L67.736 5.914C69.1785 5.0884 69.198 5.0955 69.198 5.88797C69.198 6.2783 69.042 6.63077 68.8325 6.70883C68.601 6.79636 68.467 7.16066 68.467 7.70948C68.467 8.50905 67.736 8.80711 67.3316 8.17313L67.2487 8.04303Z" fill="#FFCC00" fill-opacity="0.556863"/>
<path d="M65.2995 5.91386C64.7805 6.3515 64.8 6.52655 65.0997 6.9287C65.3116 7.2173 65.5261 7.55795 65.5748 7.68806C65.6235 7.81816 65.8574 7.95064 66.0913 7.98376L66.5177 8.0429C65.0485 9.10031 65.0485 9.10031 64.666 7.44677C64.2859 5.80741 64.2859 5.79558 64.7902 5.85472L65.2995 5.91386Z" fill="#FFCC00" fill-opacity="0.556863"/>
<path d="M40.2031 29.8064C40.4199 28.1717 42.0061 28.4485 42.0914 29.5107L42.1523 30.2795C41.6382 30.4877 41.2873 30.3528 41.0437 30.1163C40.7976 29.8821 40.5076 29.7141 40.4004 29.7472L40.2031 29.8064Z" fill="#FFCC00" fill-opacity="0.556863"/>
<path d="M46.5381 7.09668C47.6418 8.13281 48.826 8.18485 49.0404 7.58872L49.2183 7.09668L49.7056 8.51603H49.2183C48.1803 8.66034 47.8002 8.58227 47.7052 8.43324C47.5785 8.23926 47.3714 8.2298 46.9742 8.40485C46.3139 8.69582 45.7048 7.79926 46.2505 7.34034L46.5381 7.09668Z" fill="#FFCC00" fill-opacity="0.556863"/>
<path d="M74.071 24.129C74.439 23.6559 74.2538 23.1946 73.7519 22.4849C72.9259 21.3187 72.9429 21.2879 74.4974 21.1152L75.0457 21.0537C74.3512 22.2554 74.3512 22.4092 74.6777 23.107L75.0457 23.8924L74.071 24.129Z" fill="#FFCC00" fill-opacity="0.556863"/>
<path d="M70.9036 12.5376C72.156 12.2514 72.3874 12.029 72.4971 11.5441C72.7383 10.4843 73.9395 10.5955 74.2952 11.7097L74.5584 12.5376C73.9249 12.171 73.4863 12.0645 73.1744 12.0645C72.8626 12.0645 72.6091 12.171 72.6091 12.3011C72.6091 12.4312 72.2242 12.5376 71.7564 12.5376H70.9036Z" fill="#FFCC00" fill-opacity="0.556863"/>
<path d="M48.4873 5.20432L47.269 5.44087C46.9961 4.68389 47.057 4.37636 47.2495 4.19894C47.5102 3.96238 47.598 3.96711 47.6954 4.22496C47.7953 4.497 47.8514 4.497 48.0463 4.22496C48.2851 3.88905 48.7821 4.63184 48.5774 5.0269L48.4873 5.20432Z" fill="#FFCC00" fill-opacity="0.556863"/>
<path d="M46.2944 37.3763V38.086C45.1225 37.9393 44.9202 37.1705 45.4173 36.8488C45.5659 36.7518 45.5854 36.6713 45.4611 36.6713C45.3393 36.669 45.3271 36.5862 45.4368 36.4892C45.544 36.3922 45.7828 36.5507 45.9631 36.844L46.2944 37.3763Z" fill="#FFCC00" fill-opacity="0.556863"/>
<path d="M72.3655 29.8064C72.3655 28.9831 73.6544 29.0967 73.7641 29.5485L73.8274 29.8064C73.4205 30.3528 73.0477 30.3576 72.67 30.0524L72.3655 29.8064Z" fill="#FFCC00" fill-opacity="0.556863"/>
<path d="M47.5127 36.43C47.1326 35.7203 47.1765 35.5429 47.4469 35.3939C47.7393 35.233 47.9318 35.3844 48.2802 36.0444L48.731 36.9031C48.4483 37.0758 48.3216 36.9954 48.2656 36.8369C48.212 36.6784 48.0195 36.5223 47.8392 36.4891L47.5127 36.43Z" fill="#FFCC00" fill-opacity="0.556863"/>
<path d="M40.6904 11.3549C40.4467 10.9149 40.5003 10.747 40.649 10.6973C41.1046 10.5506 41.9086 11.2485 41.9086 11.7902V12.3012C41.4676 12.3012 41.4213 12.2207 41.5237 12.1238C41.6236 12.0268 41.4774 11.8139 41.1972 11.6506L40.6904 11.3549Z" fill="#FFCC00" fill-opacity="0.556863"/>
<path d="M37.5228 21.2903L36.7919 22.2366C36.3509 22.2366 36.2973 22.1632 36.3899 22.0757C36.48 21.9858 36.4167 21.8131 36.2485 21.6925C35.9172 21.4536 36.6067 21.1295 37.2183 21.2359L37.5228 21.2903Z" fill="#FFCC00" fill-opacity="0.556863"/>
<path d="M39.2285 24.1291L39.9594 23.8926C40.5393 24.167 40.7026 24.3917 40.6977 24.5691C40.6904 24.9334 39.3966 24.73 39.2894 24.3491L39.2285 24.1291Z" fill="#FFCC00" fill-opacity="0.556863"/>
<path d="M76.5076 24.3657L77.2386 23.4194C77.9184 24.4295 77.9111 24.4981 77.5359 24.6424C77.0607 24.8246 76.7805 24.7938 76.6173 24.5384L76.5076 24.3657Z" fill="#FFCC00" fill-opacity="0.556863"/>
<path d="M74.071 24.1291L75.0457 23.8926C75.2479 24.2616 75.0115 24.4982 74.6485 24.659C74.0394 24.9287 73.3912 24.536 73.92 24.219L74.071 24.1291Z" fill="#FFCC00"/>
<path d="M65.7868 5.67734C66.067 4.66724 66.8102 4.63648 66.9344 5.14745L67.0051 5.44079L65.7868 5.67734Z" fill="#FFCC00" fill-opacity="0.556863"/>
<path d="M49.9492 38.0861L49.7056 37.1399C50.746 37.1517 51.0676 37.6272 50.4974 37.8614L49.9492 38.0861Z" fill="#FFCC00" fill-opacity="0.556863"/>
<path d="M76.5076 21.0537L77.9696 21.2903C77.4018 21.2903 77.2264 21.4772 77.2094 21.7042C77.185 22.0496 77.1265 22.0307 76.8439 21.586L76.5076 21.0537Z" fill="#FFCC00" fill-opacity="0.556863"/>
<path d="M58.2335 6.38719L58.9645 6.15063C59.5054 6.2973 59.4981 6.38956 59.2398 6.64741C58.9694 6.91236 58.8378 6.91945 58.5698 6.68289L58.2335 6.38719Z" fill="#FFCC00" fill-opacity="0.556863"/>
<path d="M43.1269 31.2257V30.516C43.5094 30.3173 43.697 30.4498 43.7896 30.684C43.909 30.9821 43.8335 31.124 43.5435 31.1666L43.1269 31.2257Z" fill="#FFCC00" fill-opacity="0.556863"/>
<path d="M37.2792 23.656L37.5229 24.6022C36.4508 24.6022 36.4362 24.5336 36.9137 24.0369L37.2792 23.656Z" fill="#FFCC00" fill-opacity="0.556863"/>
<path d="M75.7767 13.0108L75.533 12.5377C75.8181 11.5134 75.8376 11.5228 75.9448 12.1568C76.0081 12.533 75.996 12.8783 75.918 12.9256L75.7767 13.0108Z" fill="#FFCC00" fill-opacity="0.556863"/>
<path d="M55.797 6.15063L56.5279 6.38719C55.8384 6.62139 55.4827 6.61666 55.2902 6.5244C55.0124 6.39193 55.027 6.33988 55.3706 6.25472L55.797 6.15063Z" fill="#FFCC00" fill-opacity="0.556863"/>
<path d="M49.9492 6.62374L49.7056 5.91406C50.7557 5.91406 50.8629 6.47707 50.3171 6.5646L49.9492 6.62374Z" fill="#FFCC00" fill-opacity="0.556863"/>
<path d="M68.7106 37.8496C68.428 37.6154 68.5376 37.5089 68.7715 37.4616L69.1979 37.3765C69.293 37.8354 69.1833 37.9418 69.0152 37.9087L68.7106 37.8496Z" fill="#FFCC00" fill-opacity="0.556863"/>
<path d="M49.2183 8.51611H49.7056C49.7056 9.24945 49.6325 9.46235 49.5423 9.46235C49.2914 9.46235 49.2183 9.33697 49.2183 8.91117V8.51611Z" fill="#FFCC00"/>
<path d="M67.9797 38.0859L67.7361 39.0322C67.4534 38.5756 67.507 38.3627 67.6751 38.2657L67.9797 38.0859Z" fill="#FFCC00" fill-opacity="0.556863"/>
<path d="M68.7107 37.1397C68.9495 36.3306 68.9592 36.3306 69.0762 36.7257L69.198 37.1397H68.7107Z" fill="#FFCC00" fill-opacity="0.556863"/>
<path d="M39.4721 21.2903H40.2031C40.1909 22.0993 40.1738 22.0993 39.8303 21.7043L39.4721 21.2903Z" fill="#FFCC00" fill-opacity="0.556863"/>
<path d="M39.2284 12.5376H38.7411C38.4293 11.7286 38.4414 11.7286 38.8264 12.1236L39.2284 12.5376Z" fill="#FFCC00" fill-opacity="0.556863"/>
<path d="M75.7767 31.2257L75.533 30.7526C75.5647 30.27 75.6305 30.2913 75.7328 30.516C75.8205 30.7124 75.8668 30.9513 75.8351 31.0483L75.7767 31.2257Z" fill="#FFCC00" fill-opacity="0.556863"/>
</g>
<defs>
<clipPath id="clip0_53_112">
<rect width="96" height="44" fill="white"/>
</clipPath>
</defs>
</svg>
